<?xml version="1.0" encoding="utf-8"?>
<!-- Generator: Adobe Illustrator 19.1.0, SVG Export Plug-In . SVG Version: 6.00 Build 0)  -->
<svg version="1.1" id="Layer_1" xmlns="http://www.w3.org/2000/svg" xmlns:xlink="http://www.w3.org/1999/xlink" x="0px" y="0px"
	 viewBox="0 0 120 120" style="enable-background:new 0 0 120 120;" xml:space="preserve">
<style type="text/css">
	.st0{fill:#005A9C;}
</style>
<g>
	<path class="st0" d="M117.7,62.4c0.8-0.3,1.3-1.1,1.3-1.9s-0.5-1.6-1.3-1.9L85.1,45.7L92,29.8c0.2-0.4,0.1-0.8-0.2-1.1
		c-0.2-0.2-0.5-0.3-0.7-0.3c-0.1,0-0.3,0-0.4,0.1L75,35.3L62.4,3.2c-0.3-0.8-1.1-1.3-1.9-1.3c-0.8,0-1.6,0.5-1.9,1.3L45.9,35.3
		l-15.6-6.8c-0.1-0.1-0.3-0.1-0.4-0.1c-0.3,0-0.5,0.1-0.7,0.3c-0.3,0.3-0.4,0.8-0.2,1.1l6.9,15.9L3.2,58.5c-0.8,0.3-1.3,1.1-1.3,1.9
		s0.5,1.6,1.3,1.9l32.3,12.7l-6.6,15.2c-0.2,0.4-0.1,0.8,0.2,1.1c0.2,0.2,0.5,0.3,0.7,0.3c0.1,0,0.3,0,0.4-0.1L45.6,85l12.9,32.7
		c0.3,0.8,1.1,1.3,1.9,1.3c0.8,0,1.6-0.5,1.9-1.3L75.3,85l15.4,6.7c0.1,0.1,0.3,0.1,0.4,0.1c0.3,0,0.5-0.1,0.7-0.3
		c0.3-0.3,0.4-0.7,0.2-1.1l-6.6-15.2L117.7,62.4z M85.5,35.1L83,41.7l-4-4L85.5,35.1z M35.5,35.1l6.6,2.6l-4,4L35.5,35.1z
		 M35.5,85.1l2.6-6.6l4,4L35.5,85.1z M85.5,85.1L79,82.6l4-4L85.5,85.1z M85.8,70.7c-1.2,0.5-2.2,1.3-2.9,2.5
		c-2.3,3.8-5.6,7.1-9.5,9.3c-1.2,0.7-2.1,1.7-2.6,3l-10.4,26.4L50,85.4c-0.5-1.2-1.4-2.3-2.6-3c-3.9-2.2-7.2-5.5-9.5-9.3
		c-0.7-1.1-1.7-2-2.9-2.5L9.1,60.5l26-10.3c1.3-0.5,2.3-1.4,3-2.6c2.3-4,5.6-7.4,9.6-9.7c1.2-0.7,2-1.7,2.5-2.9L60.5,9.1l10.2,25.8
		c0.5,1.2,1.4,2.3,2.5,2.9c4,2.3,7.3,5.7,9.6,9.7c0.7,1.2,1.7,2.1,3,2.6l26,10.3L85.8,70.7z"/>
	<path class="st0" d="M60.5,38.4c-11.9,0-21.6,9.7-21.6,21.6c0,11.9,9.7,21.6,21.6,21.6c11.9,0,21.6-9.7,21.6-21.6
		C82.1,48.1,72.4,38.4,60.5,38.4z M69.4,60.1c0,4.9-4,8.9-8.9,8.9c-4.9,0-8.9-4-8.9-8.9c0-4.9,4-8.9,8.9-8.9
		C65.4,51.1,69.4,55.1,69.4,60.1z"/>
</g>
</svg>
