<?xml version="1.0" encoding="utf-8"?>
<!-- Generator: Adobe Illustrator 19.2.1, SVG Export Plug-In . SVG Version: 6.00 Build 0)  -->
<svg version="1.1" id="neighborhood" xmlns="http://www.w3.org/2000/svg" xmlns:xlink="http://www.w3.org/1999/xlink" x="0px"
	 y="0px" viewBox="-94 20.9 109.6 61.1" style="enable-background:new -94 20.9 109.6 61.1;" xml:space="preserve">
<style type="text/css">
	.st0{fill:none;}
	.st1{clip-path:url(#SVGID_2_);}
	.st2{opacity:0.93;}
	.st3{clip-path:url(#SVGID_4_);fill:none;stroke:#FFFFFF;}
	.st4{enable-background:new    ;}
	.st5{fill:#FFFFFF;}
	.st6{font-family:'BrandonGrotesque-Medium';}
	.st7{font-size:14px;}
	.st8{clip-path:url(#SVGID_6_);}
	.st9{letter-spacing:-1;}
	.st10{clip-path:url(#SVGID_8_);}
	.st11{clip-path:url(#SVGID_10_);fill:#FFFFFF;}
</style>
<g>
	<rect x="-98.2" y="20.9" class="st0" width="123.1" height="61.1"/>
	<g>
		<defs>
			<rect id="SVGID_1_" x="-98.2" y="20.9" width="123.1" height="61.1"/>
		</defs>
		<clipPath id="SVGID_2_">
			<use xlink:href="#SVGID_1_"  style="overflow:visible;"/>
		</clipPath>
		<g class="st1">
			<g class="st2">
				<g>
					<defs>
						<rect id="SVGID_3_" x="-100.8" y="11.9" width="117.2" height="59"/>
					</defs>
					<clipPath id="SVGID_4_">
						<use xlink:href="#SVGID_3_"  style="overflow:visible;"/>
					</clipPath>
					<polyline class="st3" points="-54.8,61.5 -93.3,61.5 -93.3,23.6 -93.3,21.4 -79.3,21.4 14.9,21.4 14.9,61.5 -19.8,61.5 					
						"/>
				</g>
			</g>
		</g>
	</g>
	<rect x="-98.2" y="20.9" class="st0" width="123.1" height="61.1"/>
	<g>
		<g class="st4">
			<path class="st5" d="M-78.1,27.8c1.4,0,2.4,0.5,3.4,1.3c0.1,0.1,0.1,0.3,0,0.4l-0.6,0.6c-0.1,0.1-0.2,0.1-0.4,0
				c-0.7-0.6-1.6-0.9-2.4-0.9c-2,0-3.5,1.7-3.5,3.6s1.5,3.6,3.5,3.6c1,0,1.7-0.4,2.4-0.9c0.1-0.1,0.3-0.1,0.3,0l0.6,0.6
				c0.1,0.1,0.1,0.3,0,0.4c-1,0.9-2.2,1.4-3.4,1.4c-2.8,0-5.1-2.2-5.1-5S-80.9,27.8-78.1,27.8z"/>
			<path class="st5" d="M-72.7,28.2c0-0.1,0.1-0.3,0.3-0.3h0.9c0.2,0,0.3,0.1,0.3,0.3v3.9h5.1v-3.9c0-0.1,0.1-0.3,0.3-0.3h0.9
				c0.1,0,0.3,0.1,0.3,0.3v9.3c0,0.1-0.1,0.3-0.3,0.3h-0.9c-0.2,0-0.3-0.1-0.3-0.3v-4h-5.1v4c0,0.1-0.1,0.3-0.3,0.3h-0.9
				c-0.1,0-0.3-0.1-0.3-0.3V28.2z"/>
			<path class="st5" d="M-62,28.2c0-0.1,0.1-0.3,0.3-0.3h5.6c0.2,0,0.3,0.1,0.3,0.3v0.8c0,0.1-0.1,0.3-0.3,0.3h-4.4v2.9h3.7
				c0.1,0,0.3,0.1,0.3,0.3v0.8c0,0.2-0.1,0.3-0.3,0.3h-3.7v3h4.4c0.2,0,0.3,0.1,0.3,0.3v0.8c0,0.1-0.1,0.3-0.3,0.3h-5.6
				c-0.2,0-0.3-0.1-0.3-0.3V28.2z"/>
			<path class="st5" d="M-49.4,27.8c1.4,0,2.4,0.5,3.4,1.3c0.1,0.1,0.1,0.3,0,0.4l-0.6,0.6c-0.1,0.1-0.2,0.1-0.4,0
				c-0.7-0.6-1.6-0.9-2.4-0.9c-2,0-3.5,1.7-3.5,3.6s1.5,3.6,3.5,3.6c1,0,1.7-0.4,2.4-0.9c0.1-0.1,0.3-0.1,0.3,0l0.6,0.6
				c0.1,0.1,0.1,0.3,0,0.4c-1,0.9-2.2,1.4-3.4,1.4c-2.8,0-5.1-2.2-5.1-5S-52.2,27.8-49.4,27.8z"/>
			<path class="st5" d="M-44,28.2c0-0.2,0.1-0.3,0.3-0.3h0.8c0.2,0,0.3,0.2,0.3,0.3v3.9l3.9-4.1c0.1-0.1,0.2-0.1,0.3-0.1h1.1
				c0.3,0,0.4,0.3,0.2,0.5l-4,4.1l4.3,4.7c0.1,0.1,0,0.5-0.3,0.5h-1.1c-0.1,0-0.2-0.1-0.3-0.1l-4.1-4.6v4.4c0,0.2-0.2,0.3-0.3,0.3
				h-0.8c-0.2,0-0.3-0.2-0.3-0.3V28.2z"/>
		</g>
		<text transform="matrix(1 0 0 1 -58.5201 37.7001)" class="st5 st6 st7"> </text>
		<text transform="matrix(1 0 0 1 -32.72 37.7001)" class="st5 st6 st7"> </text>
	</g>
	<rect x="-98.2" y="20.9" class="st0" width="123.1" height="61.1"/>
	<g class="st4">
		<path class="st5" d="M-83.1,53.3l4.2-9.4c0-0.1,0.2-0.2,0.2-0.2h0.1c0.1,0,0.2,0.1,0.2,0.2l4.2,9.4c0.1,0.2,0,0.4-0.2,0.4h-0.9
			c-0.2,0-0.3-0.1-0.3-0.2l-0.9-1.9h-4.5c-0.3,0.6-0.6,1.3-0.8,1.9c0,0.1-0.2,0.2-0.3,0.2h-0.9C-83.1,53.7-83.2,53.5-83.1,53.3z
			 M-76.9,50.4l-1.7-3.8h-0.1l-1.7,3.8H-76.9z"/>
		<path class="st5" d="M-74.3,44.3c-0.1-0.2,0-0.4,0.2-0.4h1c0.1,0,0.2,0.1,0.2,0.2l3,6.9h0.1l3-6.9c0-0.1,0.1-0.2,0.2-0.2h1
			c0.2,0,0.3,0.2,0.2,0.4l-4.2,9.4c0,0.1-0.1,0.2-0.2,0.2h-0.1c-0.1,0-0.2-0.1-0.2-0.2L-74.3,44.3z"/>
		<path class="st5" d="M-65.5,53.3l4.2-9.4c0-0.1,0.2-0.2,0.2-0.2h0.1c0.1,0,0.2,0.1,0.2,0.2l4.2,9.4c0.1,0.2,0,0.4-0.2,0.4h-0.9
			c-0.2,0-0.3-0.1-0.3-0.2l-0.9-1.9h-4.5c-0.3,0.6-0.6,1.3-0.8,1.9c0,0.1-0.2,0.2-0.3,0.2h-0.9C-65.4,53.7-65.6,53.5-65.5,53.3z
			 M-59.3,50.4l-1.7-3.8H-61l-1.7,3.8H-59.3z"/>
		<path class="st5" d="M-54.8,44.2c0-0.1,0.1-0.3,0.3-0.3h0.9c0.1,0,0.3,0.1,0.3,0.3v9.3c0,0.1-0.1,0.3-0.3,0.3h-0.9
			c-0.1,0-0.3-0.1-0.3-0.3V44.2z"/>
		<path class="st5" d="M-50.3,44.2c0-0.1,0.1-0.3,0.3-0.3h0.9c0.1,0,0.3,0.1,0.3,0.3v8.2h3.7c0.2,0,0.3,0.1,0.3,0.3v0.8
			c0,0.1-0.1,0.3-0.3,0.3h-4.9c-0.2,0-0.3-0.1-0.3-0.3V44.2z"/>
		<path class="st5" d="M-44,53.3l4.2-9.4c0-0.1,0.2-0.2,0.2-0.2h0.1c0.1,0,0.2,0.1,0.2,0.2l4.2,9.4c0.1,0.2,0,0.4-0.2,0.4h-0.9
			c-0.2,0-0.3-0.1-0.3-0.2l-0.9-1.9h-4.5c-0.3,0.6-0.6,1.3-0.8,1.9c0,0.1-0.2,0.2-0.3,0.2h-0.9C-44,53.7-44.1,53.5-44,53.3z
			 M-37.8,50.4l-1.7-3.8h-0.1l-1.7,3.8H-37.8z"/>
		<path class="st5" d="M-33.3,44.2c0-0.1,0.1-0.3,0.3-0.3h3.1c1.7,0,2.9,1.1,2.9,2.6c0,1.1-0.8,1.8-1.4,2.2c0.7,0.3,1.7,1,1.7,2.3
			c0,1.6-1.3,2.7-3,2.7H-33c-0.2,0-0.3-0.1-0.3-0.3V44.2z M-29.8,52.4c0.8,0,1.5-0.7,1.5-1.5c0-0.9-0.8-1.5-1.7-1.5h-1.9v3H-29.8z
			 M-30,48.2c0.9,0,1.4-0.7,1.4-1.5c0-0.9-0.5-1.4-1.4-1.4h-1.9v2.9H-30z"/>
		<path class="st5" d="M-24.4,44.2c0-0.1,0.1-0.3,0.3-0.3h0.9c0.1,0,0.3,0.1,0.3,0.3v9.3c0,0.1-0.1,0.3-0.3,0.3h-0.9
			c-0.1,0-0.3-0.1-0.3-0.3V44.2z"/>
		<path class="st5" d="M-20,44.2c0-0.1,0.1-0.3,0.3-0.3h0.9c0.1,0,0.3,0.1,0.3,0.3v8.2h3.7c0.2,0,0.3,0.1,0.3,0.3v0.8
			c0,0.1-0.1,0.3-0.3,0.3h-4.9c-0.2,0-0.3-0.1-0.3-0.3V44.2z"/>
		<path class="st5" d="M-12.8,44.2c0-0.1,0.1-0.3,0.3-0.3h0.9c0.1,0,0.3,0.1,0.3,0.3v9.3c0,0.1-0.1,0.3-0.3,0.3h-0.9
			c-0.1,0-0.3-0.1-0.3-0.3V44.2z"/>
		<path class="st5" d="M-7,45.2h-2.2c-0.2,0-0.3-0.1-0.3-0.3v-0.8c0-0.1,0.1-0.3,0.3-0.3h5.9c0.2,0,0.3,0.1,0.3,0.3v0.8
			c0,0.1-0.1,0.3-0.3,0.3h-2.2v8.2c0,0.1-0.1,0.3-0.3,0.3h-0.9c-0.1,0-0.3-0.1-0.3-0.3V45.2z"/>
		<path class="st5" d="M1,49l-3.2-4.7c-0.1-0.2,0-0.4,0.2-0.4h1c0.1,0,0.2,0.1,0.2,0.1l2.5,3.6L4.2,44c0-0.1,0.1-0.1,0.2-0.1h1
			c0.2,0,0.3,0.2,0.2,0.4L2.4,49v4.5c0,0.1-0.1,0.3-0.3,0.3H1.3c-0.2,0-0.3-0.1-0.3-0.3V49z"/>
	</g>
	<g>
		<defs>
			<rect id="SVGID_5_" x="-98.2" y="20.9" width="123.1" height="61.1"/>
		</defs>
		<clipPath id="SVGID_6_">
			<use xlink:href="#SVGID_5_"  style="overflow:visible;"/>
		</clipPath>
		<g class="st8">
			<text transform="matrix(1 0 0 1 3.0424 53.702)" class="st5 st6 st7 st9">     </text>
			<text transform="matrix(1 0 0 1 6.5424 53.702)" class="st5 st6 st7"> </text>
		</g>
	</g>
	<g>
		<defs>
			<rect id="SVGID_7_" x="-96.2" y="20.9" width="123.1" height="61.1"/>
		</defs>
		<clipPath id="SVGID_8_">
			<use xlink:href="#SVGID_7_"  style="overflow:visible;"/>
		</clipPath>
		<g class="st10">
			<g>
				<defs>
					<rect id="SVGID_9_" x="-96.2" y="20.9" width="123.1" height="61.1"/>
				</defs>
				<clipPath id="SVGID_10_">
					<use xlink:href="#SVGID_9_"  style="overflow:visible;"/>
				</clipPath>
				<path class="st11" d="M-48.2,75l5.9,5.9c1.2-0.7,6-3.5,9.4-6.8c0.8-0.8,0.2-2.1-0.3-2.7c-0.8,0.8-2.1,2.1-2.1,2.1l-0.7-0.7
					l2.5-2.5c0.2-0.2-0.2-1.1-1-2l-2.2,2.2l-0.7-0.6l2.6-2.6c0.2-0.2-0.2-1-1.1-1.9l-3,3l-0.6-0.6l5.6-5.6c0.7-0.7,0.6-1.1,0.1-1.6
					s-1-0.5-1.6,0.1l-8.5,8.5l-0.6-0.6l1.5-1.5c0.2-1.1,0.3-2.9-0.2-3.4c-0.1-0.1-0.3-0.2-0.5-0.2c-1,0-1.2,0.7-1.4,2.8
					c-0.1,1.4-0.3,3.2-1.1,5.1C-46.8,72.2-47.8,74.2-48.2,75 M-42.5,82l-6.8-6.8l0.2-0.3c0,0,1.5-2.8,2.1-4.1c0.8-1.7,0.9-3.4,1-4.8
					c0.1-1,0.2-1.8,0.4-2.4c0.3-0.8,0.9-1.2,1.8-1.2c0.5,0,0.9,0.2,1.2,0.5c0.7,0.7,0.7,2,0.7,3L-36,60c1-1,2-1,2.9-0.1
					s0.9,1.9-0.1,2.9l-2,2c0.7,0.8,1.6,2,1.3,2.8c0.8,0.8,1.7,2.1,1.4,3c0.2,0.3,0.5,0.7,0.7,1.2c0.5,1.2,0.4,2.2-0.4,2.9
					c-3.9,3.9-9.7,7-9.9,7.2L-42.5,82z"/>
			</g>
		</g>
	</g>
</g>
</svg>
