<?xml version="1.0" encoding="utf-8"?>
<!-- Generator: Adobe Illustrator 19.0.1, SVG Export Plug-In . SVG Version: 6.00 Build 0)  -->
<!DOCTYPE svg PUBLIC "-//W3C//DTD SVG 1.1//EN" "http://www.w3.org/Graphics/SVG/1.1/DTD/svg11.dtd">
<svg version="1.1" id="Layer_1" xmlns="http://www.w3.org/2000/svg" xmlns:xlink="http://www.w3.org/1999/xlink" x="0px" y="0px"
	 width="109.6px" height="61.1px" viewBox="-4 -0.1 109.6 61.1" style="enable-background:new -4 -0.1 109.6 61.1;"
	 xml:space="preserve">
<style type="text/css">
	.st0{clip-path:url(#SVGID_2_);}
	.st1{clip-path:url(#SVGID_4_);}
	.st2{opacity:0.93;}
	.st3{clip-path:url(#SVGID_6_);fill:none;stroke:#FFFFFF;}
	.st4{clip-path:url(#SVGID_8_);fill:none;}
	.st5{clip-path:url(#SVGID_12_);}
	.st6{clip-path:url(#SVGID_14_);}
	.st7{clip-path:url(#SVGID_16_);}
	.st8{clip-path:url(#SVGID_18_);}
	.st9{clip-path:url(#SVGID_20_);}
	.st10{clip-path:url(#SVGID_22_);fill:#FFFFFF;}
	.st11{clip-path:url(#SVGID_14_);enable-background:new    ;}
	.st12{fill:#FFFFFF;}
</style>
<g>
	<g>
		<g>
			<defs>
				<rect id="SVGID_1_" x="-6.1" y="-0.1" width="123.1" height="61.1"/>
			</defs>
			<clipPath id="SVGID_2_">
				<use xlink:href="#SVGID_1_"  style="overflow:visible;"/>
			</clipPath>
			<g class="st0">
				<g>
					<defs>
						<rect id="SVGID_3_" x="-6.1" y="-0.1" width="123.1" height="61.1"/>
					</defs>
					<clipPath id="SVGID_4_">
						<use xlink:href="#SVGID_3_"  style="overflow:visible;"/>
					</clipPath>
					<g class="st1">
						<g>
							<g>
								<g class="st2">
									<g>
										<defs>
											<rect id="SVGID_5_" x="-10.7" y="-9.1" width="117.2" height="59"/>
										</defs>
										<clipPath id="SVGID_6_">
											<use xlink:href="#SVGID_5_"  style="overflow:visible;"/>
										</clipPath>
										<polyline class="st3" points="35.3,40.5 -3.2,40.5 -3.2,2.6 -3.2,0.4 10.8,0.4 105,0.4 105,40.5 70.3,40.5 										"/>
									</g>
								</g>
							</g>
						</g>
					</g>
				</g>
				<g>
					<defs>
						<rect id="SVGID_7_" x="-6.1" y="-0.1" width="123.1" height="61.1"/>
					</defs>
					<clipPath id="SVGID_8_">
						<use xlink:href="#SVGID_7_"  style="overflow:visible;"/>
					</clipPath>
					<rect x="-6.1" y="-0.1" class="st4" width="123.1" height="61.1"/>
				</g>
				<g>
					<defs>
						<rect id="SVGID_9_" x="-6.1" y="-0.1" width="123.1" height="61.1"/>
					</defs>
					<clipPath id="SVGID_10_">
						<use xlink:href="#SVGID_9_"  style="overflow:visible;"/>
					</clipPath>
				</g>
				<g>
					<defs>
						<rect id="SVGID_11_" x="-6.1" y="-0.1" width="123.1" height="61.1"/>
					</defs>
					<clipPath id="SVGID_12_">
						<use xlink:href="#SVGID_11_"  style="overflow:visible;"/>
					</clipPath>
					<g class="st5">
						<g>
							<defs>
								<rect id="SVGID_13_" x="-6.1" y="-0.1" width="123.1" height="61.1"/>
							</defs>
							<clipPath id="SVGID_14_">
								<use xlink:href="#SVGID_13_"  style="overflow:visible;"/>
							</clipPath>
							<g class="st6">
								<g>
									<g>
										<defs>
											<rect id="SVGID_15_" x="-6.1" y="-0.1" width="123.1" height="61.1"/>
										</defs>
										<clipPath id="SVGID_16_">
											<use xlink:href="#SVGID_15_"  style="overflow:visible;"/>
										</clipPath>
										<g class="st7">
											<g>
												<g>
													<defs>
														<rect id="SVGID_17_" x="-6.1" y="-0.1" width="123.1" height="61.1"/>
													</defs>
													<clipPath id="SVGID_18_">
														<use xlink:href="#SVGID_17_"  style="overflow:visible;"/>
													</clipPath>
													<g class="st8">
														<g>
															<g>
																<defs>
																	<rect id="SVGID_19_" x="-6.1" y="-0.1" width="123.1" height="61.1"/>
																</defs>
																<clipPath id="SVGID_20_">
																	<use xlink:href="#SVGID_19_"  style="overflow:visible;"/>
																</clipPath>
																<g class="st9">
																	<g>
																		<g>
																			<g>
																				<defs>
																					<rect id="SVGID_21_" x="-6.1" y="-0.1" width="123.1" height="61.1"/>
																				</defs>
																				<clipPath id="SVGID_22_">
																					<use xlink:href="#SVGID_21_"  style="overflow:visible;"/>
																				</clipPath>
																				<path class="st10" d="M41.9,54l5.9,5.9c1.2-0.7,6-3.5,9.4-6.8c0.8-0.8,0.2-2.1-0.3-2.7
																					c-0.8,0.8-2.1,2.1-2.1,2.1l-0.7-0.7l2.5-2.5c0.2-0.2-0.2-1.1-1-2l-2.2,2.2l-0.7-0.6l2.6-2.6
																					c0.2-0.2-0.2-1-1.1-1.9l-3,3l-0.6-0.6l5.6-5.6c0.7-0.7,0.6-1.1,0.1-1.6s-1-0.5-1.6,0.1l-8.5,8.5l-0.6-0.6
																					l1.5-1.5c0.2-1.1,0.3-2.9-0.2-3.4c-0.1-0.1-0.3-0.2-0.5-0.2c-1,0-1.2,0.7-1.4,2.8c-0.1,1.4-0.3,3.2-1.1,5.1
																					C43.3,51.2,42.3,53.2,41.9,54 M47.6,61l-6.8-6.8l0.2-0.3c0,0,1.5-2.8,2.1-4.1c0.8-1.7,0.9-3.4,1-4.8
																					c0.1-1,0.2-1.8,0.4-2.4c0.3-0.8,0.9-1.2,1.8-1.2c0.5,0,0.9,0.2,1.2,0.5c0.7,0.7,0.7,2,0.7,3l5.9-5.9
																					c1-1,2-1,2.9-0.1s0.9,1.9-0.1,2.9l-2,2c0.7,0.8,1.6,2,1.3,2.8c0.8,0.8,1.7,2.1,1.4,3c0.2,0.3,0.5,0.7,0.7,1.2
																					c0.5,1.2,0.4,2.2-0.4,2.9c-3.9,3.9-9.7,7-9.9,7.2L47.6,61z"/>
																			</g>
																		</g>
																	</g>
																</g>
															</g>
														</g>
													</g>
												</g>
											</g>
										</g>
									</g>
								</g>
							</g>
							<g class="st11">
								<path class="st12" d="M11.1,25.3l4.3-9.4c0-0.1,0.2-0.2,0.2-0.2h0.1c0.1,0,0.2,0.1,0.2,0.2l4.3,9.4c0.1,0.2,0,0.4-0.2,0.4
									h-0.9c-0.2,0-0.3-0.1-0.3-0.2l-0.9-1.9h-4.6c-0.3,0.6-0.6,1.3-0.9,1.9c0,0.1-0.2,0.2-0.3,0.2h-0.9
									C11.2,25.7,11.1,25.5,11.1,25.3z M17.5,22.3l-1.7-3.8h-0.1L14,22.3H17.5z"/>
								<path class="st12" d="M21.7,16.1c0-0.1,0.1-0.3,0.3-0.3h3.2c1.7,0,3.1,1.4,3.1,3.1c0,1.7-1.4,3.2-3.1,3.2h-2v3.3
									c0,0.1-0.1,0.3-0.3,0.3H22c-0.2,0-0.3-0.1-0.3-0.3C21.7,25.4,21.7,16.1,21.7,16.1z M25.1,20.7c1,0,1.8-0.8,1.8-1.8
									s-0.8-1.7-1.8-1.7h-1.9v3.5H25.1z"/>
								<path class="st12" d="M30,16.1c0-0.1,0.1-0.3,0.3-0.3h3.2c1.7,0,3.1,1.4,3.1,3.1c0,1.7-1.4,3.2-3.1,3.2h-2v3.3
									c0,0.1-0.1,0.3-0.3,0.3h-0.9c-0.2,0-0.3-0.1-0.3-0.3V16.1z M33.4,20.7c1,0,1.8-0.8,1.8-1.8s-0.8-1.7-1.8-1.7h-1.9v3.5H33.4z
									"/>
								<path class="st12" d="M38.4,16.1c0-0.1,0.1-0.3,0.3-0.3h0.9c0.1,0,0.3,0.1,0.3,0.3v8.2h3.8c0.2,0,0.3,0.1,0.3,0.3v0.8
									c0,0.1-0.1,0.3-0.3,0.3h-5c-0.2,0-0.3-0.1-0.3-0.3V16.1z"/>
								<path class="st12" d="M46.5,20.9l-3.3-4.7c-0.1-0.2,0-0.4,0.2-0.4h1c0.1,0,0.2,0.1,0.2,0.1l2.5,3.6l2.5-3.6
									c0-0.1,0.1-0.1,0.2-0.1h1.3c0.2,0,0.3,0.2,0.2,0.4L48,20.9v4.5c0,0.1-0.1,0.3-0.3,0.3h-0.9c-0.2,0-0.3-0.1-0.3-0.3V20.9z"/>
								<path class="st12" d="M55.7,16c0-0.1,0.1-0.3,0.3-0.3h0.4l6.1,7l0,0v-6.6c0-0.1,0.1-0.3,0.3-0.3h0.9c0.1,0,0.3,0.1,0.3,0.3
									v9.5c0,0.1-0.1,0.3-0.3,0.3h-0.4l-6.1-7.3l0,0v6.8c0,0.1-0.1,0.3-0.3,0.3H56c-0.1,0-0.3-0.1-0.3-0.3V16z"/>
								<path class="st12" d="M70.9,15.7c2.8,0,5,2.3,5,5.1s-2.2,5-5,5s-5-2.2-5-5S68.1,15.7,70.9,15.7z M70.9,24.4
									c2,0,3.6-1.6,3.6-3.6s-1.6-3.7-3.6-3.7s-3.6,1.7-3.6,3.7C67.3,22.8,68.9,24.4,70.9,24.4z"/>
								<path class="st12" d="M77,16.2c-0.1-0.2,0.1-0.3,0.3-0.3h0.9c0.1,0,0.2,0.1,0.3,0.2l1.7,6.4h0.1l2.3-6.6
									c0-0.1,0.1-0.2,0.2-0.2h0.3c0.1,0,0.2,0.1,0.2,0.2l2.3,6.6h0.1l1.7-6.4c0-0.1,0.1-0.2,0.3-0.2h0.9c0.2,0,0.3,0.1,0.3,0.3
									L86,25.6c0,0.1-0.1,0.2-0.3,0.2h-0.2c-0.1,0-0.2-0.1-0.2-0.2l-2.5-7h-0.1l-2.4,7c0,0.1-0.1,0.2-0.2,0.2h-0.2
									c-0.1,0-0.2-0.1-0.3-0.2L77,16.2z"/>
							</g>
						</g>
					</g>
				</g>
			</g>
		</g>
	</g>
</g>
</svg>
