<?xml version="1.0" encoding="utf-8"?>
<!-- Generator: Adobe Illustrator 19.1.0, SVG Export Plug-In . SVG Version: 6.00 Build 0)  -->
<svg version="1.1" id="Layer_1" xmlns="http://www.w3.org/2000/svg" xmlns:xlink="http://www.w3.org/1999/xlink" x="0px" y="0px"
	 viewBox="0 0 25.1 14.6" enable-background="new 0 0 25.1 14.6" xml:space="preserve">
<g>
	<defs>
		<rect id="SVGID_1_" width="17.6" height="14.6"/>
	</defs>
	<clipPath id="SVGID_2_">
		<use xlink:href="#SVGID_1_"  overflow="visible"/>
	</clipPath>
	<path clip-path="url(#SVGID_2_)" fill="#FFFFFF" d="M15.6,6.7c-0.1,0.1-0.1,0.3,0,0.5l0.1,0.1c0.1,0.1,0.3,0.1,0.4,0
		c0.9-1,1.4-2.2,1.4-3.6c0-1.4-0.5-2.7-1.3-3.6c-0.1-0.1-0.3-0.1-0.4,0l-0.1,0.1c-0.1,0.1-0.1,0.3,0,0.5c0.7,0.8,1.1,1.9,1.1,3.1
		C16.7,4.9,16.3,5.9,15.6,6.7"/>
	<path clip-path="url(#SVGID_2_)" fill="#FFFFFF" d="M14.9,1l-0.1,0.1c-0.1,0.1-0.1,0.3,0,0.5c0.5,0.6,0.8,1.3,0.7,2.1
		c0,0.8-0.3,1.5-0.8,2.1c-0.1,0.1-0.1,0.3,0,0.5l0.1,0.1c0.1,0.1,0.3,0.1,0.4,0c0.6-0.7,1-1.7,1-2.7c0-1-0.4-2-1-2.7
		C15.2,0.9,15,0.9,14.9,1"/>
	<path clip-path="url(#SVGID_2_)" fill="#FFFFFF" d="M2,6.7c0.1,0.1,0.1,0.3,0,0.5L1.8,7.3c-0.1,0.1-0.3,0.1-0.4,0
		C0.5,6.4,0,5.1,0,3.7c0-1.4,0.5-2.7,1.3-3.6C1.5,0,1.7,0,1.8,0.1l0.1,0.1C2,0.3,2,0.5,1.9,0.7C1.2,1.5,0.8,2.5,0.8,3.7
		C0.8,4.9,1.2,5.9,2,6.7"/>
	<path clip-path="url(#SVGID_2_)" fill="#FFFFFF" d="M2.7,1l0.1,0.1c0.1,0.1,0.1,0.3,0,0.5C2.4,2.1,2.1,2.9,2.1,3.7
		c0,0.8,0.3,1.5,0.8,2.1C3,6,3,6.2,2.9,6.3L2.8,6.4c-0.1,0.1-0.3,0.1-0.4,0c-0.6-0.7-1-1.7-1-2.7c0-1,0.4-2,1-2.7
		C2.4,0.9,2.6,0.9,2.7,1"/>
	<path clip-path="url(#SVGID_2_)" fill="#FFFFFF" d="M12.5,12.5H5V1.3h7.5V12.5z M10.6,13.9H7v-0.5h3.6V13.9z M12.3,0h-7
		c-0.6,0-1,0.5-1,1v12.6c0,0.6,0.5,1,1,1h7c0.6,0,1-0.5,1-1V1C13.3,0.5,12.8,0,12.3,0"/>
</g>
</svg>
