<?xml version="1.0" encoding="utf-8"?>
<!-- Generator: Adobe Illustrator 19.0.1, SVG Export Plug-In . SVG Version: 6.00 Build 0)  -->
<!DOCTYPE svg PUBLIC "-//W3C//DTD SVG 1.1//EN" "http://www.w3.org/Graphics/SVG/1.1/DTD/svg11.dtd">
<svg version="1.1" id="Layer_1" xmlns="http://www.w3.org/2000/svg" xmlns:xlink="http://www.w3.org/1999/xlink" x="0px" y="0px"
	 width="20px" height="18px" viewBox="0 0 20 18" style="enable-background:new 0 0 20 18;" xml:space="preserve">
<style type="text/css">
	.st0{clip-path:url(#SVGID_2_);}
	.st1{opacity:0.76;clip-path:url(#SVGID_4_);}
	.st2{clip-path:url(#SVGID_6_);fill:#333333;}
</style>
<g>
	<defs>
		<rect id="SVGID_1_" x="0.1" y="0.2" width="19.9" height="17.5"/>
	</defs>
	<clipPath id="SVGID_2_">
		<use xlink:href="#SVGID_1_"  style="overflow:visible;"/>
	</clipPath>
	<g class="st0">
		<defs>
			<rect id="SVGID_3_" x="0.1" y="0.2" width="19.9" height="17.5"/>
		</defs>
		<clipPath id="SVGID_4_">
			<use xlink:href="#SVGID_3_"  style="overflow:visible;"/>
		</clipPath>
		<g class="st1">
			<g>
				<defs>
					<rect id="SVGID_5_" x="-4.3" y="-3.1" width="28.6" height="21.1"/>
				</defs>
				<clipPath id="SVGID_6_">
					<use xlink:href="#SVGID_5_"  style="overflow:visible;"/>
				</clipPath>
				<rect x="10.5" y="3" class="st2" width="6.7" height="0.7"/>
				<rect x="10.5" y="5.8" class="st2" width="6.7" height="0.7"/>
				<rect x="10.5" y="8.6" class="st2" width="6.7" height="0.7"/>
				<rect x="10.5" y="11.5" class="st2" width="6.7" height="0.7"/>
				<rect x="10.5" y="14.3" class="st2" width="6.7" height="0.7"/>
				<rect x="10.5" y="17.1" class="st2" width="6.7" height="0.7"/>
				<path class="st2" d="M19.2,17.8v-16c0-0.5-0.4-0.8-0.8-0.8H9.2c-0.5,0-0.8,0.4-0.8,0.8v16H7.7l0-16c0-0.8,0.7-1.5,1.5-1.5h9.2
					c0.8,0,1.5,0.7,1.5,1.5v16H19.2z"/>
				<path class="st2" d="M0.1,17.8v-7.6c0-0.8,0.7-1.5,1.5-1.5h4.3v0.7H1.6c-0.5,0-0.8,0.4-0.8,0.8v7.6H0.1z"/>
				<rect x="2.8" y="11.5" class="st2" width="3" height="0.7"/>
				<rect x="2.8" y="14.3" class="st2" width="3" height="0.7"/>
				<rect x="2.8" y="17.1" class="st2" width="3" height="0.7"/>
			</g>
		</g>
	</g>
</g>
</svg>
