<?xml version="1.0" encoding="utf-8"?>
<!-- Generator: Adobe Illustrator 19.1.0, SVG Export Plug-In . SVG Version: 6.00 Build 0)  -->
<svg version="1.1" id="Layer_1" xmlns="http://www.w3.org/2000/svg" xmlns:xlink="http://www.w3.org/1999/xlink" x="0px" y="0px"
	 viewBox="-215 291.7 194.3 44.3" enable-background="new -215 291.7 194.3 44.3" xml:space="preserve">
<g>
	<g>
		<path fill="#0076C0" stroke="#0076C0" stroke-width="0.2098" d="M-167.5,325.3h-7.9v-22.8h7.9c7.2,0,12.1,4.9,12.1,11.4
			C-155.4,320.3-160.3,325.3-167.5,325.3z M-167.5,304.8h-5.3v18.1h5.3c5.8,0,9.5-3.9,9.5-9C-158,308.8-161.7,304.8-167.5,304.8z"/>
		<path fill="#0076C0" stroke="#0076C0" stroke-width="0.2098" d="M-136.1,325.3l-6.6-8.9h-6.5v8.9h-2.6v-22.8h9.8
			c5,0,8.2,2.7,8.2,6.8c0,3.8-2.6,6-6.2,6.7l7,9.3H-136.1z M-142.2,304.8h-7v9.3h7c3.4,0,5.9-1.8,5.9-4.7
			C-136.4,306.5-138.5,304.8-142.2,304.8z"/>
		<path fill="#0076C0" stroke="#0076C0" stroke-width="0.2098" d="M-110.6,325.3h-2.8l-2.7-6h-12.4l-2.7,6h-2.6l10.4-23h2.4
			L-110.6,325.3z M-122.2,305.3l-5.2,11.6h10.4L-122.2,305.3z"/>
		<path fill="#0076C0" stroke="#0076C0" stroke-width="0.2098" d="M-91.7,302.5h2.5v22.8h-2.1l-14.7-18.7v18.7h-2.5v-22.8h2.4
			l14.4,18.2V302.5z"/>
		<path fill="#0076C0" stroke="#0076C0" stroke-width="0.2098" d="M-74.2,325.7c-6.9,0-11.6-5.4-11.6-11.8c0-6.3,4.7-11.8,11.7-11.8
			c6.9,0,11.6,5.4,11.6,11.8C-62.5,320.2-67.3,325.7-74.2,325.7z M-74.2,304.4c-5.2,0-8.9,4.2-8.9,9.4c0,5.2,3.8,9.5,9,9.5
			s8.9-4.2,8.9-9.4C-65.2,308.7-69,304.4-74.2,304.4z"/>
		<path fill="#0076C0" stroke="#0076C0" stroke-width="0.2098" d="M-42.9,304.8h-13.8v8.1h12.4v2.3h-12.4v9.9h-2.6v-22.6h16.4
			L-42.9,304.8L-42.9,304.8z"/>
		<path fill="#0076C0" stroke="#0076C0" stroke-width="0.2098" d="M-23.4,304.8h-13.8v8.1h12.4v2.3h-12.4v9.9h-2.6v-22.6h16.4
			L-23.4,304.8L-23.4,304.8z"/>
	</g>
	<g>
		<rect x="-211.1" y="294.6" fill="none" width="28.2" height="38.7"/>
		<polygon fill="#0076C0" points="-197.2,294.6 -211.1,294.6 -211.1,315.7 -209.8,315.7 -209.8,310 -206.9,310 -206.9,304.4 
			-203,304.4 -203,300.1 		"/>
		<polygon points="-203,305.7 -205.6,305.7 -205.6,311.3 -208.5,311.3 -208.5,317 -211.1,317 -211.1,331.5 -203,325.4 		"/>
		<polygon fill="#0076C0" points="-196.9,294.6 -182.9,294.6 -182.9,315.7 -184.3,315.7 -184.3,310 -187.2,310 -187.2,304.4 
			-191.1,304.4 -191.1,300.1 		"/>
		<polygon points="-191.1,305.7 -188.5,305.7 -188.5,311.3 -185.6,311.3 -185.6,317 -182.9,317 -182.9,331.5 -191.1,325.4 		"/>
		<g>
			<polygon fill="#A7A9AC" points="-197.4,319 -197.4,299 -198.8,299 -198.8,320 			"/>
			<polygon fill="#A7A9AC" points="-199.8,320.8 -199.8,300.5 -201.4,300.5 -201.4,322 			"/>
			<path fill="#A7A9AC" d="M-204.9,307v19.8l2-1.5V307H-204.9z"/>
			<path fill="#A7A9AC" d="M-207.4,312.6v16.1l1.8-1.4v-14.7H-207.4z"/>
			<polygon fill="#A7A9AC" points="-196.7,319 -196.7,299 -195.3,299 -195.3,320 			"/>
			<polygon fill="#A7A9AC" points="-194.3,320.8 -194.3,300.5 -192.6,300.5 -192.6,322 			"/>
			<path fill="#A7A9AC" d="M-191.1,307v18.3l2,1.5V307H-191.1z"/>
			<path fill="#A7A9AC" d="M-188.5,312.6v14.7l1.8,1.4v-16.1H-188.5z"/>
		</g>
		<polygon points="-191.1,323.2 -197,318.7 -203,323.2 -203,325.4 -197,320.9 -191.1,325.4 		"/>
		<polygon points="-211.1,333.3 -182.9,333.3 -197,322.7 		"/>
	</g>
</g>
</svg>
