<?xml version="1.0" encoding="utf-8"?>
<!-- Generator: Adobe Illustrator 19.1.0, SVG Export Plug-In . SVG Version: 6.00 Build 0)  -->
<svg version="1.1" id="Layer_1" xmlns="http://www.w3.org/2000/svg" xmlns:xlink="http://www.w3.org/1999/xlink" x="0px" y="0px"
	 viewBox="0 0 34.1 36.1" style="enable-background:new 0 0 34.1 36.1;" xml:space="preserve">
<style type="text/css">
	.st0{fill:#005A9C;}
</style>
<path class="st0" d="M32.5,13.6c0-0.3-0.1-0.5-0.3-0.7l-4.9-3.9l0,2.3l2.9,2.3L17,24.2L3.8,13.5l2.9-2.3l0-2.3l-4.9,3.9
	c-0.2,0.2-0.3,0.4-0.3,0.7l0,20.2c0,0.5,0.4,0.9,0.9,0.9h0l29.3,0c0.2,0,0.5-0.1,0.6-0.3c0.2-0.2,0.3-0.4,0.3-0.6L32.5,13.6z
	 M3.2,32.9l0-17.4l13.2,10.6c0.2,0.1,0.4,0.2,0.6,0.2c0.2,0,0.4-0.1,0.6-0.2c0,0,0,0,0,0l13.2-10.6l0,17.4L3.2,32.9z M17,2.9
	l2.3,1.9l2.9,0L17.5,1c-0.3-0.3-0.8-0.3-1.1,0l-4.6,3.7l2.9,0L17,2.9z M10.5,16.3l0-7.7l13,0l0,7.8l1.8-1.5l0-7.2
	c0-0.2-0.1-0.5-0.3-0.6c-0.2-0.2-0.4-0.3-0.6-0.3h0l-14.8,0c-0.5,0-0.9,0.4-0.9,0.9l0,7.2L10.5,16.3z"/>
</svg>
