<?xml version="1.0" encoding="utf-8"?>
<!-- Generator: Adobe Illustrator 19.0.1, SVG Export Plug-In . SVG Version: 6.00 Build 0)  -->
<!DOCTYPE svg PUBLIC "-//W3C//DTD SVG 1.1//EN" "http://www.w3.org/Graphics/SVG/1.1/DTD/svg11.dtd">
<svg version="1.1" id="Layer_3" xmlns="http://www.w3.org/2000/svg" xmlns:xlink="http://www.w3.org/1999/xlink" x="0px" y="0px"
	 width="109.6px" height="61.1px" viewBox="-4 -0.1 109.6 61.1" style="enable-background:new -4 -0.1 109.6 61.1;"
	 xml:space="preserve">
<style type="text/css">
	.st0{clip-path:url(#SVGID_2_);}
	.st1{clip-path:url(#SVGID_4_);}
	.st2{opacity:0.93;}
	.st3{clip-path:url(#SVGID_6_);fill:none;stroke:#FFFFFF;}
	.st4{clip-path:url(#SVGID_8_);}
	.st5{clip-path:url(#SVGID_10_);}
	.st6{clip-path:url(#SVGID_14_);}
	.st7{clip-path:url(#SVGID_18_);}
	.st8{clip-path:url(#SVGID_20_);}
	.st9{clip-path:url(#SVGID_22_);fill:#FFFFFF;}
	.st10{enable-background:new    ;}
	.st11{fill:#FFFFFF;}
</style>
<g>
	<g>
		<g>
			<defs>
				<rect id="SVGID_1_" x="-6.2" y="-0.1" width="123.1" height="61.1"/>
			</defs>
			<clipPath id="SVGID_2_">
				<use xlink:href="#SVGID_1_"  style="overflow:visible;"/>
			</clipPath>
			<g class="st0">
				<g>
					<defs>
						<rect id="SVGID_3_" x="-6.2" y="-0.1" width="123.1" height="61.1"/>
					</defs>
					<clipPath id="SVGID_4_">
						<use xlink:href="#SVGID_3_"  style="overflow:visible;"/>
					</clipPath>
					<g class="st1">
						<g>
							<g class="st2">
								<g>
									<defs>
										<rect id="SVGID_5_" x="-10.8" y="-9.1" width="117.2" height="59"/>
									</defs>
									<clipPath id="SVGID_6_">
										<use xlink:href="#SVGID_5_"  style="overflow:visible;"/>
									</clipPath>
									<polyline class="st3" points="35.2,40.5 -3.3,40.5 -3.3,2.6 -3.3,0.4 10.7,0.4 104.9,0.4 104.9,40.5 70.2,40.5 									
										"/>
								</g>
							</g>
						</g>
					</g>
				</g>
				<g>
					<defs>
						<rect id="SVGID_7_" x="-6.2" y="-0.1" width="123.1" height="61.1"/>
					</defs>
					<clipPath id="SVGID_8_">
						<use xlink:href="#SVGID_7_"  style="overflow:visible;"/>
					</clipPath>
					<g class="st4">
						<g>
							<defs>
								<rect id="SVGID_9_" x="-6.2" y="-0.1" width="123.1" height="61.1"/>
							</defs>
							<clipPath id="SVGID_10_">
								<use xlink:href="#SVGID_9_"  style="overflow:visible;"/>
							</clipPath>
							<g class="st5">
								<g>
									<defs>
										<rect id="SVGID_11_" x="-6.2" y="-0.1" width="123.1" height="61.1"/>
									</defs>
									<clipPath id="SVGID_12_">
										<use xlink:href="#SVGID_11_"  style="overflow:visible;"/>
									</clipPath>
								</g>
								<g>
									<defs>
										<rect id="SVGID_13_" x="-6.2" y="-0.1" width="123.1" height="61.1"/>
									</defs>
									<clipPath id="SVGID_14_">
										<use xlink:href="#SVGID_13_"  style="overflow:visible;"/>
									</clipPath>
									<g class="st6">
										<g>
											<defs>
												<rect id="SVGID_15_" x="-6.2" y="-0.1" width="123.1" height="61.1"/>
											</defs>
											<clipPath id="SVGID_16_">
												<use xlink:href="#SVGID_15_"  style="overflow:visible;"/>
											</clipPath>
										</g>
										<g>
											<defs>
												<rect id="SVGID_17_" x="-6.2" y="-0.1" width="123.1" height="61.1"/>
											</defs>
											<clipPath id="SVGID_18_">
												<use xlink:href="#SVGID_17_"  style="overflow:visible;"/>
											</clipPath>
											<g class="st7">
												<g>
													<defs>
														<rect id="SVGID_19_" x="-6.2" y="-0.1" width="123.1" height="61.1"/>
													</defs>
													<clipPath id="SVGID_20_">
														<use xlink:href="#SVGID_19_"  style="overflow:visible;"/>
													</clipPath>
													<g class="st8">
														<g>
															<g>
																<defs>
																	<rect id="SVGID_21_" x="-6.2" y="-0.1" width="123.1" height="61.1"/>
																</defs>
																<clipPath id="SVGID_22_">
																	<use xlink:href="#SVGID_21_"  style="overflow:visible;"/>
																</clipPath>
																<path class="st9" d="M41.8,54l5.9,5.9c1.2-0.7,6-3.5,9.4-6.8c0.8-0.8,0.2-2.1-0.3-2.7c-0.8,0.8-2.1,2.1-2.1,2.1
																	L54,51.8l2.5-2.5c0.2-0.2-0.2-1.1-1-2l-2.2,2.2l-0.7-0.6l2.6-2.6c0.2-0.2-0.2-1-1.1-1.9l-3,3l-0.6-0.6l5.6-5.6
																	c0.7-0.7,0.6-1.1,0.1-1.6s-1-0.5-1.6,0.1l-8.5,8.5l-0.6-0.6l1.5-1.5c0.2-1.1,0.3-2.9-0.2-3.4
																	c-0.1-0.1-0.3-0.2-0.5-0.2c-1,0-1.2,0.7-1.4,2.8c-0.1,1.4-0.3,3.2-1.1,5.1C43.2,51.2,42.2,53.2,41.8,54 M47.5,61
																	l-6.8-6.8l0.2-0.3c0,0,1.5-2.8,2.1-4.1c0.8-1.7,0.9-3.4,1-4.8c0.1-1,0.2-1.8,0.4-2.4c0.3-0.8,0.9-1.2,1.8-1.2
																	c0.5,0,0.9,0.2,1.2,0.5c0.7,0.7,0.7,2,0.7,3L54,39c1-1,2-1,2.9-0.1s0.9,1.9-0.1,2.9l-2,2c0.7,0.8,1.6,2,1.3,2.8
																	c0.8,0.8,1.7,2.1,1.4,3c0.2,0.3,0.5,0.7,0.7,1.2c0.5,1.2,0.4,2.2-0.4,2.9c-3.9,3.9-9.7,7-9.9,7.2L47.5,61z"/>
															</g>
														</g>
													</g>
												</g>
											</g>
										</g>
									</g>
								</g>
							</g>
						</g>
					</g>
				</g>
			</g>
		</g>
	</g>
	<g class="st10">
		<path class="st11" d="M6.1,23.4c0-0.1,0.1-0.3,0.3-0.3H12c0.2,0,0.3,0.1,0.3,0.3v0.8c0,0.1-0.1,0.3-0.3,0.3H7.6v3.2h3.7
			c0.1,0,0.3,0.1,0.3,0.3v0.8c0,0.1-0.1,0.3-0.3,0.3H7.6v3.7c0,0.1-0.1,0.3-0.3,0.3H6.4c-0.2,0-0.3-0.1-0.3-0.3V23.4z"/>
		<path class="st11" d="M14.1,23.4c0-0.1,0.1-0.3,0.3-0.3h0.9c0.1,0,0.3,0.1,0.3,0.3v8.2h3.8c0.2,0,0.3,0.1,0.3,0.3v0.8
			c0,0.1-0.1,0.3-0.3,0.3h-5c-0.2,0-0.3-0.1-0.3-0.3V23.4z"/>
		<path class="st11" d="M25.3,23c2.8,0,5,2.3,5,5.1s-2.2,5-5,5c-2.8,0-5-2.2-5-5S22.5,23,25.3,23z M25.3,31.6c2,0,3.6-1.6,3.6-3.6
			c0-2-1.6-3.7-3.6-3.7c-2,0-3.6,1.7-3.6,3.7C21.6,30,23.3,31.6,25.3,31.6z"/>
		<path class="st11" d="M36.6,23c2.8,0,5,2.3,5,5.1s-2.2,5-5,5c-2.8,0-5-2.2-5-5S33.8,23,36.6,23z M36.6,31.6c2,0,3.6-1.6,3.6-3.6
			c0-2-1.6-3.7-3.6-3.7c-2,0-3.6,1.7-3.6,3.7C33,30,34.6,31.6,36.6,31.6z"/>
		<path class="st11" d="M43.7,23.4c0-0.1,0.1-0.3,0.3-0.3h3.8c1.7,0,3.1,1.3,3.1,3c0,1.3-0.9,2.4-2.1,2.8l1.9,3.6
			c0.1,0.2,0,0.4-0.2,0.4h-1.1c-0.1,0-0.2-0.1-0.2-0.1l-1.9-3.7h-2.1v3.6c0,0.1-0.1,0.3-0.3,0.3h-0.9c-0.2,0-0.3-0.1-0.3-0.3V23.4z
			 M47.6,27.9c0.9,0,1.7-0.8,1.7-1.7c0-0.9-0.8-1.7-1.7-1.7h-2.5v3.4H47.6z"/>
		<path class="st11" d="M53,23.4c0-0.1,0.1-0.3,0.3-0.3h3.2c1.7,0,3.1,1.4,3.1,3.1c0,1.7-1.4,3.2-3.1,3.2h-2v3.3
			c0,0.1-0.1,0.3-0.3,0.3h-0.9c-0.2,0-0.3-0.1-0.3-0.3V23.4z M56.3,28c1,0,1.8-0.8,1.8-1.8c0-1-0.8-1.7-1.8-1.7h-1.9V28H56.3z"/>
		<path class="st11" d="M61.3,23.4c0-0.1,0.1-0.3,0.3-0.3h0.9c0.1,0,0.3,0.1,0.3,0.3v8.2h3.8c0.2,0,0.3,0.1,0.3,0.3v0.8
			c0,0.1-0.1,0.3-0.3,0.3h-5c-0.2,0-0.3-0.1-0.3-0.3V23.4z"/>
		<path class="st11" d="M67.4,32.5l4.3-9.4c0-0.1,0.2-0.2,0.2-0.2h0.1c0.1,0,0.2,0.1,0.2,0.2l4.3,9.4c0.1,0.2,0,0.4-0.2,0.4h-0.9
			c-0.2,0-0.3-0.1-0.3-0.2l-0.9-1.9h-4.6c-0.3,0.6-0.6,1.3-0.9,1.9c0,0.1-0.2,0.2-0.3,0.2h-0.9C67.4,32.9,67.3,32.7,67.4,32.5z
			 M73.7,29.6L72,25.7h-0.1l-1.7,3.8H73.7z"/>
		<path class="st11" d="M78,23.2c0-0.1,0.1-0.3,0.3-0.3h0.3l6.1,7h0v-6.6c0-0.1,0.1-0.3,0.3-0.3h0.9c0.1,0,0.3,0.1,0.3,0.3v9.4
			c0,0.1-0.1,0.3-0.3,0.3h-0.4l-6.1-7.2h0v6.8c0,0.1-0.1,0.3-0.3,0.3h-0.9c-0.1,0-0.3-0.1-0.3-0.3V23.2z"/>
		<path class="st11" d="M88.2,31.5c0.1-0.2,0.2-0.4,0.4-0.6c0.1-0.2,0.3-0.2,0.5-0.1c0.1,0.1,1.2,1,2.2,1c1,0,1.6-0.6,1.6-1.3
			c0-0.8-0.7-1.4-2.1-1.9c-1.4-0.6-2.5-1.3-2.5-3c0-1.1,0.8-2.6,3.1-2.6c1.4,0,2.5,0.7,2.6,0.8c0.1,0.1,0.2,0.3,0.1,0.5
			c-0.1,0.2-0.2,0.4-0.4,0.5c-0.1,0.2-0.3,0.3-0.5,0.1c-0.1-0.1-1.1-0.7-1.9-0.7c-1.2,0-1.6,0.7-1.6,1.3c0,0.8,0.6,1.3,1.8,1.8
			c1.6,0.7,3,1.4,3,3.1c0,1.5-1.3,2.6-3.1,2.6c-1.7,0-2.8-0.9-3-1.1C88.1,31.8,88,31.7,88.2,31.5z"/>
	</g>
	<g class="st10">
		<path class="st11" d="M6.1,7.4c0-0.1,0.1-0.3,0.3-0.3H12c0.2,0,0.3,0.1,0.3,0.3v0.8c0,0.1-0.1,0.3-0.3,0.3H7.6v2.9h3.7
			c0.1,0,0.3,0.1,0.3,0.3v0.8c0,0.2-0.1,0.3-0.3,0.3H7.6v3H12c0.2,0,0.3,0.1,0.3,0.3v0.8c0,0.1-0.1,0.3-0.3,0.3H6.4
			c-0.2,0-0.3-0.1-0.3-0.3V7.4z"/>
		<path class="st11" d="M16.4,11.9l-2.8-4.4c-0.1-0.2,0-0.4,0.2-0.4h1.2c0.1,0,0.2,0.1,0.2,0.1l2,3.3h0l2-3.3c0-0.1,0.1-0.1,0.2-0.1
			h1.2c0.2,0,0.4,0.2,0.2,0.4l-2.8,4.4l2.9,4.6c0.1,0.2,0,0.4-0.2,0.4h-1.1c-0.1,0-0.2-0.1-0.2-0.1l-2.2-3.6h0l-2.2,3.6
			c0,0.1-0.1,0.1-0.2,0.1h-1.1c-0.3,0-0.4-0.2-0.3-0.4L16.4,11.9z"/>
		<path class="st11" d="M22.9,7.4c0-0.1,0.1-0.3,0.3-0.3h3.2c1.7,0,3.1,1.4,3.1,3.1c0,1.7-1.4,3.2-3.1,3.2h-2v3.3
			c0,0.1-0.1,0.3-0.3,0.3h-0.9c-0.2,0-0.3-0.1-0.3-0.3V7.4z M26.3,12c1,0,1.8-0.8,1.8-1.8c0-1-0.8-1.7-1.8-1.7h-1.9V12H26.3z"/>
		<path class="st11" d="M31.2,7.4c0-0.1,0.1-0.3,0.3-0.3h0.9c0.1,0,0.3,0.1,0.3,0.3v8.2h3.8c0.2,0,0.3,0.1,0.3,0.3v0.8
			c0,0.1-0.1,0.3-0.3,0.3h-5c-0.2,0-0.3-0.1-0.3-0.3V7.4z"/>
		<path class="st11" d="M42.4,7c2.8,0,5,2.3,5,5.1s-2.2,5-5,5c-2.8,0-5-2.2-5-5S39.6,7,42.4,7z M42.4,15.6c2,0,3.6-1.6,3.6-3.6
			c0-2-1.6-3.7-3.6-3.7c-2,0-3.6,1.7-3.6,3.7C38.8,14,40.4,15.6,42.4,15.6z"/>
		<path class="st11" d="M49.5,7.4c0-0.1,0.1-0.3,0.3-0.3h3.8c1.7,0,3.1,1.3,3.1,3c0,1.3-0.9,2.4-2.1,2.8l1.9,3.6
			c0.1,0.2,0,0.4-0.2,0.4h-1.1c-0.1,0-0.2-0.1-0.2-0.1L53,13.1h-2.1v3.6c0,0.1-0.1,0.3-0.3,0.3h-0.9c-0.2,0-0.3-0.1-0.3-0.3V7.4z
			 M53.4,11.9c0.9,0,1.7-0.8,1.7-1.7c0-0.9-0.8-1.7-1.7-1.7h-2.5v3.4H53.4z"/>
		<path class="st11" d="M58.8,7.4c0-0.1,0.1-0.3,0.3-0.3h5.6c0.2,0,0.3,0.1,0.3,0.3v0.8c0,0.1-0.1,0.3-0.3,0.3h-4.4v2.9h3.7
			c0.1,0,0.3,0.1,0.3,0.3v0.8c0,0.2-0.1,0.3-0.3,0.3h-3.7v3h4.4c0.2,0,0.3,0.1,0.3,0.3v0.8c0,0.1-0.1,0.3-0.3,0.3H59
			c-0.2,0-0.3-0.1-0.3-0.3V7.4z"/>
		<path class="st11" d="M71.4,8.4h-2.3c-0.2,0-0.3-0.1-0.3-0.3V7.4c0-0.1,0.1-0.3,0.3-0.3h6c0.2,0,0.3,0.1,0.3,0.3v0.8
			c0,0.1-0.1,0.3-0.3,0.3h-2.3v8.2c0,0.1-0.1,0.3-0.3,0.3h-0.9c-0.1,0-0.3-0.1-0.3-0.3V8.4z"/>
		<path class="st11" d="M76.9,7.4c0-0.1,0.1-0.3,0.3-0.3h0.9c0.2,0,0.3,0.1,0.3,0.3v3.9h5.1V7.4c0-0.1,0.1-0.3,0.3-0.3h0.9
			c0.1,0,0.3,0.1,0.3,0.3v9.3c0,0.1-0.1,0.3-0.3,0.3h-0.9c-0.2,0-0.3-0.1-0.3-0.3v-4h-5.1v4c0,0.1-0.1,0.3-0.3,0.3h-0.9
			c-0.1,0-0.3-0.1-0.3-0.3V7.4z"/>
		<path class="st11" d="M87.7,7.4c0-0.1,0.1-0.3,0.3-0.3h5.6c0.2,0,0.3,0.1,0.3,0.3v0.8c0,0.1-0.1,0.3-0.3,0.3h-4.4v2.9h3.7
			c0.1,0,0.3,0.1,0.3,0.3v0.8c0,0.2-0.1,0.3-0.3,0.3h-3.7v3h4.4c0.2,0,0.3,0.1,0.3,0.3v0.8c0,0.1-0.1,0.3-0.3,0.3H88
			c-0.2,0-0.3-0.1-0.3-0.3V7.4z"/>
	</g>
</g>
</svg>
