<?xml version="1.0" encoding="utf-8"?>
<!-- Generator: Adobe Illustrator 19.1.0, SVG Export Plug-In . SVG Version: 6.00 Build 0)  -->
<svg version="1.1" id="Layer_1" xmlns="http://www.w3.org/2000/svg" xmlns:xlink="http://www.w3.org/1999/xlink" x="0px" y="0px"
	 viewBox="0 0 55 55" enable-background="new 0 0 55 55" xml:space="preserve">
<g>
	<defs>
		<rect id="SVGID_1_" x="1.2" y="1.2" width="52.6" height="52.6"/>
	</defs>
	<clipPath id="SVGID_2_">
		<use xlink:href="#SVGID_1_"  overflow="visible"/>
	</clipPath>
	<g clip-path="url(#SVGID_2_)">
		<defs>
			<rect id="SVGID_3_" x="1.2" y="1.2" width="52.6" height="52.6"/>
		</defs>
		<clipPath id="SVGID_4_">
			<use xlink:href="#SVGID_3_"  overflow="visible"/>
		</clipPath>
		<g opacity="0.82" clip-path="url(#SVGID_4_)">
			<g>
				<defs>
					<rect id="SVGID_5_" x="-7.8" y="-5.8" width="70.6" height="60.6"/>
				</defs>
				<clipPath id="SVGID_6_">
					<use xlink:href="#SVGID_5_"  overflow="visible"/>
				</clipPath>
				<polygon clip-path="url(#SVGID_6_)" fill="#555555" points="1.2,1.2 1.2,53.8 39.2,53.8 39.2,49.9 24.1,49.9 24.1,40.1 
					20.1,40.1 20.1,49.9 5.1,49.9 5.1,29.4 20.1,29.4 20.1,34.7 24.1,34.7 24.1,20.2 20.1,20.2 20.1,25.5 5.1,25.5 5.1,5.1 
					20.1,5.1 20.1,15.1 24.1,15.1 24.1,5.1 49.9,5.1 49.9,26.4 36.1,26.4 36.1,21 32.1,21 32.1,30.3 49.9,30.3 49.9,49.9 46.4,49.9 
					46.4,53.8 53.8,53.8 53.8,1.2 				"/>
			</g>
		</g>
	</g>
</g>
</svg>
