<?xml version="1.0" encoding="utf-8"?>
<!-- Generator: Adobe Illustrator 19.1.0, SVG Export Plug-In . SVG Version: 6.00 Build 0)  -->
<svg version="1.1" id="Layer_1" xmlns="http://www.w3.org/2000/svg" xmlns:xlink="http://www.w3.org/1999/xlink" x="0px" y="0px"
	 viewBox="0 0 35.4 42.5" style="enable-background:new 0 0 35.4 42.5;" xml:space="preserve">
<style type="text/css">
	.st0{fill:#005A9C;}
</style>
<path class="st0" d="M7,1.4h1.8V0.7C8.8,0.3,9.1,0,9.5,0h13.2c0.4,0,0.7,0.3,0.7,0.7v0.7h1.8c0.3,0,0.6,0.3,0.7,0.6l2.1,8.5
	c1.9,2.1,3.2,4.7,3.8,7.6h2.3c0.7,0,1.2,0.6,1.2,1.2v3.9c0,0.7-0.6,1.2-1.2,1.2h-2.3c-0.6,2.9-1.9,5.5-3.8,7.6L26,40.6
	c-0.1,0.3-0.4,0.5-0.7,0.5h-1.8v0.7c0,0.4-0.3,0.7-0.7,0.7H9.5c-0.4,0-0.7-0.3-0.7-0.7v-0.7H7c-0.4,0-0.6-0.3-0.7-0.6l-1.8-8.1
	C1.7,29.5,0,25.6,0,21.3c0-4.3,1.7-8.2,4.5-11.1L6.3,2C6.3,1.6,6.6,1.4,7,1.4L7,1.4z M22,38.3v-2.1c-1.8,0.7-3.8,1.1-5.9,1.1
	c-2.1,0-4.1-0.4-5.9-1.1v2.1H22L22,38.3z M22,6.3V4.2H10.2v2.1C12,5.6,14,5.2,16.1,5.2C18.2,5.2,20.2,5.6,22,6.3L22,6.3z M10.2,2.8
	H22V1.4H10.2V2.8L10.2,2.8z M8.8,6.9V2.8H7.5L6.3,8.5C7,7.9,7.9,7.4,8.8,6.9L8.8,6.9z M26.2,8.7l-1.5-5.9h-1.3v4.1
	C24.4,7.4,25.3,8,26.2,8.7L26.2,8.7z M8.8,35.6c-0.9-0.5-1.7-1-2.5-1.6l1.3,5.7h1.2V35.6L8.8,35.6z M26.2,33.8
	c-0.8,0.7-1.8,1.3-2.7,1.8v4.1h1.3L26.2,33.8L26.2,33.8z M22,39.7H10.2v1.4H22V39.7L22,39.7z M34,22h-1.8c0,0.4,0,0.7-0.1,1.1H34V22
	L34,22z M32.2,20.6H34v-1.1h-1.9C32.1,19.8,32.2,20.2,32.2,20.6L32.2,20.6z M8.8,32.5l1.3-2.2l1.2,0.7L10,33.2L8.8,32.5L8.8,32.5z
	 M20.9,11.6l1.3-2.2l1.2,0.7l-1.3,2.2L20.9,11.6L20.9,11.6z M4.2,27.3L6.4,26l0.7,1.2l-2.2,1.3L4.2,27.3L4.2,27.3z M25.1,15.3
	l2.2-1.3l0.7,1.2l-2.2,1.3L25.1,15.3L25.1,15.3z M2.8,20.6h2.5V22H2.8V20.6L2.8,20.6z M26.9,20.6h2.5V22h-2.5V20.6L26.9,20.6z
	 M4.9,14l2.2,1.3l-0.7,1.2l-2.2-1.3L4.9,14L4.9,14z M25.8,26l2.2,1.3l-0.7,1.2l-2.2-1.3L25.8,26L25.8,26z M16.8,7.9v2.5h-1.4V7.9
	H16.8L16.8,7.9z M16.8,32v2.5h-1.4V32H16.8L16.8,32z M10,9.4l1.3,2.2l-1.2,0.7l-1.3-2.2L10,9.4L10,9.4z M22.1,30.2l1.3,2.2l-1.2,0.7
	l-1.3-2.2L22.1,30.2L22.1,30.2z M16.1,22c-0.4,0-0.7-0.3-0.7-0.7l0-8.9c0-0.4,0.3-0.7,0.7-0.7c0.4,0,0.7,0.3,0.7,0.7l0,8.2l6.9,0
	c0.4,0,0.7,0.3,0.7,0.7c0,0.4-0.3,0.7-0.7,0.7L16.1,22L16.1,22z M26.5,10.9c-2.7-2.7-6.3-4.3-10.4-4.3S8.4,8.2,5.7,10.9
	c-2.7,2.7-4.3,6.3-4.3,10.4c0,4.1,1.6,7.7,4.3,10.4c2.7,2.7,6.3,4.3,10.4,4.3s7.7-1.6,10.4-4.3c2.7-2.7,4.3-6.3,4.3-10.4
	C30.8,17.2,29.1,13.5,26.5,10.9L26.5,10.9z"/>
</svg>
