<?xml version="1.0" encoding="utf-8"?>
<!-- Generator: Adobe Illustrator 19.2.1, SVG Export Plug-In . SVG Version: 6.00 Build 0)  -->
<svg version="1.1" id="Layer_1" xmlns="http://www.w3.org/2000/svg" xmlns:xlink="http://www.w3.org/1999/xlink" x="0px" y="0px"
	 viewBox="0 0 91.8 125" style="enable-background:new 0 0 91.8 125;" xml:space="preserve">
<style type="text/css">
	.st0{fill:#333E48;}
	.st1{fill:#D51067;}
</style>
<g>
	<path class="st0" d="M15.4,31.3c0,2-0.7,3.6-2.1,5c-1.4,1.4-3.1,2.1-5.1,2.1c-2,0-3.6-0.7-5-2.1c-1.4-1.4-2.1-3.1-2.1-5V28h3.8v3.4
		c0,0.9,0.3,1.7,1,2.3c0.7,0.7,1.4,1,2.3,1c0.9,0,1.7-0.3,2.4-1c0.7-0.7,1-1.4,1-2.4v-2.6c0-1.8-0.9-3.5-2.7-5.3
		c-1.7-1.6-3.3-3.1-5-4.7c-1.8-2-2.7-4.3-2.7-6.8V9.5c0-2,0.7-3.6,2.1-5c1.4-1.4,3.1-2.1,5-2.1c2,0,3.7,0.7,5.1,2.1
		c1.4,1.4,2.1,3.1,2.1,5v3.4h-3.8V9.5c0-0.9-0.3-1.7-1-2.3c-0.7-0.7-1.4-1-2.4-1c-0.9,0-1.7,0.3-2.3,1c-0.7,0.7-1,1.4-1,2.4V12
		c0,1.8,0.9,3.6,2.7,5.3c1.7,1.5,3.3,3.1,5,4.6c1.8,2.1,2.7,4.3,2.7,6.8V31.3z"/>
	<path class="st0" d="M34,31.3c0,2-0.7,3.6-2.1,5c-1.4,1.4-3.1,2.1-5.1,2.1c-2,0-3.6-0.7-5-2.1c-1.4-1.4-2.1-3.1-2.1-5V9.5
		c0-2,0.7-3.6,2.1-5c1.4-1.4,3.1-2.1,5-2.1c2,0,3.7,0.7,5.1,2.1c1.4,1.4,2.1,3.1,2.1,5V31.3z M30.2,31.3V9.5c0-0.9-0.3-1.7-1-2.4
		c-0.7-0.7-1.4-1-2.4-1c-0.9,0-1.7,0.3-2.3,1c-0.7,0.7-1,1.4-1,2.4v21.8c0,0.9,0.3,1.7,1,2.4c0.7,0.7,1.4,1,2.3,1
		c0.9,0,1.7-0.3,2.4-1C29.9,33,30.2,32.2,30.2,31.3z"/>
	<path class="st0" d="M52.8,31.3c0,2-0.7,3.6-2.1,5c-1.4,1.4-3.1,2.1-5.1,2.1c-2,0-3.6-0.7-5-2.1c-1.4-1.4-2.1-3.1-2.1-5V2.8h3.8
		v28.5c0,0.9,0.3,1.7,1,2.4c0.7,0.7,1.4,1,2.3,1c0.9,0,1.7-0.3,2.4-1c0.7-0.7,1-1.4,1-2.4V2.8h3.8V31.3z"/>
	<path class="st0" d="M71.3,6.6H65V38h-3.8V6.6H55V2.8h16.3V6.6z"/>
	<path class="st0" d="M88.8,38H85V21.2h-6.6V38h-3.8V2.8h3.8v14.7H85V2.8h3.8V38z"/>
	<path class="st0" d="M15.4,73.7c0,2-0.7,3.6-2.1,5c-1.4,1.4-3.1,2.1-5.1,2.1c-2,0-3.6-0.7-5-2.1c-1.4-1.4-2.1-3.1-2.1-5v-3.4h3.8
		v3.4c0,0.9,0.3,1.7,1,2.3c0.7,0.7,1.4,1,2.3,1c0.9,0,1.7-0.3,2.4-1c0.7-0.7,1-1.4,1-2.4v-2.6c0-1.8-0.9-3.5-2.7-5.3
		c-1.7-1.6-3.3-3.1-5-4.7c-1.8-2-2.7-4.3-2.7-6.8v-2.5c0-2,0.7-3.6,2.1-5c1.4-1.4,3.1-2.1,5-2.1c2,0,3.7,0.7,5.1,2.1
		c1.4,1.4,2.1,3.1,2.1,5v3.4h-3.8v-3.4c0-0.9-0.3-1.7-1-2.3c-0.7-0.7-1.4-1-2.4-1c-0.9,0-1.7,0.3-2.3,1c-0.7,0.7-1,1.4-1,2.4v2.5
		c0,1.8,0.9,3.6,2.7,5.3c1.7,1.5,3.3,3.1,5,4.6c1.8,2.1,2.7,4.3,2.7,6.8V73.7z"/>
	<path class="st0" d="M34.1,49h-6.3v31.4H24V49h-6.3v-3.8h16.3V49z"/>
	<path class="st0" d="M89.3,80.4h-3.9l-3.7-14.7h-3.1v14.7h-3.8V45.2h7.1c2,0,3.7,0.7,5.1,2.1c1.4,1.4,2.1,3.1,2.1,5v6.3
		c0,2.8-1.2,4.9-3.7,6.2L89.3,80.4z M85.3,58.6v-6.3c0-0.9-0.3-1.7-1-2.4c-0.7-0.6-1.4-1-2.4-1h-3.3v13h3.3c0.9,0,1.7-0.3,2.4-1
		C85,60.3,85.3,59.5,85.3,58.6z"/>
	<path class="st0" d="M13.1,123.3h-11V88h2.2v33h8.8V123.3z"/>
	<path class="st0" d="M31.1,117.1c0,1.8-0.6,3.4-1.9,4.7c-1.3,1.3-2.8,1.9-4.7,1.9c-1.8,0-3.4-0.6-4.7-1.9c-1.3-1.3-1.9-2.8-1.9-4.7
		V94.2c0-1.8,0.6-3.4,1.9-4.7c1.3-1.3,2.8-1.9,4.7-1.9c1.8,0,3.4,0.6,4.7,1.9c1.3,1.3,1.9,2.8,1.9,4.7V117.1z M28.9,117.1V94.2
		c0-1.2-0.4-2.2-1.3-3.1c-0.9-0.9-1.9-1.3-3.1-1.3c-1.2,0-2.2,0.4-3.1,1.3c-0.9,0.9-1.3,1.9-1.3,3.1v22.9c0,1.2,0.4,2.2,1.3,3.1
		c0.9,0.9,1.9,1.3,3.1,1.3c1.2,0,2.2-0.4,3.1-1.3C28.5,119.3,28.9,118.3,28.9,117.1z"/>
	<path class="st0" d="M71.1,90.2h-6.6v33h-2.2v-33h-6.6V88h15.4V90.2z"/>
	<path class="st0" d="M88.5,117.1c0,1.8-0.6,3.4-1.9,4.7c-1.3,1.3-2.8,1.9-4.7,1.9c-1.8,0-3.4-0.6-4.7-1.9c-1.3-1.3-1.9-2.8-1.9-4.7
		v-2.6h2.2v2.6c0,1.2,0.4,2.2,1.3,3.1c0.9,0.9,1.9,1.3,3.1,1.3c1.2,0,2.2-0.4,3.1-1.3c0.9-0.9,1.3-1.9,1.3-3.1v-2.6
		c0-2.1-1-4-2.9-5.9c-1.8-1.6-3.5-3.3-5.3-4.9c-1.9-2.1-2.9-4.4-2.9-6.8v-2.6c0-1.8,0.6-3.4,1.9-4.7c1.3-1.3,2.8-1.9,4.7-1.9
		c1.8,0,3.4,0.6,4.7,1.9c1.3,1.3,1.9,2.8,1.9,4.7v2.6h-2.2v-2.6c0-1.2-0.4-2.2-1.3-3.1c-0.9-0.9-1.9-1.3-3.1-1.3
		c-1.2,0-2.2,0.4-3.1,1.3c-0.9,0.9-1.3,1.9-1.3,3.1v2.6c0,2.1,1,4,2.9,5.9c1.8,1.6,3.5,3.3,5.3,4.9c1.9,2.1,2.9,4.4,2.9,6.8V117.1z"
		/>
	<polygon class="st1" points="52.4,43.2 58.4,55.3 71.7,57.3 62.1,66.7 64.3,80 52.4,73.7 40.4,80 42.7,66.7 33,57.3 46.4,55.3 	"/>
	<path class="st0" d="M52.5,105.6h-11v17.6h-2.2V88h13.2v2.2h-11v13.2h11V105.6z"/>
</g>
</svg>
