<?xml version="1.0" encoding="utf-8"?>
<!-- Generator: Adobe Illustrator 19.1.0, SVG Export Plug-In . SVG Version: 6.00 Build 0)  -->
<svg version="1.1" id="Layer_1" xmlns="http://www.w3.org/2000/svg" xmlns:xlink="http://www.w3.org/1999/xlink" x="0px" y="0px"
	 viewBox="0 0 40 38.5" style="enable-background:new 0 0 40 38.5;" xml:space="preserve">
<style type="text/css">
	.st0{fill:#005A9C;}
</style>
<path class="st0" d="M32.2,30.3L24,24.5c-0.4-0.3-0.9-0.2-1.2,0.2c0,0-2.1,2.6-2.8,3.3c-0.1,0.1-0.2,0.1-0.3,0.1
	c-1.4,0-4.4-2.1-5.8-3.6c-1.5-1.5-3.6-4.5-3.6-5.8c0-0.1,0-0.2,0.1-0.3c0.6-0.6,2.6-2.2,3.3-2.8c0.4-0.3,0.4-0.8,0.2-1.2L7.9,6.1
	C7.7,5.7,7.1,5.6,6.7,5.9C6.6,6,2.5,8.4,1.9,13.4C1.3,18,3.8,23.2,9.4,28.9c5.1,5.1,9.8,7.6,14.1,7.6h0c5.9,0,8.7-4.8,8.9-5
	C32.7,31.1,32.5,30.6,32.2,30.3z M23.6,34.7c-3.8,0-8.2-2.4-12.9-7.1c-5.2-5.2-7.6-9.9-7-14C4,10.6,5.9,8.7,7,7.9l4.8,6.8
	C11,15.4,9.6,16.5,9,17c-0.3,0.3-0.6,0.8-0.6,1.6c0,2.5,3.3,6.2,4.1,7.1c0.9,0.9,4.6,4.1,7.1,4.1c0.8,0,1.3-0.3,1.6-0.6
	c0.5-0.5,1.7-1.9,2.4-2.8l6.8,4.8C29.5,32.5,27.2,34.7,23.6,34.7z M27.9,22.5c0,0.5,0.4,0.9,0.9,0.9c0.5,0,0.9-0.4,0.9-0.9
	c0-7.7-6.2-13.9-13.9-13.9c-0.5,0-0.9,0.4-0.9,0.9c0,0.5,0.4,0.9,0.9,0.9C22.5,10.4,27.9,15.8,27.9,22.5z M16,2
	c-0.5,0-0.9,0.4-0.9,0.9c0,0.5,0.4,0.9,0.9,0.9c10.2,0,18.5,8.3,18.5,18.5c0,0.5,0.4,0.9,0.9,0.9c0.5,0,0.9-0.4,0.9-0.9
	C36.3,11.1,27.2,2,16,2z"/>
</svg>
