<?xml version="1.0" encoding="utf-8"?>
<!-- Generator: Adobe Illustrator 21.0.2, SVG Export Plug-In . SVG Version: 6.00 Build 0)  -->
<svg version="1.1" id="Layer_1" xmlns="http://www.w3.org/2000/svg" xmlns:xlink="http://www.w3.org/1999/xlink" x="0px" y="0px"
	 viewBox="0 0 63 68" style="enable-background:new 0 0 63 68;" xml:space="preserve">
<style type="text/css">
	.st0{fill:#8A8A8D;}
</style>
<g>
	<g>
		<path class="st0" d="M50.4,64H12.7c-0.6,0-1.1-0.5-1.1-1.1V5.1c0-0.6,0.5-1.1,1.1-1.1h37.8c0.6,0,1.1,0.5,1.1,1.1v57.8
			C51.6,63.5,51.1,64,50.4,64z M13.8,61.8h35.6V6.2H13.8V61.8z"/>
	</g>
	<g>
		<path class="st0" d="M57.1,64h-6.7c-0.6,0-1.1-0.5-1.1-1.1V18.4c0-0.6,0.5-1.1,1.1-1.1h6.7c0.6,0,1.1,0.5,1.1,1.1v44.4
			C58.2,63.5,57.7,64,57.1,64z M51.6,61.8H56V19.6h-4.4V61.8z"/>
	</g>
	<g>
		<path class="st0" d="M12.7,64H6c-0.6,0-1.1-0.5-1.1-1.1V18.4c0-0.6,0.5-1.1,1.1-1.1h6.7c0.6,0,1.1,0.5,1.1,1.1v44.4
			C13.8,63.5,13.3,64,12.7,64z M7.1,61.8h4.4V19.6H7.1V61.8z"/>
	</g>
	<g>
		<path class="st0" d="M34.9,64h-6.7c-0.6,0-1.1-0.5-1.1-1.1V50.7c0-0.6,0.5-1.1,1.1-1.1h6.7c0.6,0,1.1,0.5,1.1,1.1v12.2
			C36,63.5,35.5,64,34.9,64z M29.3,61.8h4.4v-10h-4.4V61.8z"/>
	</g>
	<g>
		<g>
			<path class="st0" d="M44.9,16.2h-4.4c-0.6,0-1.1-0.5-1.1-1.1V9.6c0-0.6,0.5-1.1,1.1-1.1h4.4c0.6,0,1.1,0.5,1.1,1.1v5.6
				C46,15.7,45.5,16.2,44.9,16.2z M41.6,14h2.2v-3.3h-2.2V14z"/>
		</g>
		<g>
			<path class="st0" d="M44.9,26.2h-4.4c-0.6,0-1.1-0.5-1.1-1.1v-5.6c0-0.6,0.5-1.1,1.1-1.1h4.4c0.6,0,1.1,0.5,1.1,1.1v5.6
				C46,25.7,45.5,26.2,44.9,26.2z M41.6,24h2.2v-3.3h-2.2V24z"/>
		</g>
		<g>
			<path class="st0" d="M44.9,36.2h-4.4c-0.6,0-1.1-0.5-1.1-1.1v-5.6c0-0.6,0.5-1.1,1.1-1.1h4.4c0.6,0,1.1,0.5,1.1,1.1v5.6
				C46,35.7,45.5,36.2,44.9,36.2z M41.6,34h2.2v-3.3h-2.2V34z"/>
		</g>
		<g>
			<path class="st0" d="M44.9,46.2h-4.4c-0.6,0-1.1-0.5-1.1-1.1v-5.6c0-0.6,0.5-1.1,1.1-1.1h4.4c0.6,0,1.1,0.5,1.1,1.1v5.6
				C46,45.7,45.5,46.2,44.9,46.2z M41.6,44h2.2v-3.3h-2.2V44z"/>
		</g>
		<g>
			<path class="st0" d="M44.9,57.3h-4.4c-0.6,0-1.1-0.5-1.1-1.1v-5.6c0-0.6,0.5-1.1,1.1-1.1h4.4c0.6,0,1.1,0.5,1.1,1.1v5.6
				C46,56.8,45.5,57.3,44.9,57.3z M41.6,55.1h2.2v-3.3h-2.2V55.1z"/>
		</g>
		<g>
			<path class="st0" d="M33.8,16.2h-4.4c-0.6,0-1.1-0.5-1.1-1.1V9.6c0-0.6,0.5-1.1,1.1-1.1h4.4c0.6,0,1.1,0.5,1.1,1.1v5.6
				C34.9,15.7,34.4,16.2,33.8,16.2z M30.4,14h2.2v-3.3h-2.2V14z"/>
		</g>
		<g>
			<path class="st0" d="M33.8,26.2h-4.4c-0.6,0-1.1-0.5-1.1-1.1v-5.6c0-0.6,0.5-1.1,1.1-1.1h4.4c0.6,0,1.1,0.5,1.1,1.1v5.6
				C34.9,25.7,34.4,26.2,33.8,26.2z M30.4,24h2.2v-3.3h-2.2V24z"/>
		</g>
		<g>
			<path class="st0" d="M33.8,36.2h-4.4c-0.6,0-1.1-0.5-1.1-1.1v-5.6c0-0.6,0.5-1.1,1.1-1.1h4.4c0.6,0,1.1,0.5,1.1,1.1v5.6
				C34.9,35.7,34.4,36.2,33.8,36.2z M30.4,34h2.2v-3.3h-2.2V34z"/>
		</g>
		<g>
			<path class="st0" d="M33.8,46.2h-4.4c-0.6,0-1.1-0.5-1.1-1.1v-5.6c0-0.6,0.5-1.1,1.1-1.1h4.4c0.6,0,1.1,0.5,1.1,1.1v5.6
				C34.9,45.7,34.4,46.2,33.8,46.2z M30.4,44h2.2v-3.3h-2.2V44z"/>
		</g>
		<g>
			<path class="st0" d="M22.7,16.2h-4.4c-0.6,0-1.1-0.5-1.1-1.1V9.6c0-0.6,0.5-1.1,1.1-1.1h4.4c0.6,0,1.1,0.5,1.1,1.1v5.6
				C23.8,15.7,23.3,16.2,22.7,16.2z M19.3,14h2.2v-3.3h-2.2V14z"/>
		</g>
		<g>
			<path class="st0" d="M22.7,26.2h-4.4c-0.6,0-1.1-0.5-1.1-1.1v-5.6c0-0.6,0.5-1.1,1.1-1.1h4.4c0.6,0,1.1,0.5,1.1,1.1v5.6
				C23.8,25.7,23.3,26.2,22.7,26.2z M19.3,24h2.2v-3.3h-2.2V24z"/>
		</g>
		<g>
			<path class="st0" d="M22.7,36.2h-4.4c-0.6,0-1.1-0.5-1.1-1.1v-5.6c0-0.6,0.5-1.1,1.1-1.1h4.4c0.6,0,1.1,0.5,1.1,1.1v5.6
				C23.8,35.7,23.3,36.2,22.7,36.2z M19.3,34h2.2v-3.3h-2.2V34z"/>
		</g>
		<g>
			<path class="st0" d="M22.7,46.2h-4.4c-0.6,0-1.1-0.5-1.1-1.1v-5.6c0-0.6,0.5-1.1,1.1-1.1h4.4c0.6,0,1.1,0.5,1.1,1.1v5.6
				C23.8,45.7,23.3,46.2,22.7,46.2z M19.3,44h2.2v-3.3h-2.2V44z"/>
		</g>
		<g>
			<path class="st0" d="M22.7,57.3h-4.4c-0.6,0-1.1-0.5-1.1-1.1v-5.6c0-0.6,0.5-1.1,1.1-1.1h4.4c0.6,0,1.1,0.5,1.1,1.1v5.6
				C23.8,56.8,23.3,57.3,22.7,57.3z M19.3,55.1h2.2v-3.3h-2.2V55.1z"/>
		</g>
	</g>
	<g>
		<g>
			<path class="st0" d="M7.1,57.3H6c-0.6,0-1.1-0.5-1.1-1.1c0-0.6,0.5-1.1,1.1-1.1h1.1c0.6,0,1.1,0.5,1.1,1.1
				C8.2,56.8,7.7,57.3,7.1,57.3z"/>
		</g>
		<g>
			<path class="st0" d="M7.1,51.8H6c-0.6,0-1.1-0.5-1.1-1.1c0-0.6,0.5-1.1,1.1-1.1h1.1c0.6,0,1.1,0.5,1.1,1.1
				C8.2,51.3,7.7,51.8,7.1,51.8z"/>
		</g>
		<g>
			<path class="st0" d="M7.1,46.2H6c-0.6,0-1.1-0.5-1.1-1.1C4.9,44.5,5.4,44,6,44h1.1c0.6,0,1.1,0.5,1.1,1.1
				C8.2,45.7,7.7,46.2,7.1,46.2z"/>
		</g>
		<g>
			<path class="st0" d="M7.1,40.7H6c-0.6,0-1.1-0.5-1.1-1.1c0-0.6,0.5-1.1,1.1-1.1h1.1c0.6,0,1.1,0.5,1.1,1.1
				C8.2,40.2,7.7,40.7,7.1,40.7z"/>
		</g>
		<g>
			<path class="st0" d="M7.1,35.1H6c-0.6,0-1.1-0.5-1.1-1.1s0.5-1.1,1.1-1.1h1.1c0.6,0,1.1,0.5,1.1,1.1S7.7,35.1,7.1,35.1z"/>
		</g>
		<g>
			<path class="st0" d="M7.1,29.6H6c-0.6,0-1.1-0.5-1.1-1.1s0.5-1.1,1.1-1.1h1.1c0.6,0,1.1,0.5,1.1,1.1S7.7,29.6,7.1,29.6z"/>
		</g>
		<g>
			<path class="st0" d="M7.1,24H6c-0.6,0-1.1-0.5-1.1-1.1s0.5-1.1,1.1-1.1h1.1c0.6,0,1.1,0.5,1.1,1.1S7.7,24,7.1,24z"/>
		</g>
		<g>
			<path class="st0" d="M57.1,57.3H56c-0.6,0-1.1-0.5-1.1-1.1c0-0.6,0.5-1.1,1.1-1.1h1.1c0.6,0,1.1,0.5,1.1,1.1
				C58.2,56.8,57.7,57.3,57.1,57.3z"/>
		</g>
		<g>
			<path class="st0" d="M57.1,51.8H56c-0.6,0-1.1-0.5-1.1-1.1c0-0.6,0.5-1.1,1.1-1.1h1.1c0.6,0,1.1,0.5,1.1,1.1
				C58.2,51.3,57.7,51.8,57.1,51.8z"/>
		</g>
		<g>
			<path class="st0" d="M57.1,46.2H56c-0.6,0-1.1-0.5-1.1-1.1c0-0.6,0.5-1.1,1.1-1.1h1.1c0.6,0,1.1,0.5,1.1,1.1
				C58.2,45.7,57.7,46.2,57.1,46.2z"/>
		</g>
		<g>
			<path class="st0" d="M57.1,40.7H56c-0.6,0-1.1-0.5-1.1-1.1c0-0.6,0.5-1.1,1.1-1.1h1.1c0.6,0,1.1,0.5,1.1,1.1
				C58.2,40.2,57.7,40.7,57.1,40.7z"/>
		</g>
		<g>
			<path class="st0" d="M57.1,35.1H56c-0.6,0-1.1-0.5-1.1-1.1s0.5-1.1,1.1-1.1h1.1c0.6,0,1.1,0.5,1.1,1.1S57.7,35.1,57.1,35.1z"/>
		</g>
		<g>
			<path class="st0" d="M57.1,29.6H56c-0.6,0-1.1-0.5-1.1-1.1s0.5-1.1,1.1-1.1h1.1c0.6,0,1.1,0.5,1.1,1.1S57.7,29.6,57.1,29.6z"/>
		</g>
		<g>
			<path class="st0" d="M57.1,24H56c-0.6,0-1.1-0.5-1.1-1.1s0.5-1.1,1.1-1.1h1.1c0.6,0,1.1,0.5,1.1,1.1S57.7,24,57.1,24z"/>
		</g>
	</g>
</g>
</svg>
