<?xml version="1.0" encoding="utf-8"?>
<!-- Generator: Adobe Illustrator 19.1.0, SVG Export Plug-In . SVG Version: 6.00 Build 0)  -->
<svg version="1.1" id="Layer_1" xmlns="http://www.w3.org/2000/svg" xmlns:xlink="http://www.w3.org/1999/xlink" x="0px" y="0px"
	 viewBox="-304 306 16 16" enable-background="new -304 306 16 16" xml:space="preserve">
<g>
	<g>
		<path fill="#010101" d="M-290.3,320h-1.5l-2.2-3.8h-4.4l-0.6-5.8c0-0.4,0.2-0.7,0.6-0.8c0.4,0,0.7,0.2,0.8,0.6l0.5,4.5h3.9
			l2.2,3.8h0.7c0.4,0,0.7,0.3,0.7,0.7C-289.6,319.7-289.9,320-290.3,320z"/>
	</g>
	<g>
		<path fill="#010101" d="M-297,321.5c-3,0-5.4-2.4-5.4-5.4c0-1.7,0.7-3.2,2-4.2c0.3-0.2,0.7-0.2,1,0.1c0.2,0.3,0.2,0.7-0.1,1
			c-1,0.7-1.5,1.8-1.5,3.1c0,2.2,1.8,4,4,4c0.9,0,1.8-0.3,2.5-0.9c0.3-0.2,0.7-0.2,1,0.1c0.2,0.3,0.2,0.7-0.1,1
			C-294.6,321.1-295.8,321.5-297,321.5z"/>
	</g>
	<g>
		<circle fill="#010101" cx="-298.1" cy="307.7" r="1.2"/>
	</g>
	<g>
		<path fill="#010101" d="M-294.6,313.2h-3.3c-0.4,0-0.7-0.3-0.7-0.7s0.3-0.7,0.7-0.7h3.3c0.4,0,0.7,0.3,0.7,0.7
			S-294.2,313.2-294.6,313.2z"/>
	</g>
</g>
</svg>
