<?xml version="1.0" encoding="utf-8"?>
<!-- Generator: Adobe Illustrator 19.1.0, SVG Export Plug-In . SVG Version: 6.00 Build 0)  -->
<svg version="1.1" id="Layer_1" xmlns="http://www.w3.org/2000/svg" xmlns:xlink="http://www.w3.org/1999/xlink" x="0px" y="0px"
	 viewBox="0 0 65.6 66.5" style="enable-background:new 0 0 65.6 66.5;" xml:space="preserve">
<style type="text/css">
	.st0{fill:#FFFFFF;}
</style>
<g>
	<g>
		<path class="st0" d="M45.6,24.2c-0.3,0-0.5-0.2-0.5-0.5V4.2c0-0.6-0.4-1-1-1h-22c-0.6,0-1,0.4-1,1v19.5c0,0.3-0.2,0.5-0.5,0.5H4.1
			c-0.6,0-1,0.4-1,1v37c0,0.6,0.4,1,1,1h58c0.6,0,1-0.4,1-1v-37c0-0.6-0.4-1-1-1H45.6z M9.1,60.7c0,0.3-0.2,0.5-0.5,0.5h-3
			c-0.3,0-0.5-0.2-0.5-0.5v-6c0-0.3,0.2-0.5,0.5-0.5h3c0.3,0,0.5,0.2,0.5,0.5V60.7z M15.1,60.7c0,0.3-0.2,0.5-0.5,0.5h-3
			c-0.3,0-0.5-0.2-0.5-0.5v-6c0-0.3,0.2-0.5,0.5-0.5h3c0.3,0,0.5,0.2,0.5,0.5V60.7z M21.1,60.7c0,0.3-0.2,0.5-0.5,0.5h-3
			c-0.3,0-0.5-0.2-0.5-0.5v-6c0-0.3,0.2-0.5,0.5-0.5h3c0.3,0,0.5,0.2,0.5,0.5V60.7z M21.1,51.7c0,0.3-0.2,0.5-0.5,0.5h-15
			c-0.3,0-0.5-0.2-0.5-0.5v-25c0-0.3,0.2-0.5,0.5-0.5h15c0.3,0,0.5,0.2,0.5,0.5V51.7z M28.1,60.7c0,0.3-0.2,0.5-0.5,0.5h-4
			c-0.3,0-0.5-0.2-0.5-0.5v-8c0-0.3,0.2-0.5,0.5-0.5h4c0.3,0,0.5,0.2,0.5,0.5V60.7z M36.1,60.7c0,0.3-0.2,0.5-0.5,0.5h-5
			c-0.3,0-0.5-0.2-0.5-0.5v-8c0-0.3,0.2-0.5,0.5-0.5h5c0.3,0,0.5,0.2,0.5,0.5V60.7z M43.1,60.7c0,0.3-0.2,0.5-0.5,0.5h-4
			c-0.3,0-0.5-0.2-0.5-0.5v-8c0-0.3,0.2-0.5,0.5-0.5h4c0.3,0,0.5,0.2,0.5,0.5V60.7z M43.1,24.2v25.5c0,0.3-0.2,0.5-0.5,0.5h-19
			c-0.3,0-0.5-0.2-0.5-0.5V24.2V5.7c0-0.3,0.2-0.5,0.5-0.5h19c0.3,0,0.5,0.2,0.5,0.5V24.2z M49.1,60.7c0,0.3-0.2,0.5-0.5,0.5h-3
			c-0.3,0-0.5-0.2-0.5-0.5v-6c0-0.3,0.2-0.5,0.5-0.5h3c0.3,0,0.5,0.2,0.5,0.5V60.7z M55.1,60.7c0,0.3-0.2,0.5-0.5,0.5h-3
			c-0.3,0-0.5-0.2-0.5-0.5v-6c0-0.3,0.2-0.5,0.5-0.5h3c0.3,0,0.5,0.2,0.5,0.5V60.7z M61.1,60.7c0,0.3-0.2,0.5-0.5,0.5h-3
			c-0.3,0-0.5-0.2-0.5-0.5v-6c0-0.3,0.2-0.5,0.5-0.5h3c0.3,0,0.5,0.2,0.5,0.5V60.7z M61.1,51.7c0,0.3-0.2,0.5-0.5,0.5h-15
			c-0.3,0-0.5-0.2-0.5-0.5v-25c0-0.3,0.2-0.5,0.5-0.5h15c0.3,0,0.5,0.2,0.5,0.5V51.7z"/>
	</g>
	<g>
		<path class="st0" d="M31.1,9.2c0-0.6-0.4-1-1-1h-3c-0.6,0-1,0.4-1,1c0,0.6,0.4,1,1,1h3C30.6,10.2,31.1,9.8,31.1,9.2z"/>
	</g>
	<g>
		<path class="st0" d="M40.1,9.2c0-0.6-0.4-1-1-1h-3c-0.6,0-1,0.4-1,1c0,0.6,0.4,1,1,1h3C39.6,10.2,40.1,9.8,40.1,9.2z"/>
	</g>
	<g>
		<path class="st0" d="M31.1,15.2c0-0.6-0.4-1-1-1h-3c-0.6,0-1,0.4-1,1c0,0.6,0.4,1,1,1h3C30.6,16.2,31.1,15.8,31.1,15.2z"/>
	</g>
	<g>
		<path class="st0" d="M40.1,15.2c0-0.6-0.4-1-1-1h-3c-0.6,0-1,0.4-1,1c0,0.6,0.4,1,1,1h3C39.6,16.2,40.1,15.8,40.1,15.2z"/>
	</g>
	<g>
		<path class="st0" d="M31.1,21.2c0-0.6-0.4-1-1-1h-3c-0.6,0-1,0.4-1,1c0,0.6,0.4,1,1,1h3C30.6,22.2,31.1,21.8,31.1,21.2z"/>
	</g>
	<g>
		<path class="st0" d="M40.1,21.2c0-0.6-0.4-1-1-1h-3c-0.6,0-1,0.4-1,1c0,0.6,0.4,1,1,1h3C39.6,22.2,40.1,21.8,40.1,21.2z"/>
	</g>
	<g>
		<path class="st0" d="M31.1,27.2c0-0.6-0.4-1-1-1h-3c-0.6,0-1,0.4-1,1c0,0.6,0.4,1,1,1h3C30.6,28.2,31.1,27.8,31.1,27.2z"/>
	</g>
	<g>
		<path class="st0" d="M40.1,27.2c0-0.6-0.4-1-1-1h-3c-0.6,0-1,0.4-1,1c0,0.6,0.4,1,1,1h3C39.6,28.2,40.1,27.8,40.1,27.2z"/>
	</g>
	<g>
		<path class="st0" d="M31.1,33.2c0-0.6-0.4-1-1-1h-3c-0.6,0-1,0.4-1,1s0.4,1,1,1h3C30.6,34.2,31.1,33.8,31.1,33.2z"/>
	</g>
	<g>
		<path class="st0" d="M40.1,33.2c0-0.6-0.4-1-1-1h-3c-0.6,0-1,0.4-1,1s0.4,1,1,1h3C39.6,34.2,40.1,33.8,40.1,33.2z"/>
	</g>
	<g>
		<path class="st0" d="M31.1,39.2c0-0.6-0.4-1-1-1h-3c-0.6,0-1,0.4-1,1s0.4,1,1,1h3C30.6,40.2,31.1,39.8,31.1,39.2z"/>
	</g>
	<g>
		<path class="st0" d="M40.1,39.2c0-0.6-0.4-1-1-1h-3c-0.6,0-1,0.4-1,1s0.4,1,1,1h3C39.6,40.2,40.1,39.8,40.1,39.2z"/>
	</g>
	<g>
		<path class="st0" d="M31.1,45.2c0-0.6-0.4-1-1-1h-3c-0.6,0-1,0.4-1,1s0.4,1,1,1h3C30.6,46.2,31.1,45.8,31.1,45.2z"/>
	</g>
	<g>
		<path class="st0" d="M40.1,45.2c0-0.6-0.4-1-1-1h-3c-0.6,0-1,0.4-1,1s0.4,1,1,1h3C39.6,46.2,40.1,45.8,40.1,45.2z"/>
	</g>
	<g>
		<path class="st0" d="M52.1,30.2c0-0.6-0.4-1-1-1h-3c-0.6,0-1,0.4-1,1c0,0.6,0.4,1,1,1h3C51.6,31.2,52.1,30.8,52.1,30.2z"/>
	</g>
	<g>
		<path class="st0" d="M59.1,30.2c0-0.6-0.4-1-1-1h-3c-0.6,0-1,0.4-1,1c0,0.6,0.4,1,1,1h3C58.6,31.2,59.1,30.8,59.1,30.2z"/>
	</g>
	<g>
		<path class="st0" d="M52.1,36.2c0-0.6-0.4-1-1-1h-3c-0.6,0-1,0.4-1,1s0.4,1,1,1h3C51.6,37.2,52.1,36.8,52.1,36.2z"/>
	</g>
	<g>
		<path class="st0" d="M59.1,36.2c0-0.6-0.4-1-1-1h-3c-0.6,0-1,0.4-1,1s0.4,1,1,1h3C58.6,37.2,59.1,36.8,59.1,36.2z"/>
	</g>
	<g>
		<path class="st0" d="M52.1,42.2c0-0.6-0.4-1-1-1h-3c-0.6,0-1,0.4-1,1s0.4,1,1,1h3C51.6,43.2,52.1,42.8,52.1,42.2z"/>
	</g>
	<g>
		<path class="st0" d="M59.1,42.2c0-0.6-0.4-1-1-1h-3c-0.6,0-1,0.4-1,1s0.4,1,1,1h3C58.6,43.2,59.1,42.8,59.1,42.2z"/>
	</g>
	<g>
		<path class="st0" d="M52.1,48.2c0-0.6-0.4-1-1-1h-3c-0.6,0-1,0.4-1,1s0.4,1,1,1h3C51.6,49.2,52.1,48.8,52.1,48.2z"/>
	</g>
	<g>
		<path class="st0" d="M59.1,48.2c0-0.6-0.4-1-1-1h-3c-0.6,0-1,0.4-1,1s0.4,1,1,1h3C58.6,49.2,59.1,48.8,59.1,48.2z"/>
	</g>
	<g>
		<path class="st0" d="M12.1,30.2c0-0.6-0.4-1-1-1h-3c-0.6,0-1,0.4-1,1c0,0.6,0.4,1,1,1h3C11.6,31.2,12.1,30.8,12.1,30.2z"/>
	</g>
	<g>
		<path class="st0" d="M19.1,30.2c0-0.6-0.4-1-1-1h-3c-0.6,0-1,0.4-1,1c0,0.6,0.4,1,1,1h3C18.6,31.2,19.1,30.8,19.1,30.2z"/>
	</g>
	<g>
		<path class="st0" d="M12.1,36.2c0-0.6-0.4-1-1-1h-3c-0.6,0-1,0.4-1,1s0.4,1,1,1h3C11.6,37.2,12.1,36.8,12.1,36.2z"/>
	</g>
	<g>
		<path class="st0" d="M19.1,36.2c0-0.6-0.4-1-1-1h-3c-0.6,0-1,0.4-1,1s0.4,1,1,1h3C18.6,37.2,19.1,36.8,19.1,36.2z"/>
	</g>
	<g>
		<path class="st0" d="M12.1,42.2c0-0.6-0.4-1-1-1h-3c-0.6,0-1,0.4-1,1s0.4,1,1,1h3C11.6,43.2,12.1,42.8,12.1,42.2z"/>
	</g>
	<g>
		<path class="st0" d="M19.1,42.2c0-0.6-0.4-1-1-1h-3c-0.6,0-1,0.4-1,1s0.4,1,1,1h3C18.6,43.2,19.1,42.8,19.1,42.2z"/>
	</g>
	<g>
		<path class="st0" d="M12.1,48.2c0-0.6-0.4-1-1-1h-3c-0.6,0-1,0.4-1,1s0.4,1,1,1h3C11.6,49.2,12.1,48.8,12.1,48.2z"/>
	</g>
	<g>
		<path class="st0" d="M19.1,48.2c0-0.6-0.4-1-1-1h-3c-0.6,0-1,0.4-1,1s0.4,1,1,1h3C18.6,49.2,19.1,48.8,19.1,48.2z"/>
	</g>
</g>
</svg>
