<?xml version="1.0" encoding="utf-8"?>
<!-- Generator: Adobe Illustrator 19.0.1, SVG Export Plug-In . SVG Version: 6.00 Build 0)  -->
<!DOCTYPE svg PUBLIC "-//W3C//DTD SVG 1.1//EN" "http://www.w3.org/Graphics/SVG/1.1/DTD/svg11.dtd">
<svg version="1.1" id="Layer_1" xmlns="http://www.w3.org/2000/svg" xmlns:xlink="http://www.w3.org/1999/xlink" x="0px" y="0px"
	 width="25.2px" height="25.2px" viewBox="-46 18.8 25.2 25.2" style="enable-background:new -46 18.8 25.2 25.2;"
	 xml:space="preserve">
<style type="text/css">
	.st0{clip-path:url(#SVGID_2_);fill:#333333;}
	.st1{clip-path:url(#SVGID_4_);fill:#333333;}
</style>
<g>
	<g>
		<g>
			<defs>
				<rect id="SVGID_1_" x="-46" y="18.8" width="25.2" height="25.2"/>
			</defs>
			<clipPath id="SVGID_2_">
				<use xlink:href="#SVGID_1_"  style="overflow:visible;"/>
			</clipPath>
			<path class="st0" d="M-25.1,21.6l1.4,1.4l1.3-1.3l-1.4-1.4L-25.1,21.6z M-28.8,19.7c-0.4,0-0.7,0.1-1,0.4l-0.1,0.1
				c-0.5,0.5-0.5,1.4,0,1.9l5.7,5.7c0.2,0.2,0.6,0.4,1,0.4s0.7-0.1,1-0.4l0.1-0.1c0.3-0.3,0.4-0.6,0.4-1c0-0.4-0.1-0.7-0.4-1
				l-5.7-5.7C-28.1,19.8-28.4,19.7-28.8,19.7 M-33.4,20.3c-0.4,0-0.7,0.1-1,0.4l-0.1,0.1c-0.3,0.3-0.4,0.6-0.4,1s0.1,0.7,0.4,1
				l9.8,9.8c0.3,0.3,0.6,0.4,1,0.4c0.4,0,0.7-0.1,1-0.4l0.1-0.1c0.3-0.3,0.4-0.6,0.4-1c0-0.4-0.1-0.7-0.4-1l-9.8-9.8
				C-32.7,20.4-33,20.3-33.4,20.3 M-23.7,33.7c-0.6,0-1.1-0.2-1.6-0.6l-9.8-9.8c-0.4-0.4-0.6-1-0.6-1.6s0.2-1.1,0.6-1.6l0.1-0.1
				c0.4-0.4,1-0.6,1.6-0.6c0.6,0,1.1,0.2,1.6,0.6l0.7,0.7l0.2-0.5c0.1-0.3,0.3-0.5,0.5-0.7l0.1-0.1c0.4-0.4,1-0.6,1.6-0.6
				c0.6,0,1.1,0.2,1.6,0.6l1.5,1.5l1.6-1.6c0.1-0.1,0.2-0.1,0.3-0.1c0.1,0,0.2,0,0.3,0.1l2,2c0.1,0.1,0.1,0.2,0.1,0.3
				c0,0.1,0,0.2-0.1,0.3l-1.6,1.6l1.5,1.5c0.4,0.4,0.6,1,0.6,1.6s-0.2,1.1-0.6,1.6l-0.1,0.1c-0.2,0.2-0.5,0.4-0.7,0.5l-0.5,0.2
				l0.7,0.7c0.4,0.4,0.6,1,0.6,1.6c0,0.6-0.2,1.1-0.6,1.6l-0.1,0.1C-22.5,33.4-23.1,33.7-23.7,33.7"/>
		</g>
	</g>
	<g>
		<g>
			<defs>
				<rect id="SVGID_3_" x="-46" y="18.8" width="25.2" height="25.2"/>
			</defs>
			<clipPath id="SVGID_4_">
				<use xlink:href="#SVGID_3_"  style="overflow:visible;"/>
			</clipPath>
			<path class="st1" d="M-44.5,41.1l1.4,1.4l1.3-1.3l-1.4-1.4L-44.5,41.1z M-43.2,30c-0.4,0-0.7,0.1-1,0.4l-0.1,0.1
				c-0.3,0.3-0.4,0.6-0.4,1c0,0.4,0.1,0.7,0.4,1l9.8,9.8c0.2,0.2,0.6,0.4,1,0.4c0.4,0,0.7-0.1,1-0.4l0.1-0.1c0.5-0.5,0.5-1.4,0-1.9
				l-9.8-9.8C-42.4,30.2-42.8,30-43.2,30 M-43.7,34.6c-0.4,0-0.7,0.1-1,0.4l-0.1,0.1c-0.3,0.3-0.4,0.6-0.4,1c0,0.4,0.1,0.7,0.4,1
				l5.7,5.7c0.2,0.2,0.6,0.4,1,0.4c0.4,0,0.7-0.1,1-0.4l0.1-0.1c0.3-0.3,0.4-0.6,0.4-1c0-0.4-0.1-0.7-0.4-1l-5.7-5.7
				C-43,34.8-43.4,34.6-43.7,34.6 M-38.1,44c-0.6,0-1.1-0.2-1.6-0.6l-1.5-1.5l-1.6,1.6c-0.1,0.1-0.2,0.1-0.3,0.1
				c-0.1,0-0.2,0-0.3-0.1l-2-2c-0.1-0.1-0.1-0.2-0.1-0.3c0-0.1,0-0.2,0.1-0.3l1.6-1.6l-1.5-1.5c-0.4-0.4-0.6-1-0.6-1.6
				c0-0.6,0.2-1.1,0.6-1.6l0.1-0.1c0.2-0.2,0.5-0.4,0.7-0.5l0.5-0.2l-0.7-0.7c-0.4-0.4-0.6-1-0.6-1.6c0-0.6,0.2-1.1,0.6-1.6l0.1-0.1
				c0.4-0.4,1-0.6,1.6-0.6c0.6,0,1.1,0.2,1.6,0.6l3.6,3.6l5.1-5.1l0.6,0.6l-5.1,5.1l1.4,1.4l5.1-5.1l0.6,0.6l-5.1,5.1l3.6,3.6
				c0.9,0.9,0.9,2.3,0,3.1l-0.1,0.1c-0.4,0.4-1,0.6-1.6,0.6c-0.6,0-1.1-0.2-1.6-0.6l-0.7-0.7l-0.2,0.5c-0.1,0.3-0.3,0.5-0.5,0.7
				l-0.1,0.1C-36.9,43.8-37.5,44-38.1,44"/>
		</g>
	</g>
</g>
</svg>
