<?xml version="1.0" encoding="utf-8"?>
<!-- Generator: Adobe Illustrator 19.0.1, SVG Export Plug-In . SVG Version: 6.00 Build 0)  -->
<!DOCTYPE svg PUBLIC "-//W3C//DTD SVG 1.1//EN" "http://www.w3.org/Graphics/SVG/1.1/DTD/svg11.dtd">
<svg version="1.1" xmlns="http://www.w3.org/2000/svg" xmlns:xlink="http://www.w3.org/1999/xlink" x="0px" y="0px" width="25.2px"
	 height="16.1px" viewBox="-46 27.9 25.2 16.1" style="enable-background:new -46 27.9 25.2 16.1;" xml:space="preserve">
<style type="text/css">
	.st0{display:none;}
	.st1{display:inline;fill:#DD1D1D;stroke:#000000;stroke-miterlimit:10;}
	.st2{display:inline;}
	.st3{clip-path:url(#SVGID_2_);fill:#555555;}
	.st4{clip-path:url(#SVGID_4_);fill:#555555;}
	.st5{display:inline;fill:#821F17;}
	.st6{fill:none;stroke:#FFFFFF;stroke-width:0.75;stroke-miterlimit:10;}
	.st7{display:inline;fill:#FFFFFF;}
	.st8{fill:none;stroke:#FFFFFF;stroke-width:0.7088;stroke-miterlimit:10;}
	.st9{fill:none;stroke:#474744;stroke-width:0.75;stroke-miterlimit:10;}
	.st10{fill:#FFFFFF;}
</style>
<g id="Layer_2_1_" class="st0">
	<rect x="-120.5" y="-26.5" class="st1" width="137.8" height="94.3"/>
</g>
<g id="Layer_1">
	<g id="Layer_1_1_" class="st0">
		<g class="st2">
			<g>
				<g>
					<defs>
						<rect id="SVGID_1_" x="-46" y="18.8" width="25.2" height="25.2"/>
					</defs>
					<clipPath id="SVGID_2_">
						<use xlink:href="#SVGID_1_"  style="overflow:visible;"/>
					</clipPath>
					<path class="st3" d="M-25.1,21.6l1.4,1.4l1.3-1.3l-1.4-1.4L-25.1,21.6z M-28.8,19.7c-0.4,0-0.7,0.1-1,0.4l-0.1,0.1
						c-0.5,0.5-0.5,1.4,0,1.9l5.7,5.7c0.2,0.2,0.6,0.4,1,0.4s0.7-0.1,1-0.4l0.1-0.1c0.3-0.3,0.4-0.6,0.4-1c0-0.4-0.1-0.7-0.4-1
						l-5.7-5.7C-28.1,19.8-28.4,19.7-28.8,19.7 M-33.4,20.3c-0.4,0-0.7,0.1-1,0.4l-0.1,0.1c-0.3,0.3-0.4,0.6-0.4,1s0.1,0.7,0.4,1
						l9.8,9.8c0.3,0.3,0.6,0.4,1,0.4c0.4,0,0.7-0.1,1-0.4l0.1-0.1c0.3-0.3,0.4-0.6,0.4-1c0-0.4-0.1-0.7-0.4-1l-9.8-9.8
						C-32.7,20.4-33,20.3-33.4,20.3 M-23.7,33.7c-0.6,0-1.1-0.2-1.6-0.6l-9.8-9.8c-0.4-0.4-0.6-1-0.6-1.6c0-0.6,0.2-1.1,0.6-1.6
						l0.1-0.1c0.4-0.4,1-0.6,1.6-0.6c0.6,0,1.1,0.2,1.6,0.6l0.7,0.7l0.2-0.5c0.1-0.3,0.3-0.5,0.5-0.7l0.1-0.1c0.4-0.4,1-0.6,1.6-0.6
						c0.6,0,1.1,0.2,1.6,0.6l1.5,1.5l1.6-1.6c0.1-0.1,0.2-0.1,0.3-0.1c0.1,0,0.2,0,0.3,0.1l2,2c0.1,0.1,0.1,0.2,0.1,0.3
						c0,0.1,0,0.2-0.1,0.3l-1.6,1.6l1.5,1.5c0.4,0.4,0.6,1,0.6,1.6s-0.2,1.1-0.6,1.6l-0.1,0.1c-0.2,0.2-0.5,0.4-0.7,0.5l-0.5,0.2
						l0.7,0.7c0.4,0.4,0.6,1,0.6,1.6c0,0.6-0.2,1.1-0.6,1.6l-0.1,0.1C-22.5,33.4-23.1,33.7-23.7,33.7"/>
				</g>
			</g>
			<g>
				<g>
					<defs>
						<rect id="SVGID_3_" x="-46" y="18.8" width="25.2" height="25.2"/>
					</defs>
					<clipPath id="SVGID_4_">
						<use xlink:href="#SVGID_3_"  style="overflow:visible;"/>
					</clipPath>
					<path class="st4" d="M-44.5,41.1l1.4,1.4l1.3-1.3l-1.4-1.4L-44.5,41.1z M-43.2,30c-0.4,0-0.7,0.1-1,0.4l-0.1,0.1
						c-0.3,0.3-0.4,0.6-0.4,1c0,0.4,0.1,0.7,0.4,1l9.8,9.8c0.2,0.2,0.6,0.4,1,0.4c0.4,0,0.7-0.1,1-0.4l0.1-0.1
						c0.5-0.5,0.5-1.4,0-1.9l-9.8-9.8C-42.4,30.2-42.8,30-43.2,30 M-43.7,34.6c-0.4,0-0.7,0.1-1,0.4l-0.1,0.1
						c-0.3,0.3-0.4,0.6-0.4,1c0,0.4,0.1,0.7,0.4,1l5.7,5.7c0.2,0.2,0.6,0.4,1,0.4c0.4,0,0.7-0.1,1-0.4l0.1-0.1
						c0.3-0.3,0.4-0.6,0.4-1c0-0.4-0.1-0.7-0.4-1l-5.7-5.7C-43,34.8-43.4,34.6-43.7,34.6 M-38.1,44c-0.6,0-1.1-0.2-1.6-0.6l-1.5-1.5
						l-1.6,1.6c-0.1,0.1-0.2,0.1-0.3,0.1c-0.1,0-0.2,0-0.3-0.1l-2-2c-0.1-0.1-0.1-0.2-0.1-0.3c0-0.1,0-0.2,0.1-0.3l1.6-1.6l-1.5-1.5
						c-0.4-0.4-0.6-1-0.6-1.6c0-0.6,0.2-1.1,0.6-1.6l0.1-0.1c0.2-0.2,0.5-0.4,0.7-0.5l0.5-0.2l-0.7-0.7c-0.4-0.4-0.6-1-0.6-1.6
						c0-0.6,0.2-1.1,0.6-1.6l0.1-0.1c0.4-0.4,1-0.6,1.6-0.6c0.6,0,1.1,0.2,1.6,0.6l3.6,3.6l5.1-5.1l0.6,0.6l-5.1,5.1l1.4,1.4
						l5.1-5.1l0.6,0.6l-5.1,5.1l3.6,3.6c0.9,0.9,0.9,2.3,0,3.1l-0.1,0.1c-0.4,0.4-1,0.6-1.6,0.6c-0.6,0-1.1-0.2-1.6-0.6l-0.7-0.7
						l-0.2,0.5c-0.1,0.3-0.3,0.5-0.5,0.7l-0.1,0.1C-36.9,43.8-37.5,44-38.1,44"/>
				</g>
			</g>
		</g>
	</g>
	<g id="Layer_3" class="st0">
		<rect x="-64" y="9.3" class="st5" width="66.4" height="40.6"/>
	</g>
	<g id="Layer_2" class="st0">
		<g class="st2">
			<path class="st6" d="M-21.6,40.8c-0.1-0.1-0.1-0.1-0.2-0.1l-8.9-7.7c0-0.2-0.1-0.3-0.2-0.4l-0.6-0.6l-1.1-1.1l1.6-1.8
				c1,0.6,2.4,0.5,3.3-0.4c0.1-0.1,0.1-0.1,0.2-0.2l5.6-6.2l-0.4-0.4l-4.3,4.6c-0.1,0.1-0.3,0.1-0.4,0c-0.1-0.1-0.1-0.3,0-0.4
				l4.3-4.6l-0.4-0.4l-4.4,4.4c-0.1,0.1-0.3,0.1-0.4,0c-0.1-0.1-0.1-0.3,0-0.4l4.4-4.4l-0.4-0.4l-4.6,4.3c-0.1,0.1-0.3,0.1-0.4,0
				c-0.1-0.1-0.1-0.3,0-0.4l4.6-4.3l-0.4-0.4l-6.2,5.6c-0.1,0.1-0.1,0.1-0.2,0.2c-0.9,0.9-1,2.2-0.4,3.3l-1.8,1.6l-5.6-5.6l-2.4-2.4
				c-0.6-0.6-1.3-0.7-1.5-0.3c-0.3,0.4-0.3,1.3,0.1,1.9c0,0,0.7,1.3,1.3,2.1c0.4,0.5,3.5,3.9,5.8,6.3l-9.2,8.2c0,0-0.1,0.1-0.1,0.1
				c-0.7,0.7-0.7,1.7,0,2.4c0.7,0.7,1.7,0.7,2.4,0c0,0,0.1-0.1,0.1-0.1l8.1-9.1c0.6,0.6,1,1.1,1,1.1l0,0l0.6,0.7
				c0.2,0.3,0.6,0.3,0.8,0l0.6-0.6l0.1-0.1l7.6,8.8c0,0.1,0.1,0.1,0.1,0.2c0.7,0.7,1.7,0.7,2.4,0C-20.9,42.5-20.9,41.5-21.6,40.8z"
				/>
		</g>
	</g>
	<g id="Layer_5" class="st0">
		<path class="st7" d="M-27.7,29.5L-27.7,29.5c2.2,0,3.7-2.3,3.7-2.4l0.1-0.1l2.9-3.3l-0.8-0.6l-2.7,3.1l-0.7-0.6l2.7-3.1l-0.8-0.6
			l-2.7,3.1l-0.8-0.7l2.7-3.1l-0.8-0.6l-2.7,3.1l-0.9-0.8l2.7-3.1l-0.8-0.6l-3,3.4c-0.2,0.2-1.9,1.7-1.9,3.6c0,0.8,0.3,1.5,0.9,2.2
			l-3,3.5l-1.8-2.2l0,0l0,0c-0.1-0.1-7.1-8.3-7.5-8.8c-0.3-0.4-1-1.1-1.7-1.1c-0.5,0-1.1,0.3-1.3,1.6c-0.5,2.9,1.1,4.6,1.2,4.7
			l4,4.8c0.8,1,1.6,1.4,2.4,1.4c0.6,0,0.9-0.3,1-0.3l1.5-1.3l1.6,1.9l-8.8,10.2l0.8,0.6l8.7-10.1l8.2,9.9l0.8-0.6l-8.3-10l3.1-3.6
			C-29,29.3-28.4,29.5-27.7,29.5z M-37.8,31.1c0,0-0.1,0.1-0.4,0.1c-0.5,0-1-0.4-1.6-1.1l-4-4.8c-0.1-0.1-1.3-1.4-0.9-3.9
			c0.1-0.6,0.2-0.7,0.3-0.7c0.2,0,0.5,0.2,0.9,0.7c0.4,0.5,5.8,6.8,7.2,8.5L-37.8,31.1z M-29.1,23.5l4,3.4c-0.5,0.6-1.5,1.6-2.6,1.6
			l0,0c-0.5,0-1.1-0.2-1.6-0.7c-0.6-0.5-0.9-1.1-0.9-1.8C-30.3,25-29.5,24-29.1,23.5z"/>
	</g>
	<g id="Layer_4" class="st0">
		<g class="st2">
			<g>
				<path class="st8" d="M-30.5,40.6l-2.3-4.6c-1.6,0.1-3.3-0.1-4.8-0.4l-4.9,1.9l-0.4-4.4c-1.4-1.3-2.2-2.8-2.2-4.3
					c0-4.1,5.1-7.4,11.5-7.4c6.3,0,11.5,3.3,11.5,7.4c0,3-2.8,5.7-7.1,6.8L-30.5,40.6z M-32.5,35.6l1.9,3.8l1.1-4.3l0.1,0
					c4.2-1.1,6.9-3.6,6.9-6.4c0-3.8-5-7-11.1-7c-6.1,0-11.1,3.1-11.1,7c0,1.5,0.8,3,2.2,4.2l0,0l0.4,4l4.5-1.7l0.1,0
					c1.6,0.4,3.3,0.5,4.9,0.4L-32.5,35.6z M-26.6,31.9h-13.3v-0.6h13.3V31.9z M-26.6,29h-13.3v-0.6h13.3V29z M-26.6,26.2h-13.3v-0.6
					h13.3V26.2z"/>
			</g>
		</g>
	</g>
	<g id="Layer_6" class="st0">
		<g class="st2">
			<g>
				<path class="st9" d="M-22.7,29.8c0-3.6-4.6-6.6-10.4-6.6c-5.7,0-10.4,2.9-10.4,6.6c0,1.5,0.8,2.8,2,3.9v0l0.3,3.9l4.3-1.7l0,0
					c1.2,0.3,2.4,0.4,3.7,0.4c0.3,0,0.6,0,0.9,0l1.9,3.9l1.1-4.3C-25.4,34.9-22.7,32.6-22.7,29.8z M-26.5,32.5h-13.3v-0.6h13.3V32.5
					z M-26.5,30.1h-13.3v-0.6h13.3V30.1z M-26.5,27.7h-13.3v-0.6h13.3V27.7z"/>
			</g>
		</g>
	</g>
	<g id="Layer_7">
		<path class="st10" d="M-26.1,33.9c-0.8,0-1.6,0.2-2.2,0.5l-1.3-4.7l0.8-0.5l2,0.2l0.1-0.7l-4.6-0.5l-0.1,0.7l1.5,0.2l-0.5,0.3
			l0.6,2.2h-7.8l-0.6-1c0.2-0.1,0.3-0.1,0.4-0.1c0,0,0.1,0,0.1-0.1c0.4-0.2,1.1-0.4,1.1-1c0-0.5-0.3-0.7-0.6-0.7h0l-3.2-0.3l-0.1,0
			c-0.3,0-0.6,0.1-0.8,0.4c-0.3,0.4-0.4,0.9-0.3,1.2c0.1,0.7,0.6,1.1,1.2,1.1c0,0,0.1,0,0.1,0c0.3,0,0.9-0.1,1.4-0.3l0.7,1.1l-1,2.2
			c-0.5-0.2-1.1-0.3-1.6-0.3c-2.7,0-4.9,2.2-4.9,4.9c0,2.7,2.2,4.9,4.9,4.9c2.6,0,4.7-2,4.9-4.6h0.1v-0.1h2.3l4.2-5.7l0.4,1.4
			c-1.2,0.9-2,2.3-2,4c0,2.7,2.2,4.9,4.9,4.9c2.7,0,4.9-2.2,4.9-4.9C-21.2,36.1-23.4,33.9-26.1,33.9z M-40.4,30.4L-40.4,30.4
			c-0.2,0-0.5,0-0.6-0.5c0-0.1,0-0.4,0.2-0.6c0.1-0.1,0.2-0.1,0.2-0.1l0,0l3.2,0.3c-0.1,0.1-0.5,0.2-0.6,0.3c-0.1,0-0.1,0-0.2,0.1
			C-38.4,30-39.8,30.4-40.4,30.4z M-40.9,43c-2.3,0-4.2-1.9-4.2-4.2c0-2.3,1.9-4.2,4.2-4.2c0.5,0,0.9,0.1,1.3,0.2l-1.9,4.3h4.7
			C-36.9,41.3-38.7,43-40.9,43z M-40.3,38.4l1.5-3.3c1.2,0.7,2,1.9,2.2,3.3H-40.3z M-36,38.4c-0.1-1.7-1.1-3.2-2.6-4l0.7-1.7
			l3.4,5.7L-36,38.4L-36,38.4z M-29.6,32.6l-4.2,5.6l-3.4-5.8h7.6L-29.6,32.6L-29.6,32.6z M-26.1,43c-2.3,0-4.2-1.9-4.2-4.2
			c0-1.3,0.6-2.5,1.5-3.2l2.3,3.5l0.6-0.4l-2.3-3.4l0-0.1c0.6-0.3,1.3-0.5,2-0.5c2.3,0,4.2,1.9,4.2,4.2C-21.9,41.1-23.8,43-26.1,43z
			"/>
	</g>
</g>
</svg>
