<?xml version="1.0" encoding="utf-8"?>
<!-- Generator: Adobe Illustrator 16.0.0, SVG Export Plug-In . SVG Version: 6.00 Build 0)  -->
<!DOCTYPE svg PUBLIC "-//W3C//DTD SVG 1.1//EN" "http://www.w3.org/Graphics/SVG/1.1/DTD/svg11.dtd">
<svg version="1.1" id="Layer_1" xmlns="http://www.w3.org/2000/svg" xmlns:xlink="http://www.w3.org/1999/xlink" x="0px" y="0px"
	 width="39.261px" height="29.632px" viewBox="0 0 39.261 29.632" enable-background="new 0 0 39.261 29.632" xml:space="preserve">
<g>
	<defs>
		<rect id="SVGID_1_" y="0" width="39.261" height="29.632"/>
	</defs>
	<clipPath id="SVGID_2_">
		<use xlink:href="#SVGID_1_"  overflow="visible"/>
	</clipPath>
	<path clip-path="url(#SVGID_2_)" fill="#555555" d="M6.449,26.88c-1.88,0-3.477-1.338-3.799-3.185L0.058,8.852
		c-0.365-2.087,1.045-4.079,3.141-4.443l25.161-4.352c2.096-0.362,4.099,1.04,4.464,3.126l0.7,4.011l-0.744,0.129l-0.7-4.011
		c-0.294-1.678-1.904-2.808-3.591-2.515L3.329,5.15c-1.687,0.292-2.82,1.895-2.527,3.573l2.593,14.844
		c0.259,1.485,1.544,2.562,3.055,2.562h0.005l0.001,0.752H6.449z"/>
</g>
<rect x="26.835" y="0.618" transform="matrix(0.1806 0.9836 -0.9836 0.1806 28.4384 -21.646)" fill="#555555" width="0.752" height="11.255"/>
<rect x="3.388" y="7.809" transform="matrix(0.1806 0.9836 -0.9836 0.1806 13.4497 4.9335)" fill="#555555" width="0.752" height="5.459"/>
<g>
	<defs>
		<rect id="SVGID_3_" y="0" width="39.261" height="29.632"/>
	</defs>
	<clipPath id="SVGID_4_">
		<use xlink:href="#SVGID_3_"  overflow="visible"/>
	</clipPath>
	<path clip-path="url(#SVGID_4_)" fill="#555555" d="M9.864,7.634c-1.712,0-3.105,1.386-3.105,3.09v15.067
		c0,1.703,1.393,3.089,3.105,3.089H35.4c1.713,0,3.105-1.386,3.105-3.089V10.724c0-1.704-1.393-3.09-3.105-3.09H9.864z M35.4,29.632
		H9.864c-2.129,0-3.86-1.723-3.86-3.841V10.724c0-2.118,1.731-3.841,3.86-3.841H35.4c2.128,0,3.86,1.723,3.86,3.841v15.067
		C39.261,27.91,37.528,29.632,35.4,29.632"/>
</g>
<path fill="#555555" d="M6.759,11.792h31.747v5.382H6.759V11.792z M6.004,17.926h33.257v-6.885H6.004V17.926z"/>
<path fill="#555555" d="M29.084,25.565h7.326v-4.229h-7.326V25.565z M37.165,26.316h-8.837v-5.731h8.837V26.316z"/>
</svg>
