<?xml version="1.0" encoding="utf-8"?>
<!-- Generator: Adobe Illustrator 19.0.1, SVG Export Plug-In . SVG Version: 6.00 Build 0)  -->
<!DOCTYPE svg PUBLIC "-//W3C//DTD SVG 1.1//EN" "http://www.w3.org/Graphics/SVG/1.1/DTD/svg11.dtd">
<svg version="1.1" id="Layer_1" xmlns="http://www.w3.org/2000/svg" xmlns:xlink="http://www.w3.org/1999/xlink" x="0px" y="0px"
	 width="20px" height="12px" viewBox="0 0 20 12" style="enable-background:new 0 0 20 12;" xml:space="preserve">
<style type="text/css">
	.st0{fill:#FFFFFF;}
</style>
<path class="st0" d="M10,11.9C10,11.9,10,11.9,10,11.9c-0.5,0-1-0.2-1.3-0.6l-8-9.2C0.2,1.5,0.3,1,0.4,0.8s0.4-0.6,1.2-0.6h16.9
	c0.8,0,1.1,0.4,1.2,0.6s0.2,0.7-0.3,1.3l-8,9.2C11,11.7,10.5,11.9,10,11.9z M1.3,1.2c0,0,0.1,0.1,0.2,0.2l8,9.2
	c0.1,0.2,0.3,0.3,0.6,0.3c0,0,0,0,0,0c0.2,0,0.4-0.1,0.6-0.3l8-9.2c0.1-0.1,0.1-0.2,0.1-0.2c0,0-0.1,0-0.2,0H1.5
	C1.4,1.2,1.3,1.2,1.3,1.2z"/>
</svg>
