<?xml version="1.0" encoding="utf-8"?>
<!-- Generator: Adobe Illustrator 16.0.0, SVG Export Plug-In . SVG Version: 6.00 Build 0)  -->
<!DOCTYPE svg PUBLIC "-//W3C//DTD SVG 1.1//EN" "http://www.w3.org/Graphics/SVG/1.1/DTD/svg11.dtd">
<svg version="1.1" id="Layer_1" xmlns="http://www.w3.org/2000/svg" xmlns:xlink="http://www.w3.org/1999/xlink" x="0px" y="0px"
	 width="21.741px" height="25.529px" viewBox="0 0 21.741 25.529" enable-background="new 0 0 21.741 25.529" xml:space="preserve">
<g>
	<defs>
		<rect id="SVGID_1_" y="0" width="21.741" height="25.529"/>
	</defs>
	<clipPath id="SVGID_2_">
		<use xlink:href="#SVGID_1_"  overflow="visible"/>
	</clipPath>
	<path clip-path="url(#SVGID_2_)" fill="#FFFFFF" d="M17.568,15.371l-2.075-0.693l-0.099-0.028
		c-0.037-0.011-0.075-0.016-0.113-0.016c-0.043,0-0.085,0.006-0.126,0.021c-0.213,0.069-0.329,0.299-0.259,0.512l1.186,3.608
		l-3.267-1.87c-0.061-0.035-0.131-0.055-0.201-0.055c-0.145,0-0.279,0.079-0.352,0.205c-0.054,0.095-0.068,0.203-0.039,0.309
		c0.028,0.104,0.095,0.191,0.188,0.245l1.265,0.724l-2.807,5.6l-2.806-5.6l1.264-0.724c0.094-0.054,0.161-0.142,0.19-0.245
		c0.028-0.105,0.014-0.214-0.04-0.309c-0.072-0.126-0.207-0.205-0.353-0.205c-0.071,0-0.138,0.02-0.2,0.055l-3.267,1.87l1.186-3.608
		c0.069-0.213-0.047-0.442-0.259-0.512c-0.041-0.015-0.083-0.021-0.126-0.021c-0.038,0-0.076,0.005-0.113,0.017l-0.079,0.021
		l-2.116,0.706C3.727,15.49,0,16.576,0,19.925v5.604h0.812v-5.604c0-2.826,3.416-3.729,3.538-3.76l1.474-0.491l-1.256,3.813
		l-0.019,0.09l-0.007,0.056l-0.001,0.054l0.012,0.061l0.019,0.057c0.005,0.013,0.009,0.024,0.015,0.035l0.015,0.025
		c0.014,0.021,0.03,0.043,0.065,0.081c0.025,0.022,0.047,0.041,0.041,0.041c0,0-0.002,0-0.003-0.001l0.023,0.01
		c0,0,0.048,0.024,0.063,0.032l0.037,0.01c0.044,0.013,0.082,0.02,0.114,0.02h0.012c0.03-0.001,0.064-0.007,0.093-0.015l0.046-0.02
		l0.046-0.017l2.221-1.27l3.13,6.248c0.066,0.132,0.196,0.216,0.342,0.223l0.016-0.002l0.059,0.003
		c0.148-0.007,0.279-0.091,0.346-0.224l3.131-6.248l2.222,1.269l0.08,0.033c0.039,0.011,0.074,0.018,0.104,0.019h0.012
		c0.032,0,0.07-0.007,0.117-0.021l0.029-0.007c0.018-0.007,0.066-0.034,0.066-0.034c0.02-0.013,0.043-0.032,0.08-0.069
		c0.018-0.019,0.034-0.04,0.045-0.058c0.005-0.008,0.01-0.017,0.016-0.024l0.031-0.072l0.008-0.04l0.008-0.059l0.001-0.052
		l-0.018-0.097l-1.264-3.85l1.403,0.47l0.044,0.014c0.036,0.009,3.563,0.934,3.563,3.767v5.557h0.812v-5.557
		C21.741,16.577,18.015,15.49,17.568,15.371"/>
	<path clip-path="url(#SVGID_2_)" fill="#FFFFFF" d="M3.265,8.173C3.45,9.095,3.641,10.048,4.3,12.162
		c0.053,0.171,0.209,0.285,0.387,0.285c0.041,0,0.081-0.006,0.121-0.019c0.103-0.032,0.188-0.103,0.238-0.198
		c0.051-0.097,0.061-0.206,0.028-0.31C4.427,9.845,4.25,8.955,4.06,8.012c-0.04-0.198-0.079-0.397-0.129-0.636
		C3.702,5.557,4.078,4.082,5.05,2.993c1.805-2.021,5.142-2.172,5.804-2.181c0.646,0.01,3.967,0.162,5.77,2.181
		c0.973,1.089,1.35,2.564,1.114,4.412c-0.044,0.21-0.084,0.409-0.124,0.608c-0.188,0.942-0.367,1.832-1.014,3.907
		c-0.032,0.104-0.022,0.213,0.027,0.31c0.051,0.095,0.136,0.166,0.239,0.198c0.039,0.013,0.08,0.019,0.12,0.019
		c0.179,0,0.334-0.114,0.387-0.285c0.66-2.114,0.852-3.067,1.036-3.99c0.041-0.206,0.082-0.411,0.134-0.661
		c0.271-2.081-0.175-3.785-1.319-5.064C15.27,0.264,11.93,0.023,10.938,0l-0.221,0.001C9.74,0.025,6.399,0.271,4.45,2.447
		C3.305,3.726,2.861,5.43,3.136,7.543C3.182,7.761,3.223,7.966,3.265,8.173"/>
	<path clip-path="url(#SVGID_2_)" fill="#FFFFFF" d="M10.846,13.412c-1.899,0-3.794-2.694-3.825-5.44L7.018,7.747l0.107,0.001
		l0.223-0.014c1.907-0.116,3.375-0.798,4.362-2.028l0.182-0.226l0.183,0.224c0.479,0.584,1.279,1.365,2.373,1.764l0.209,0.076
		l0.017,0.382C14.663,10.749,12.808,13.412,10.846,13.412 M12.682,3.724c0.017-0.107-0.008-0.214-0.072-0.302
		c-0.063-0.088-0.158-0.146-0.264-0.163c-0.022-0.004-0.044-0.006-0.066-0.006c-0.195,0-0.368,0.147-0.398,0.342
		c-0.022,0.137-0.589,3.347-5.104,3.347c-0.257,0-0.526-0.01-0.831-0.033c-0.214,0-0.388,0.161-0.405,0.374
		C5.523,7.499,5.68,7.688,5.896,7.715L6.1,7.741h0.107l0.001,0.205c0.019,2.963,2.007,6.277,4.638,6.277
		c2.634,0,4.621-3.316,4.637-6.282l0.002-0.242l0.294,0.014c0.185-0.036,0.318-0.192,0.326-0.379C16.11,7.225,16.072,7.122,16,7.041
		c-0.073-0.08-0.174-0.126-0.281-0.131c-1.715-0.078-2.88-1.493-3.301-2.098l-0.076-0.109l0.054-0.121
		C12.613,4.091,12.683,3.726,12.682,3.724"/>
</g>
</svg>
