<?xml version="1.0" encoding="utf-8"?>
<!-- Generator: Adobe Illustrator 19.0.1, SVG Export Plug-In . SVG Version: 6.00 Build 0)  -->
<!DOCTYPE svg PUBLIC "-//W3C//DTD SVG 1.1//EN" "http://www.w3.org/Graphics/SVG/1.1/DTD/svg11.dtd">
<svg version="1.1" id="Layer_1" xmlns="http://www.w3.org/2000/svg" xmlns:xlink="http://www.w3.org/1999/xlink" x="0px" y="0px"
	 width="20px" height="12px" viewBox="0 0 20 12" style="enable-background:new 0 0 20 12;" xml:space="preserve">
<style type="text/css">
	.st0{fill:#FFFFFF;}
</style>
<path class="st0" d="M11.3,0.8l8,9.2c0.5,0.6,0.4,1.1,0.3,1.3s-0.4,0.6-1.2,0.6H1.5c-0.8,0-1.1-0.4-1.2-0.6S0.2,10.6,0.7,10l8-9.2
	C9,0.4,9.5,0.2,10,0.2c0,0,0,0,0,0C10.5,0.2,11,0.4,11.3,0.8z M1.5,10.9h16.9c0.1,0,0.2,0,0.2,0c0,0-0.1-0.1-0.1-0.2l-8-9.2
	c-0.2-0.2-0.3-0.3-0.6-0.3c0,0,0,0,0,0c-0.2,0-0.4,0.1-0.6,0.3l-8,9.2c-0.1,0.1-0.1,0.2-0.2,0.2C1.3,10.9,1.4,10.9,1.5,10.9z"/>
</svg>
