<?xml version="1.0" encoding="utf-8"?>
<!-- Generator: Adobe Illustrator 16.0.0, SVG Export Plug-In . SVG Version: 6.00 Build 0)  -->
<!DOCTYPE svg PUBLIC "-//W3C//DTD SVG 1.1//EN" "http://www.w3.org/Graphics/SVG/1.1/DTD/svg11.dtd">
<svg version="1.1" xmlns="http://www.w3.org/2000/svg" xmlns:xlink="http://www.w3.org/1999/xlink" x="0px" y="0px"
	 width="99.083px" height="61.1px" viewBox="0 0 99.083 61.1" enable-background="new 0 0 99.083 61.1" xml:space="preserve">
<g id="Layer_2" display="none">
	<rect x="-44.667" y="-34.4" display="inline" fill="#7A5656" width="207" height="116.667"/>
</g>
<g id="Layer_1">
	<g>
		<defs>
			<rect id="SVGID_1_" width="110.6" height="61.1"/>
		</defs>
		<clipPath id="SVGID_2_">
			<use xlink:href="#SVGID_1_"  overflow="visible"/>
		</clipPath>
		<g clip-path="url(#SVGID_2_)">
			<defs>
				<rect id="SVGID_3_" y="0.066" width="110.6" height="61.034"/>
			</defs>
			<clipPath id="SVGID_4_">
				<use xlink:href="#SVGID_3_"  overflow="visible"/>
			</clipPath>
			<polyline clip-path="url(#SVGID_4_)" fill="none" stroke="#FFFFFF" stroke-width="0.9486" points="35.597,40.667 0.95,40.667 
				0.95,2.767 0.95,0.567 13.549,0.567 98.32,0.567 98.32,40.667 67.094,40.667 			"/>
			<rect x="-5.799" y="-8.933" clip-path="url(#SVGID_4_)" fill="none" width="105.469" height="59"/>
		</g>
		<g clip-path="url(#SVGID_2_)">
			<g enable-background="new    ">
				<g>
					<defs>
						<rect id="SVGID_5_" x="7.936" y="4.967" width="95.179" height="17.22"/>
					</defs>
					<clipPath id="SVGID_6_">
						<use xlink:href="#SVGID_5_"  overflow="visible"/>
					</clipPath>
					<g clip-path="url(#SVGID_6_)" enable-background="new    ">
						<g>
							<defs>
								<rect id="SVGID_7_" x="7.936" y="4.967" width="8.246" height="17.22"/>
							</defs>
							<clipPath id="SVGID_8_">
								<use xlink:href="#SVGID_7_"  overflow="visible"/>
							</clipPath>
							<g clip-path="url(#SVGID_8_)">
								<path fill="#FFFFFF" d="M9.295,7.329c0-0.14,0.112-0.266,0.266-0.266h5.603c0.154,0,0.266,0.126,0.266,0.266v0.784
									c0,0.14-0.112,0.266-0.266,0.266h-4.427v2.858h3.74c0.14,0,0.266,0.126,0.266,0.266v0.784c0,0.154-0.126,0.266-0.266,0.266
									h-3.74v3.012h4.427c0.154,0,0.266,0.126,0.266,0.266v0.771c0,0.14-0.112,0.266-0.266,0.266H9.561
									c-0.154,0-0.266-0.126-0.266-0.266V7.329z"/>
							</g>
						</g>
					</g>
					<g clip-path="url(#SVGID_6_)" enable-background="new    ">
						<g>
							<defs>
								<rect id="SVGID_9_" x="16.236" y="4.967" width="8.512" height="17.22"/>
							</defs>
							<clipPath id="SVGID_10_">
								<use xlink:href="#SVGID_9_"  overflow="visible"/>
							</clipPath>
							<g clip-path="url(#SVGID_10_)">
								<path fill="#FFFFFF" d="M19.612,11.839l-2.773-4.384c-0.112-0.182,0-0.392,0.238-0.392h1.191
									c0.098,0,0.196,0.056,0.238,0.126l1.975,3.348h0.014l2.003-3.348c0.028-0.056,0.112-0.126,0.224-0.126h1.191
									c0.238,0,0.35,0.21,0.238,0.392l-2.773,4.384l2.872,4.637c0.112,0.196,0,0.392-0.238,0.392h-1.079
									c-0.112,0-0.21-0.07-0.238-0.126l-2.199-3.586h-0.028l-2.171,3.586c-0.042,0.056-0.126,0.126-0.238,0.126h-1.079
									c-0.252,0-0.364-0.21-0.252-0.392L19.612,11.839z"/>
							</g>
						</g>
					</g>
					<g clip-path="url(#SVGID_6_)" enable-background="new    ">
						<g>
							<defs>
								<rect id="SVGID_11_" x="25.236" y="4.967" width="8.316" height="17.22"/>
							</defs>
							<clipPath id="SVGID_12_">
								<use xlink:href="#SVGID_11_"  overflow="visible"/>
							</clipPath>
							<g clip-path="url(#SVGID_12_)">
								<path fill="#FFFFFF" d="M26.595,7.329c0-0.14,0.112-0.266,0.266-0.266h3.194c1.723,0,3.138,1.401,3.138,3.096
									c0,1.737-1.415,3.151-3.124,3.151h-2.031v3.292c0,0.14-0.126,0.266-0.266,0.266h-0.91c-0.154,0-0.266-0.126-0.266-0.266
									V7.329z M29.97,11.937c0.967,0,1.779-0.784,1.779-1.793c0-0.953-0.813-1.681-1.779-1.681h-1.933v3.474H29.97z"/>
							</g>
						</g>
					</g>
					<g clip-path="url(#SVGID_6_)" enable-background="new    ">
						<g>
							<defs>
								<rect id="SVGID_13_" x="33.736" y="4.967" width="6.986" height="17.22"/>
							</defs>
							<clipPath id="SVGID_14_">
								<use xlink:href="#SVGID_13_"  overflow="visible"/>
							</clipPath>
							<g clip-path="url(#SVGID_14_)">
								<path fill="#FFFFFF" d="M35.095,7.329c0-0.14,0.112-0.266,0.266-0.266h0.924c0.14,0,0.266,0.126,0.266,0.266v8.236h3.796
									c0.154,0,0.266,0.126,0.266,0.266v0.771c0,0.14-0.112,0.266-0.266,0.266h-4.987c-0.154,0-0.266-0.126-0.266-0.266V7.329z"/>
							</g>
						</g>
					</g>
					<g clip-path="url(#SVGID_6_)" enable-background="new    ">
						<g>
							<defs>
								<rect id="SVGID_15_" x="40.836" y="4.967" width="20.663" height="17.22"/>
							</defs>
							<clipPath id="SVGID_16_">
								<use xlink:href="#SVGID_15_"  overflow="visible"/>
							</clipPath>
							<g clip-path="url(#SVGID_16_)">
								<path fill="#FFFFFF" d="M46.509,6.922c2.802,0,5.043,2.255,5.043,5.057c0,2.802-2.241,5.029-5.043,5.029
									c-2.801,0-5.028-2.227-5.028-5.029C41.48,9.178,43.708,6.922,46.509,6.922z M46.509,15.607c2.003,0,3.642-1.625,3.642-3.628
									c0-1.989-1.639-3.656-3.642-3.656c-1.989,0-3.628,1.667-3.628,3.656C42.881,13.982,44.52,15.607,46.509,15.607z"/>
								<path fill="#FFFFFF" d="M53.549,7.329c0-0.14,0.112-0.266,0.266-0.266h3.81c1.681,0,3.054,1.331,3.054,2.998
									c0,1.289-0.854,2.353-2.073,2.843l1.919,3.558c0.098,0.182,0,0.406-0.238,0.406h-1.093c-0.111,0-0.195-0.07-0.224-0.126
									l-1.863-3.712h-2.115v3.572c0,0.14-0.126,0.266-0.266,0.266h-0.91c-0.154,0-0.266-0.126-0.266-0.266V7.329z M57.513,11.825
									c0.91,0,1.709-0.77,1.709-1.737c0-0.91-0.799-1.667-1.709-1.667H55.02v3.404H57.513z"/>
							</g>
						</g>
					</g>
					<g clip-path="url(#SVGID_6_)" enable-background="new    ">
						<g>
							<defs>
								<rect id="SVGID_17_" x="61.936" y="4.967" width="8.246" height="17.22"/>
							</defs>
							<clipPath id="SVGID_18_">
								<use xlink:href="#SVGID_17_"  overflow="visible"/>
							</clipPath>
							<g clip-path="url(#SVGID_18_)">
								<path fill="#FFFFFF" d="M63.294,7.329c0-0.14,0.112-0.266,0.267-0.266h5.603c0.154,0,0.267,0.126,0.267,0.266v0.784
									c0,0.14-0.112,0.266-0.267,0.266h-4.426v2.858h3.74c0.14,0,0.266,0.126,0.266,0.266v0.784c0,0.154-0.126,0.266-0.266,0.266
									h-3.74v3.012h4.426c0.154,0,0.267,0.126,0.267,0.266v0.771c0,0.14-0.112,0.266-0.267,0.266h-5.603
									c-0.154,0-0.267-0.126-0.267-0.266V7.329z"/>
							</g>
						</g>
					</g>
					<g clip-path="url(#SVGID_6_)" enable-background="new    ">
						<g>
							<defs>
								<rect id="SVGID_19_" x="100.036" y="4.967" width="3.079" height="17.22"/>
							</defs>
							<clipPath id="SVGID_20_">
								<use xlink:href="#SVGID_19_"  overflow="visible"/>
							</clipPath>
						</g>
					</g>
				</g>
			</g>
			<g enable-background="new    ">
				<g>
					<defs>
						<rect id="SVGID_21_" x="7.936" y="20.969" width="91.818" height="17.221"/>
					</defs>
					<clipPath id="SVGID_22_">
						<use xlink:href="#SVGID_21_"  overflow="visible"/>
					</clipPath>
					<g clip-path="url(#SVGID_22_)" enable-background="new    ">
						<g>
							<defs>
								<rect id="SVGID_23_" x="7.936" y="20.969" width="7.924" height="17.221"/>
							</defs>
							<clipPath id="SVGID_24_">
								<use xlink:href="#SVGID_23_"  overflow="visible"/>
							</clipPath>
							<g clip-path="url(#SVGID_24_)">
								<path fill="#FFFFFF" d="M9.295,23.331c0-0.14,0.112-0.266,0.266-0.266h5.603c0.154,0,0.266,0.126,0.266,0.266v0.784
									c0,0.14-0.112,0.266-0.266,0.266h-4.427v3.236h3.74c0.14,0,0.266,0.126,0.266,0.266v0.771c0,0.14-0.126,0.266-0.266,0.266
									h-3.74v3.684c0,0.141-0.126,0.267-0.266,0.267h-0.91c-0.154,0-0.266-0.126-0.266-0.267V23.331z"/>
							</g>
						</g>
					</g>
					<g clip-path="url(#SVGID_22_)" enable-background="new    ">
						<g>
							<defs>
								<rect id="SVGID_25_" x="16.036" y="20.969" width="6.986" height="17.221"/>
							</defs>
							<clipPath id="SVGID_26_">
								<use xlink:href="#SVGID_25_"  overflow="visible"/>
							</clipPath>
							<g clip-path="url(#SVGID_26_)">
								<path fill="#FFFFFF" d="M17.395,23.331c0-0.14,0.112-0.266,0.266-0.266h0.924c0.14,0,0.266,0.126,0.266,0.266v8.236h3.796
									c0.154,0,0.266,0.126,0.266,0.267v0.77c0,0.141-0.112,0.267-0.266,0.267h-4.987c-0.154,0-0.266-0.126-0.266-0.267V23.331z"
									/>
							</g>
						</g>
					</g>
					<g clip-path="url(#SVGID_22_)" enable-background="new    ">
						<g>
							<defs>
								<rect id="SVGID_27_" x="23.136" y="20.969" width="67.871" height="17.221"/>
							</defs>
							<clipPath id="SVGID_28_">
								<use xlink:href="#SVGID_27_"  overflow="visible"/>
							</clipPath>
							<g clip-path="url(#SVGID_28_)">
								<path fill="#FFFFFF" d="M28.809,22.924c2.802,0,5.043,2.255,5.043,5.057c0,2.802-2.241,5.028-5.043,5.028
									c-2.801,0-5.028-2.227-5.028-5.028C23.78,25.18,26.007,22.924,28.809,22.924z M28.809,31.609
									c2.003,0,3.642-1.625,3.642-3.628c0-1.989-1.639-3.656-3.642-3.656c-1.989,0-3.628,1.667-3.628,3.656
									C25.181,29.984,26.82,31.609,28.809,31.609z"/>
								<path fill="#FFFFFF" d="M40.163,22.924c2.802,0,5.043,2.255,5.043,5.057c0,2.802-2.241,5.028-5.043,5.028
									c-2.801,0-5.028-2.227-5.028-5.028C35.134,25.18,37.361,22.924,40.163,22.924z M40.163,31.609
									c2.003,0,3.642-1.625,3.642-3.628c0-1.989-1.639-3.656-3.642-3.656c-1.989,0-3.628,1.667-3.628,3.656
									C36.535,29.984,38.174,31.609,40.163,31.609z"/>
								<path fill="#FFFFFF" d="M47.202,23.331c0-0.14,0.112-0.266,0.266-0.266h3.81c1.681,0,3.054,1.331,3.054,2.998
									c0,1.289-0.854,2.353-2.073,2.843l1.919,3.558c0.098,0.182,0,0.406-0.238,0.406h-1.092c-0.112,0-0.196-0.07-0.224-0.126
									l-1.863-3.712h-2.115v3.571c0,0.141-0.126,0.267-0.266,0.267h-0.91c-0.154,0-0.266-0.126-0.266-0.267V23.331z
									 M51.166,27.827c0.911,0,1.709-0.77,1.709-1.737c0-0.91-0.798-1.667-1.709-1.667h-2.493v3.404H51.166z"/>
								<path fill="#FFFFFF" d="M56.512,23.331c0-0.14,0.112-0.266,0.267-0.266h3.193c1.724,0,3.138,1.401,3.138,3.096
									c0,1.737-1.414,3.151-3.123,3.151h-2.031v3.292c0,0.141-0.126,0.267-0.267,0.267h-0.91c-0.154,0-0.267-0.126-0.267-0.267
									V23.331z M59.888,27.939c0.967,0,1.779-0.784,1.779-1.793c0-0.953-0.813-1.681-1.779-1.681h-1.933v3.474H59.888z"/>
								<path fill="#FFFFFF" d="M64.758,23.331c0-0.14,0.112-0.266,0.267-0.266h0.925c0.14,0,0.266,0.126,0.266,0.266v8.236h3.796
									c0.154,0,0.267,0.126,0.267,0.267v0.77c0,0.141-0.112,0.267-0.267,0.267h-4.986c-0.154,0-0.267-0.126-0.267-0.267V23.331z"
									/>
								<path fill="#FFFFFF" d="M70.567,32.505l4.301-9.427c0.042-0.084,0.168-0.154,0.237-0.154h0.141
									c0.07,0,0.196,0.07,0.238,0.154l4.272,9.427c0.084,0.183-0.028,0.364-0.238,0.364h-0.883c-0.168,0-0.267-0.084-0.322-0.21
									l-0.868-1.919h-4.581c-0.279,0.645-0.574,1.274-0.854,1.919c-0.042,0.098-0.153,0.21-0.321,0.21h-0.883
									C70.596,32.87,70.483,32.688,70.567,32.505z M76.913,29.536l-1.724-3.838H75.12l-1.709,3.838H76.913z"/>
								<path fill="#FFFFFF" d="M81.291,23.176c0-0.14,0.126-0.252,0.267-0.252h0.35l6.08,7.032h0.014v-6.625
									c0-0.14,0.112-0.266,0.267-0.266h0.896c0.14,0,0.266,0.126,0.266,0.266v9.427c0,0.141-0.126,0.252-0.266,0.252H88.8
									l-6.08-7.228h-0.014v6.821c0,0.141-0.112,0.267-0.266,0.267h-0.883c-0.141,0-0.267-0.126-0.267-0.267V23.176z"/>
							</g>
						</g>
					</g>
				</g>
			</g>
		</g>
		<g clip-path="url(#SVGID_2_)">
			<defs>
				<rect id="SVGID_29_" x="-23.25" y="0.066" width="133.85" height="61.034"/>
			</defs>
			<clipPath id="SVGID_30_">
				<use xlink:href="#SVGID_29_"  overflow="visible"/>
			</clipPath>
			<g clip-path="url(#SVGID_30_)" enable-background="new    ">
				<g>
					<defs>
						<rect id="SVGID_31_" x="100.042" y="20.969" width="6.58" height="17.221"/>
					</defs>
					<clipPath id="SVGID_32_">
						<use xlink:href="#SVGID_31_"  overflow="visible"/>
					</clipPath>
					<g clip-path="url(#SVGID_32_)" enable-background="new    ">
						<g>
							<defs>
								<rect id="SVGID_33_" x="100.042" y="20.969" width="5.459" height="17.221"/>
							</defs>
							<clipPath id="SVGID_34_">
								<use xlink:href="#SVGID_33_"  overflow="visible"/>
							</clipPath>
							<g clip-path="url(#SVGID_34_)">
								<text transform="matrix(1 0 0 1 100.043 32.8696)"><tspan x="0" y="0" fill="#FFFFFF" font-family="'BrandonGrotesque-Medium'" font-size="14" letter-spacing="-1">    </tspan><tspan x="4.423" y="0" fill="#FFFFFF" font-family="'BrandonGrotesque-Medium'" font-size="14"> </tspan></text>
							</g>
						</g>
					</g>
					<g clip-path="url(#SVGID_32_)" enable-background="new    ">
						<g>
							<defs>
								<rect id="SVGID_35_" x="103.542" y="20.969" width="3.08" height="17.221"/>
							</defs>
							<clipPath id="SVGID_36_">
								<use xlink:href="#SVGID_35_"  overflow="visible"/>
							</clipPath>
							<g clip-path="url(#SVGID_36_)">
								<text transform="matrix(1 0 0 1 103.543 32.8696)" fill="#FFFFFF" font-family="'BrandonGrotesque-Medium'" font-size="14"> </text>
							</g>
						</g>
					</g>
				</g>
			</g>
			<path clip-path="url(#SVGID_30_)" fill="#FFFFFF" d="M40.801,54.167l5.9,5.9c1.2-0.7,6-3.5,9.4-6.8c0.8-0.8,0.2-2.101-0.3-2.7
				l-2.101,2.1l-0.7-0.699l2.5-2.5c0.2-0.2-0.199-1.101-1-2l-2.199,2.199l-0.7-0.6l2.6-2.6c0.2-0.2-0.2-1-1.1-1.9l-3,3l-0.601-0.6
				l5.601-5.601c0.7-0.7,0.6-1.1,0.1-1.6s-1-0.5-1.6,0.1l-8.5,8.5l-0.6-0.6l1.5-1.5c0.2-1.101,0.3-2.9-0.2-3.4
				c-0.1-0.1-0.3-0.2-0.5-0.2c-1,0-1.2,0.7-1.4,2.801c-0.1,1.399-0.3,3.199-1.1,5.1C42.201,51.367,41.201,53.367,40.801,54.167
				 M46.501,61.167l-6.8-6.8l0.2-0.3c0,0,1.5-2.8,2.1-4.1c0.8-1.7,0.9-3.4,1-4.801c0.1-1,0.2-1.8,0.4-2.399c0.3-0.8,0.9-1.2,1.8-1.2
				c0.5,0,0.9,0.2,1.2,0.5c0.7,0.7,0.7,2,0.7,3l5.9-5.9c1-1,2-1,2.9-0.1s0.9,1.9-0.1,2.9l-2,2c0.699,0.8,1.6,2,1.3,2.8
				c0.8,0.8,1.7,2.1,1.399,3c0.2,0.3,0.5,0.7,0.7,1.2c0.5,1.199,0.4,2.199-0.399,2.899c-3.9,3.9-9.701,7-9.9,7.2L46.501,61.167z"/>
		</g>
		<g clip-path="url(#SVGID_2_)">
			<g opacity="0.93">
				<g>
					<defs>
						<rect id="SVGID_37_" x="-5.799" y="-9" width="117.2" height="59"/>
					</defs>
					<clipPath id="SVGID_38_">
						<use xlink:href="#SVGID_37_"  overflow="visible"/>
					</clipPath>
				</g>
			</g>
		</g>
		<g clip-path="url(#SVGID_2_)">
			<defs>
				<rect id="SVGID_39_" x="-0.5" width="111.1" height="61.1"/>
			</defs>
			<clipPath id="SVGID_40_">
				<use xlink:href="#SVGID_39_"  overflow="visible"/>
			</clipPath>
			<g clip-path="url(#SVGID_40_)" enable-background="new    ">
				<g>
					<defs>
						<rect id="SVGID_41_" x="7.936" y="4.901" width="94.146" height="17.22"/>
					</defs>
					<clipPath id="SVGID_42_">
						<use xlink:href="#SVGID_41_"  overflow="visible"/>
					</clipPath>
					<g clip-path="url(#SVGID_42_)" enable-background="new    ">
						<g>
							<defs>
								<rect id="SVGID_43_" x="7.936" y="4.901" width="8.246" height="17.22"/>
							</defs>
							<clipPath id="SVGID_44_">
								<use xlink:href="#SVGID_43_"  overflow="visible"/>
							</clipPath>
						</g>
					</g>
					<g clip-path="url(#SVGID_42_)" enable-background="new    ">
						<g>
							<defs>
								<rect id="SVGID_45_" x="16.236" y="4.901" width="8.512" height="17.22"/>
							</defs>
							<clipPath id="SVGID_46_">
								<use xlink:href="#SVGID_45_"  overflow="visible"/>
							</clipPath>
						</g>
					</g>
					<g clip-path="url(#SVGID_42_)" enable-background="new    ">
						<g>
							<defs>
								<rect id="SVGID_47_" x="25.236" y="4.901" width="8.316" height="17.22"/>
							</defs>
							<clipPath id="SVGID_48_">
								<use xlink:href="#SVGID_47_"  overflow="visible"/>
							</clipPath>
						</g>
					</g>
					<g clip-path="url(#SVGID_42_)" enable-background="new    ">
						<g>
							<defs>
								<rect id="SVGID_49_" x="33.736" y="4.901" width="6.986" height="17.22"/>
							</defs>
							<clipPath id="SVGID_50_">
								<use xlink:href="#SVGID_49_"  overflow="visible"/>
							</clipPath>
						</g>
					</g>
					<g clip-path="url(#SVGID_42_)" enable-background="new    ">
						<g>
							<defs>
								<rect id="SVGID_51_" x="40.836" y="4.901" width="20.663" height="17.22"/>
							</defs>
							<clipPath id="SVGID_52_">
								<use xlink:href="#SVGID_51_"  overflow="visible"/>
							</clipPath>
						</g>
					</g>
					<g clip-path="url(#SVGID_42_)" enable-background="new    ">
						<g>
							<defs>
								<rect id="SVGID_53_" x="61.936" y="4.901" width="8.246" height="17.22"/>
							</defs>
							<clipPath id="SVGID_54_">
								<use xlink:href="#SVGID_53_"  overflow="visible"/>
							</clipPath>
						</g>
					</g>
					<g clip-path="url(#SVGID_42_)" enable-background="new    ">
						<g>
							<defs>
								<rect id="SVGID_55_" x="68.236" y="4.901" width="3.079" height="17.22"/>
							</defs>
							<clipPath id="SVGID_56_">
								<use xlink:href="#SVGID_55_"  overflow="visible"/>
							</clipPath>
						</g>
					</g>
					<g clip-path="url(#SVGID_42_)" enable-background="new    ">
						<g>
							<defs>
								<rect id="SVGID_57_" x="75.236" y="4.901" width="6.859" height="17.22"/>
							</defs>
							<clipPath id="SVGID_58_">
								<use xlink:href="#SVGID_57_"  overflow="visible"/>
							</clipPath>
						</g>
					</g>
					<g clip-path="url(#SVGID_42_)" enable-background="new    ">
						<g>
							<defs>
								<rect id="SVGID_59_" x="82.936" y="4.901" width="10.752" height="17.22"/>
							</defs>
							<clipPath id="SVGID_60_">
								<use xlink:href="#SVGID_59_"  overflow="visible"/>
							</clipPath>
						</g>
					</g>
					<g clip-path="url(#SVGID_42_)" enable-background="new    ">
						<g>
							<defs>
								<rect id="SVGID_61_" x="93.836" y="4.901" width="8.246" height="17.22"/>
							</defs>
							<clipPath id="SVGID_62_">
								<use xlink:href="#SVGID_61_"  overflow="visible"/>
							</clipPath>
						</g>
					</g>
					<g clip-path="url(#SVGID_42_)" enable-background="new    ">
						<g>
							<defs>
								<rect id="SVGID_63_" x="94.036" y="4.901" width="3.079" height="17.22"/>
							</defs>
							<clipPath id="SVGID_64_">
								<use xlink:href="#SVGID_63_"  overflow="visible"/>
							</clipPath>
						</g>
					</g>
				</g>
			</g>
			<g clip-path="url(#SVGID_40_)" enable-background="new    ">
				<g>
					<defs>
						<rect id="SVGID_65_" x="3.936" y="20.903" width="103.049" height="17.22"/>
					</defs>
					<clipPath id="SVGID_66_">
						<use xlink:href="#SVGID_65_"  overflow="visible"/>
					</clipPath>
					<g clip-path="url(#SVGID_66_)" enable-background="new    ">
						<g>
							<defs>
								<rect id="SVGID_67_" x="3.936" y="20.903" width="103.049" height="17.22"/>
							</defs>
							<clipPath id="SVGID_68_">
								<use xlink:href="#SVGID_67_"  overflow="visible"/>
							</clipPath>
						</g>
					</g>
					<g clip-path="url(#SVGID_66_)" enable-background="new    ">
						<g>
							<defs>
								<polygon id="SVGID_69_" points="14.036,38.123 14.036,38.123 14.036,20.903 								"/>
							</defs>
							<clipPath id="SVGID_70_">
								<use xlink:href="#SVGID_69_"  overflow="visible"/>
							</clipPath>
						</g>
					</g>
					<g clip-path="url(#SVGID_66_)" enable-background="new    ">
						<g>
							<defs>
								<polygon id="SVGID_71_" points="21.136,38.123 21.136,38.123 21.136,20.903 								"/>
							</defs>
							<clipPath id="SVGID_72_">
								<use xlink:href="#SVGID_71_"  overflow="visible"/>
							</clipPath>
						</g>
					</g>
					<g clip-path="url(#SVGID_66_)" enable-background="new    ">
						<g>
							<defs>
								<polygon id="SVGID_73_" points="90.236,38.123 90.236,38.123 90.236,20.903 								"/>
							</defs>
							<clipPath id="SVGID_74_">
								<use xlink:href="#SVGID_73_"  overflow="visible"/>
							</clipPath>
						</g>
					</g>
				</g>
			</g>
		</g>
		<g clip-path="url(#SVGID_2_)">
			<defs>
				<rect id="SVGID_75_" x="-2.083" width="112.683" height="61.1"/>
			</defs>
			<clipPath id="SVGID_76_">
				<use xlink:href="#SVGID_75_"  overflow="visible"/>
			</clipPath>
			<g opacity="0.93" clip-path="url(#SVGID_76_)">
				<g>
					<defs>
						<rect id="SVGID_77_" x="-8.972" y="-9" width="120.498" height="59"/>
					</defs>
					<clipPath id="SVGID_78_">
						<use xlink:href="#SVGID_77_"  overflow="visible"/>
					</clipPath>
				</g>
			</g>
		</g>
		<g clip-path="url(#SVGID_2_)">
			<defs>
				<rect id="SVGID_79_" x="-5.167" width="115.766" height="61.1"/>
			</defs>
			<clipPath id="SVGID_80_">
				<use xlink:href="#SVGID_79_"  overflow="visible"/>
			</clipPath>
			<g clip-path="url(#SVGID_80_)" enable-background="new    ">
				<g>
					<defs>
						<rect id="SVGID_81_" x="2.264" y="4.901" width="100.534" height="17.22"/>
					</defs>
					<clipPath id="SVGID_82_">
						<use xlink:href="#SVGID_81_"  overflow="visible"/>
					</clipPath>
					<g clip-path="url(#SVGID_82_)" enable-background="new    ">
						<g>
							<defs>
								<rect id="SVGID_83_" x="2.264" y="4.901" width="8.71" height="17.22"/>
							</defs>
							<clipPath id="SVGID_84_">
								<use xlink:href="#SVGID_83_"  overflow="visible"/>
							</clipPath>
						</g>
					</g>
					<g clip-path="url(#SVGID_82_)" enable-background="new    ">
						<g>
							<defs>
								<rect id="SVGID_85_" x="11.031" y="4.901" width="8.991" height="17.22"/>
							</defs>
							<clipPath id="SVGID_86_">
								<use xlink:href="#SVGID_85_"  overflow="visible"/>
							</clipPath>
						</g>
					</g>
					<g clip-path="url(#SVGID_82_)" enable-background="new    ">
						<g>
							<defs>
								<rect id="SVGID_87_" x="20.537" y="4.901" width="8.784" height="17.22"/>
							</defs>
							<clipPath id="SVGID_88_">
								<use xlink:href="#SVGID_87_"  overflow="visible"/>
							</clipPath>
						</g>
					</g>
					<g clip-path="url(#SVGID_82_)" enable-background="new    ">
						<g>
							<defs>
								<rect id="SVGID_89_" x="29.516" y="4.901" width="7.378" height="17.22"/>
							</defs>
							<clipPath id="SVGID_90_">
								<use xlink:href="#SVGID_89_"  overflow="visible"/>
							</clipPath>
						</g>
					</g>
					<g clip-path="url(#SVGID_82_)" enable-background="new    ">
						<g>
							<defs>
								<rect id="SVGID_91_" x="37.015" y="4.901" width="21.827" height="17.22"/>
							</defs>
							<clipPath id="SVGID_92_">
								<use xlink:href="#SVGID_91_"  overflow="visible"/>
							</clipPath>
						</g>
					</g>
					<g clip-path="url(#SVGID_82_)" enable-background="new    ">
						<g>
							<defs>
								<rect id="SVGID_93_" x="59.302" y="4.901" width="8.71" height="17.22"/>
							</defs>
							<clipPath id="SVGID_94_">
								<use xlink:href="#SVGID_93_"  overflow="visible"/>
							</clipPath>
						</g>
					</g>
					<g clip-path="url(#SVGID_82_)" enable-background="new    ">
						<g>
							<defs>
								<rect id="SVGID_95_" x="68.069" y="4.901" width="3.253" height="17.22"/>
							</defs>
							<clipPath id="SVGID_96_">
								<use xlink:href="#SVGID_95_"  overflow="visible"/>
							</clipPath>
						</g>
					</g>
					<g clip-path="url(#SVGID_82_)" enable-background="new    ">
						<g>
							<defs>
								<rect id="SVGID_97_" x="73.352" y="4.901" width="7.245" height="17.22"/>
							</defs>
							<clipPath id="SVGID_98_">
								<use xlink:href="#SVGID_97_"  overflow="visible"/>
							</clipPath>
						</g>
					</g>
					<g clip-path="url(#SVGID_82_)" enable-background="new    ">
						<g>
							<defs>
								<rect id="SVGID_99_" x="92.997" y="4.901" width="8.71" height="17.22"/>
							</defs>
							<clipPath id="SVGID_100_">
								<use xlink:href="#SVGID_99_"  overflow="visible"/>
							</clipPath>
						</g>
					</g>
					<g clip-path="url(#SVGID_82_)" enable-background="new    ">
						<g>
							<defs>
								<rect id="SVGID_101_" x="99.546" y="4.901" width="3.252" height="17.22"/>
							</defs>
							<clipPath id="SVGID_102_">
								<use xlink:href="#SVGID_101_"  overflow="visible"/>
							</clipPath>
						</g>
					</g>
				</g>
			</g>
			<g clip-path="url(#SVGID_80_)" enable-background="new    ">
				<g>
					<defs>
						<rect id="SVGID_103_" x="2.264" y="20.902" width="89.043" height="17.22"/>
					</defs>
					<clipPath id="SVGID_104_">
						<use xlink:href="#SVGID_103_"  overflow="visible"/>
					</clipPath>
					<g clip-path="url(#SVGID_104_)" enable-background="new    ">
						<g>
							<defs>
								<rect id="SVGID_105_" x="2.264" y="20.902" width="83.282" height="17.22"/>
							</defs>
							<clipPath id="SVGID_106_">
								<use xlink:href="#SVGID_105_"  overflow="visible"/>
							</clipPath>
						</g>
					</g>
					<g clip-path="url(#SVGID_104_)" enable-background="new    ">
						<g>
							<defs>
								<polygon id="SVGID_107_" points="10.82,38.123 10.82,38.123 10.82,20.902 								"/>
							</defs>
							<clipPath id="SVGID_108_">
								<use xlink:href="#SVGID_107_"  overflow="visible"/>
							</clipPath>
						</g>
					</g>
					<g clip-path="url(#SVGID_104_)" enable-background="new    ">
						<g>
							<defs>
								<polygon id="SVGID_109_" points="18.319,38.123 18.319,38.123 18.319,20.902 								"/>
							</defs>
							<clipPath id="SVGID_110_">
								<use xlink:href="#SVGID_109_"  overflow="visible"/>
							</clipPath>
						</g>
					</g>
					<g clip-path="url(#SVGID_104_)" enable-background="new    ">
						<g>
							<defs>
								<polygon id="SVGID_111_" points="91.307,38.123 91.307,38.123 91.307,20.902 								"/>
							</defs>
							<clipPath id="SVGID_112_">
								<use xlink:href="#SVGID_111_"  overflow="visible"/>
							</clipPath>
						</g>
					</g>
				</g>
			</g>
		</g>
	</g>
</g>
</svg>
