<?xml version="1.0" encoding="utf-8"?>
<!-- Generator: Adobe Illustrator 19.2.1, SVG Export Plug-In . SVG Version: 6.00 Build 0)  -->
<svg version="1.1" id="Layer_1" xmlns="http://www.w3.org/2000/svg" xmlns:xlink="http://www.w3.org/1999/xlink" x="0px" y="0px"
	 viewBox="0 0 25.2 12.1" style="enable-background:new 0 0 25.2 12.1;" xml:space="preserve">
<style type="text/css">
	.st0{display:none;}
	.st1{display:inline;fill:#DD1D1D;stroke:#000000;stroke-miterlimit:10;}
	.st2{fill:#FFFFFF;}
</style>
<g id="Layer_2_1_" class="st0">
	<rect x="-120.5" y="-29" class="st1" width="137.8" height="94.3"/>
</g>
<g>
	<path class="st2" d="M25.1,10c-0.4,0.4-0.8,0.8-1.1,1.3c-1.2-1.5-2.6-2.8-4.2-4c-0.1,0.1-0.3,0.2-0.4,0.3c-1.6,1.4-3.3,2.6-5.3,3.4
		c-2.8,1.1-5.6,0.9-8.3-0.4c-2.2-1-4.1-2.5-5.7-4.3c0,0,0,0-0.1,0c0,0,0-0.1,0-0.1c0.7-0.9,1.5-1.7,2.4-2.5c1.5-1.2,3.1-2.3,5-2.9
		c2.6-0.8,5-0.6,7.4,0.6c1.9,0.9,3.5,2.1,4.9,3.6c1.6-1.1,3-2.5,4.3-4c0.4,0.4,0.8,0.8,1.1,1.2c0,0,0,0,0,0c-0.9,1.1-1.9,2.1-3,3
		c-0.4,0.3-0.7,0.6-1.1,0.9c0.1,0.1,0.2,0.2,0.3,0.3c0.8,0.7,1.7,1.5,2.5,2.2C24.3,9,24.7,9.5,25.1,10C25.1,10,25.1,10,25.1,10z
		 M18.6,6.2C18.5,6.1,18.5,6,18.4,6c0,0-0.1-0.1-0.1-0.1c-1.2-1.2-2.5-2.2-4-3c-2.1-1-4.2-1.3-6.4-0.6c-2.2,0.8-4,2.2-5.7,3.8
		c0.1,0.1,0.1,0.1,0.2,0.2C3.6,7.5,5,8.5,6.6,9.2C8.3,10,10,10.3,11.8,10C14.5,9.5,16.6,8,18.6,6.2z"/>
	<path class="st2" d="M5.5,4.8c0.5,0,0.9,0.4,0.9,0.9c0,0.5-0.4,0.9-0.9,0.9C5,6.6,4.6,6.2,4.6,5.7C4.6,5.2,5,4.8,5.5,4.8z"/>
</g>
</svg>
