<?xml version="1.0" encoding="utf-8"?>
<!-- Generator: Adobe Illustrator 16.0.0, SVG Export Plug-In . SVG Version: 6.00 Build 0)  -->
<!DOCTYPE svg PUBLIC "-//W3C//DTD SVG 1.1//EN" "http://www.w3.org/Graphics/SVG/1.1/DTD/svg11.dtd">
<svg version="1.1" id="Layer_1" xmlns="http://www.w3.org/2000/svg" xmlns:xlink="http://www.w3.org/1999/xlink" x="0px" y="0px"
	 width="25.165px" height="25.166px" viewBox="0 0 25.165 25.166" enable-background="new 0 0 25.165 25.166" xml:space="preserve">
<g>
	<g>
		<defs>
			<rect id="SVGID_1_" width="25.165" height="25.166"/>
		</defs>
		<clipPath id="SVGID_2_">
			<use xlink:href="#SVGID_1_"  overflow="visible"/>
		</clipPath>
		<path clip-path="url(#SVGID_2_)" fill="#FFFFFF" d="M20.948,2.792l1.426,1.425l1.299-1.298l-1.426-1.425L20.948,2.792z
			 M17.243,0.847c-0.365,0-0.707,0.141-0.963,0.396l-0.07,0.071c-0.53,0.53-0.53,1.392,0,1.922l5.72,5.72
			c0.245,0.246,0.597,0.387,0.962,0.387s0.716-0.141,0.961-0.387l0.07-0.07c0.256-0.255,0.396-0.597,0.396-0.961
			c0-0.365-0.141-0.706-0.396-0.962l-5.719-5.72C17.947,0.988,17.605,0.847,17.243,0.847 M12.617,1.418
			c-0.364,0-0.707,0.141-0.961,0.396l-0.071,0.07c-0.255,0.256-0.396,0.598-0.396,0.962c0,0.364,0.141,0.706,0.396,0.961
			l9.774,9.774c0.257,0.255,0.599,0.396,0.962,0.396c0.364,0,0.706-0.143,0.961-0.396l0.07-0.07c0.256-0.255,0.396-0.597,0.396-0.96
			c0-0.365-0.142-0.707-0.396-0.962l-9.771-9.774C13.322,1.559,12.981,1.418,12.617,1.418 M22.32,14.824
			c-0.591,0-1.146-0.229-1.562-0.644l-9.773-9.774c-0.415-0.416-0.644-0.969-0.644-1.56c0-0.591,0.229-1.145,0.645-1.561l0.07-0.069
			c0.415-0.416,0.969-0.645,1.561-0.645c0.59,0,1.145,0.229,1.559,0.645l0.746,0.745l0.201-0.504c0.11-0.28,0.273-0.53,0.485-0.742
			l0.072-0.071C16.097,0.228,16.65,0,17.243,0c0.59,0,1.144,0.228,1.559,0.644l1.549,1.549l1.597-1.597
			c0.08-0.08,0.187-0.124,0.3-0.124c0.112,0,0.221,0.044,0.301,0.124L24.57,2.62c0.08,0.08,0.124,0.187,0.124,0.299
			c0,0.114-0.044,0.22-0.124,0.3l-1.597,1.597l1.548,1.548c0.416,0.416,0.646,0.97,0.646,1.561c0,0.591-0.229,1.144-0.646,1.56
			l-0.069,0.07c-0.211,0.211-0.461,0.374-0.744,0.486l-0.504,0.2l0.748,0.748c0.414,0.416,0.645,0.97,0.645,1.561
			c0,0.59-0.229,1.145-0.645,1.559l-0.07,0.072C23.465,14.597,22.913,14.824,22.32,14.824"/>
	</g>
	<g>
		<defs>
			<rect id="SVGID_3_" width="25.165" height="25.166"/>
		</defs>
		<clipPath id="SVGID_4_">
			<use xlink:href="#SVGID_3_"  overflow="visible"/>
		</clipPath>
		<path clip-path="url(#SVGID_4_)" fill="#FFFFFF" d="M1.495,22.245L2.92,23.67l1.296-1.296l-1.425-1.425L1.495,22.245z
			 M2.846,11.188c-0.365,0-0.706,0.141-0.962,0.396l-0.071,0.071c-0.255,0.255-0.395,0.597-0.395,0.961
			c0,0.365,0.14,0.706,0.395,0.962l9.775,9.774c0.246,0.244,0.597,0.387,0.961,0.387c0.366,0,0.716-0.143,0.962-0.387l0.069-0.07
			c0.53-0.53,0.53-1.395,0-1.924l-9.773-9.774C3.552,11.329,3.21,11.188,2.846,11.188 M2.275,15.813
			c-0.365,0-0.706,0.141-0.962,0.396l-0.069,0.069c-0.256,0.257-0.397,0.599-0.397,0.963c0,0.365,0.141,0.706,0.396,0.962
			l5.719,5.72c0.246,0.245,0.597,0.387,0.962,0.387c0.366,0,0.716-0.142,0.962-0.387l0.069-0.07
			c0.256-0.256,0.397-0.598,0.397-0.961c0-0.365-0.14-0.707-0.396-0.963l-5.719-5.72C2.981,15.954,2.64,15.813,2.275,15.813
			 M7.924,25.166c-0.591,0-1.145-0.229-1.56-0.646l-1.549-1.549L3.22,24.567c-0.08,0.08-0.187,0.125-0.3,0.125
			c-0.113,0-0.219-0.045-0.299-0.123l-2.025-2.024c-0.078-0.079-0.124-0.188-0.124-0.299c0-0.112,0.046-0.222,0.125-0.299
			l1.596-1.599L0.644,18.8C0.229,18.386,0,17.832,0,17.241c0-0.59,0.229-1.146,0.644-1.561l0.07-0.07
			c0.211-0.211,0.461-0.375,0.744-0.486l0.504-0.2l-0.747-0.748c-0.416-0.415-0.644-0.969-0.644-1.56
			c0-0.591,0.228-1.144,0.644-1.56l0.071-0.071c0.415-0.415,0.969-0.644,1.56-0.644c0.59,0,1.145,0.229,1.56,0.645l3.576,3.576
			l5.138-5.14l0.6,0.599L8.58,15.16l1.425,1.425l5.14-5.139l0.6,0.599l-5.14,5.14l3.576,3.575c0.86,0.861,0.86,2.261,0,3.121
			l-0.07,0.07c-0.415,0.416-0.97,0.646-1.561,0.646c-0.59,0-1.145-0.229-1.56-0.646l-0.748-0.747l-0.2,0.504
			c-0.112,0.282-0.275,0.533-0.486,0.743l-0.07,0.069C9.069,24.938,8.515,25.166,7.924,25.166"/>
	</g>
</g>
</svg>
