<?xml version="1.0" encoding="utf-8"?>
<!-- Generator: Adobe Illustrator 16.0.0, SVG Export Plug-In . SVG Version: 6.00 Build 0)  -->
<!DOCTYPE svg PUBLIC "-//W3C//DTD SVG 1.1//EN" "http://www.w3.org/Graphics/SVG/1.1/DTD/svg11.dtd">
<svg version="1.1" xmlns="http://www.w3.org/2000/svg" xmlns:xlink="http://www.w3.org/1999/xlink" x="0px" y="0px"
	 width="21.742px" height="23.896px" viewBox="0 0 21.742 23.896" enable-background="new 0 0 21.742 23.896" xml:space="preserve">
<g id="Layer_2" display="none">
	
		<rect x="-19.379" y="-9.236" display="inline" fill="#F45B5B" stroke="#FFFFFF" stroke-miterlimit="10" width="59.75" height="41.875"/>
</g>
<g id="Layer_1">
	<g>
		<g>
			<path fill="#FFFFFF" d="M8.99,10.002v9.957H8.289v-9.957H8.99 M9.74,9.252H7.539v11.457H9.74V9.252L9.74,9.252z"/>
		</g>
		<g>
			<path fill="#FFFFFF" d="M13.455,10.002v9.957h-0.702v-9.957H13.455 M14.205,9.252h-2.202v11.457h2.202V9.252L14.205,9.252z"/>
		</g>
		<g>
			<path fill="#FFFFFF" d="M4.771,10.002v9.957H4.069v-9.957H4.771 M5.521,9.252H3.319v11.457h2.202V9.252L5.521,9.252z"/>
		</g>
		<g>
			<path fill="#FFFFFF" d="M17.673,10.002v9.957h-0.702v-9.957H17.673 M18.423,9.252h-2.202v11.457h2.202V9.252L18.423,9.252z"/>
		</g>
		<g>
			<rect x="2.372" y="7.213" fill="#FFFFFF" width="17" height="1.427"/>
		</g>
		<g>
			<path fill="#FFFFFF" d="M10.871,1.893l6.668,3.953H4.205L10.871,1.893 M10.871,0.731L0.557,6.846h20.629L10.871,0.731
				L10.871,0.731z"/>
		</g>
		<rect x="1.902" y="21.033" fill="#FFFFFF" width="17.938" height="0.896"/>
		<rect x="0.476" y="22.297" fill="#FFFFFF" width="20.792" height="0.896"/>
	</g>
</g>
<g id="Layer_3" display="none">
</g>
</svg>
