<?xml version="1.0" encoding="utf-8"?>
<!-- Generator: Adobe Illustrator 19.2.1, SVG Export Plug-In . SVG Version: 6.00 Build 0)  -->
<svg version="1.1" id="Layer_1" xmlns="http://www.w3.org/2000/svg" xmlns:xlink="http://www.w3.org/1999/xlink" x="0px" y="0px"
	 viewBox="0 0 49.9 22.5" style="enable-background:new 0 0 49.9 22.5;" xml:space="preserve">
<style type="text/css">
	.st0{display:none;}
	.st1{display:inline;}
	.st2{clip-path:url(#SVGID_2_);fill:none;stroke:#FFFFFF;stroke-width:0.75;stroke-miterlimit:10;}
	.st3{clip-path:url(#SVGID_4_);fill:none;stroke:#FFFFFF;stroke-width:1.115;stroke-miterlimit:10;}
</style>
<g id="Layer_1_1_" class="st0">
	<g class="st1">
		<g>
			<g>
				<g>
					<defs>
						<rect id="SVGID_1_" x="-34" y="19.5" width="49.9" height="22.5"/>
					</defs>
					<clipPath id="SVGID_2_">
						<use xlink:href="#SVGID_1_"  style="overflow:visible;"/>
					</clipPath>
					<path class="st2" d="M-12.8,28.3l0.3-6.2c0.1,0,0.3,0,0.4,0c6.4,0,10.8,4.3,12.3,6l-0.9,0.4L-12.8,28.3z M-23,27.7
						c2.1-2,5.6-4.7,9.6-5.6l-0.3,5.9l-8.8-0.1L-23,27.7z M-23.6,36.3c0.8,0,1.4,0.6,1.4,1.2c0,0.7-0.6,1.2-1.4,1.2
						s-1.4-0.6-1.4-1.2C-24.9,36.9-24.3,36.3-23.6,36.3z M4.9,36.3c0.8,0,1.4,0.6,1.4,1.2c0,0.7-0.6,1.2-1.4,1.2s-1.4-0.6-1.4-1.2
						C3.5,36.9,4.1,36.3,4.9,36.3z M-23.6,33.7c-2.3,0-4.1,1.8-4.1,4s1.8,4,4.1,4s4.1-1.8,4.1-4S-21.3,33.7-23.6,33.7z M-33.6,36.4
						c0,1.5,0.7,1.6,2.3,2.1h2.4c-0.1-0.3-0.1-0.6-0.1-1c0-3,2.5-5.4,5.6-5.4s5.6,2.4,5.6,5.4c0,0.3,0,0.7-0.1,1h10.3h7.1
						c-0.1-0.3-0.1-0.7-0.1-1c0-3,2.5-5.4,5.6-5.4s5.6,2.4,5.6,5.4c0,0.4,0,0.7-0.1,1h1.3c0,0,3.1-0.8,3.6-1.4
						c0.5-0.6,0.4-1.7-1.1-2.4c-1.4-0.7-1.2-4.2-1.2-4.2s-3.4-2.2-9.8-3.1h0.1c-0.2-0.3-5.6-7.6-14.7-7.6c-8.7,0-15.9,8.6-16.2,8.9
						l0,0c-1.4,1.2-3.2,3.1-4.5,6.1C-32.1,34.9-33.6,34.9-33.6,36.4z M5,33.7c-2.3,0-4.1,1.8-4.1,4s1.8,4,4.1,4s4.1-1.8,4.1-4
						S7.2,33.7,5,33.7z"/>
				</g>
			</g>
		</g>
	</g>
</g>
<g id="Layer_2">
	<g>
		<g>
			<g>
				<defs>
					<rect id="SVGID_3_" x="0.2" y="0.3" width="49.6" height="21.9"/>
				</defs>
				<clipPath id="SVGID_4_">
					<use xlink:href="#SVGID_3_"  style="overflow:visible;"/>
				</clipPath>
				<path class="st3" d="M2.6,21.7h5.8v-0.8H1.7C1.8,21.4,2.1,21.7,2.6,21.7z M47.3,21.7h-5.8v-0.8h6.7
					C48.3,21.4,47.8,21.7,47.3,21.7z M24.2,0.9H7.8c-0.9,0-1.6,0.7-1.6,1.6v2.9c0.7,0.1,1.2,0.7,1.2,1.4v3.6
					c0.7-0.4,1.9-0.5,8.2-0.5c7.9-0.1,8.5,0.1,9.2,1V1.6C24.7,1.1,24.5,0.9,24.2,0.9z M5.7,5.7H3.4C3.2,5.7,3.1,5.8,3,5.9L0.9,8.5
					C0.8,8.6,0.8,8.7,0.8,8.8v11c0,0.3,0.2,0.5,0.5,0.5h3.9v-8.1c0-0.2,0.1-0.4,0.2-0.5c0.2-0.2,0.4-0.4,0.7-0.7
					c0.5-0.4,0.8-0.6,0.8-0.6V6.8C6.9,6.3,6.4,5.7,5.7,5.7z M24.7,12.2c0-2-1.2-1.9-9.2-1.9c-7,0-7.9,0-9.6,1.7
					c-0.1,0.1-0.2,0.3-0.2,0.5v3.1h19C24.6,15.6,24.6,12.2,24.7,12.2z M5.7,16.3h19v4.2h-19V16.3z M25.8,0.9h16.4
					c0.9,0,1.6,0.7,1.6,1.6v2.9c-0.7,0.1-1.2,0.7-1.2,1.4v3.6c-0.7-0.4-1.9-0.5-8.2-0.5c-7.9-0.1-8.5,0.1-9.2,1V1.6
					C25.3,1.1,25.5,0.9,25.8,0.9z M44.3,5.7h2.3c0.2,0,0.3,0.1,0.4,0.2l2.1,2.6c0.1,0.1,0.1,0.2,0.1,0.3v11c0,0.3-0.2,0.5-0.5,0.5
					h-3.9v-8.1c0-0.2-0.1-0.4-0.2-0.5c-0.2-0.2-0.4-0.4-0.7-0.7c-0.5-0.2-0.9-0.5-0.9-0.5V6.9C43,6.3,43.6,5.7,44.3,5.7z M25.3,12.2
					c0-2,1.2-1.9,9.2-1.9c7,0,7.9,0,9.6,1.7c0.1,0.1,0.2,0.3,0.2,0.5v3.1h-19V12.2z M44.2,16.3h-19v4.2h19V16.3z"/>
			</g>
		</g>
	</g>
</g>
</svg>
