<?xml version="1.0" encoding="utf-8"?>
<!-- Generator: Adobe Illustrator 19.2.1, SVG Export Plug-In . SVG Version: 6.00 Build 0)  -->
<svg version="1.1" id="Layer_1" xmlns="http://www.w3.org/2000/svg" xmlns:xlink="http://www.w3.org/1999/xlink" x="0px" y="0px"
	 viewBox="0 0 25.2 13.7" style="enable-background:new 0 0 25.2 13.7;" xml:space="preserve">
<style type="text/css">
	.st0{display:none;}
	.st1{display:inline;fill:#DD1D1D;stroke:#000000;stroke-miterlimit:10;}
	.st2{fill:#FFFFFF;}
</style>
<g id="Layer_2_1_" class="st0">
	<rect x="-120.5" y="-28" class="st1" width="137.8" height="94.3"/>
</g>
<g>
	<path class="st2" d="M24.2,4.7v0.9H18V4.4h-0.9v1.1h-1V4.4h-0.9v1.1h-1V4.4h-0.9v1.1h-0.8V4.9c0-0.1,0-0.8-0.5-1.4
		C11.8,3.2,11.4,3,10.8,3C9.7,3,8.4,4,7.5,5.5H7.1L0.2,0.4v11.4L7,6.4h0C6.8,7,6.5,7.8,6.5,8.5c-0.2,1.8,0,3,0.8,3.8
		c0.6,0.6,1.4,1,2.6,1l7.8,0c0,0,0.1,0,0.2,0c0.4,0,1.6-0.1,2.5-0.9c0.6-0.5,0.9-1.3,0.9-2.2c0-1.7-0.5-3-1.5-3.8h4.6v0.8H25V4.7
		H24.2z M10.8,3.9c0.3,0,0.5,0.1,0.7,0.2c0.3,0.3,0.3,0.8,0.3,0.8v0.6H8.5C9.3,4.5,10.2,3.9,10.8,3.9z M1,10V2.2L6.2,6L1,10z
		 M20.2,10.2c0,0.7-0.2,1.2-0.6,1.6c-0.7,0.7-2,0.6-2,0.6H9.8c-0.9,0-1.5-0.2-1.9-0.7c-0.5-0.6-0.7-1.6-0.5-3.1C7.4,7.8,7.7,7,8,6.4
		h3.8v2.7h0.9V6.4h0.8v2.7h0.9V6.4h1v2.7h0.9V6.4h0.5c0.2,0,0.3,0,0.5,0v2.7H18V6.6C19.5,7,20.2,8.2,20.2,10.2z"/>
</g>
</svg>
