<?xml version="1.0" encoding="utf-8"?>
<!-- Generator: Adobe Illustrator 16.0.0, SVG Export Plug-In . SVG Version: 6.00 Build 0)  -->
<!DOCTYPE svg PUBLIC "-//W3C//DTD SVG 1.1//EN" "http://www.w3.org/Graphics/SVG/1.1/DTD/svg11.dtd">
<svg version="1.1" id="Layer_1" xmlns="http://www.w3.org/2000/svg" xmlns:xlink="http://www.w3.org/1999/xlink" x="0px" y="0px"
	 width="49.937px" height="22.511px" viewBox="0 0 49.937 22.511" enable-background="new 0 0 49.937 22.511" xml:space="preserve">
<g>
	<defs>
		<rect id="SVGID_1_" width="49.936" height="22.511"/>
	</defs>
	<clipPath id="SVGID_2_">
		<use xlink:href="#SVGID_1_"  overflow="visible"/>
	</clipPath>
	<path clip-path="url(#SVGID_2_)" fill="none" stroke="#FFFFFF" stroke-width="0.75" stroke-miterlimit="10" d="M21.212,8.813
		L21.556,2.6c0.149-0.006,0.299-0.014,0.449-0.014c6.378,0,10.783,4.266,12.285,5.964l-0.884,0.383L21.212,8.813z M10.967,8.217
		c2.101-1.954,5.602-4.686,9.561-5.631l-0.324,5.866l-8.846-0.088L10.967,8.217z M10.438,16.855c0.753,0,1.364,0.559,1.364,1.244
		c0,0.685-0.611,1.243-1.364,1.243c-0.752,0-1.364-0.559-1.364-1.243C9.075,17.414,9.687,16.855,10.438,16.855z M38.886,16.855
		c0.752,0,1.364,0.559,1.364,1.244c0,0.685-0.612,1.243-1.364,1.243s-1.364-0.559-1.364-1.243
		C37.521,17.414,38.134,16.855,38.886,16.855z M10.438,14.232c-2.261,0-4.093,1.77-4.093,3.952s1.832,3.952,4.093,3.952
		c2.261,0,4.094-1.77,4.094-3.952S12.7,14.232,10.438,14.232z M0.375,16.903c0,1.501,0.718,1.643,2.274,2.104l2.44,0.009
		c-0.058-0.31-0.093-0.629-0.093-0.956c0-2.961,2.487-5.361,5.554-5.361c3.067,0,5.554,2.4,5.554,5.361
		c0,0.342-0.037,0.674-0.1,0.998l10.334,0.039h7.148c-0.067-0.335-0.105-0.682-0.105-1.037c0-2.961,2.486-5.361,5.554-5.361
		s5.553,2.4,5.553,5.361c0,0.355-0.037,0.702-0.105,1.037h1.338c0,0,3.111-0.808,3.589-1.386c0.479-0.577,0.359-1.732-1.077-2.426
		c-1.435-0.692-1.196-4.158-1.196-4.158s-3.402-2.216-9.772-3.117l0.06-0.04c-0.224-0.31-5.591-7.596-14.729-7.596
		c-8.674,0-15.875,8.559-16.177,8.923l0.036,0.028c-1.399,1.176-3.223,3.129-4.522,6.075C1.931,15.401,0.375,15.401,0.375,16.903z
		 M38.971,14.232c-2.261,0-4.094,1.77-4.094,3.952s1.833,3.952,4.094,3.952s4.094-1.77,4.094-3.952S41.231,14.232,38.971,14.232z"/>
</g>
</svg>
