<?xml version="1.0" encoding="utf-8"?>
<!-- Generator: Adobe Illustrator 19.2.1, SVG Export Plug-In . SVG Version: 6.00 Build 0)  -->
<svg version="1.1" id="Layer_1" xmlns="http://www.w3.org/2000/svg" xmlns:xlink="http://www.w3.org/1999/xlink" x="0px" y="0px"
	 viewBox="0 0 25.2 25.2" style="enable-background:new 0 0 25.2 25.2;" xml:space="preserve">
<style type="text/css">
	.st0{display:none;}
	.st1{display:inline;}
	.st2{clip-path:url(#SVGID_2_);fill:#555555;}
	.st3{clip-path:url(#SVGID_4_);fill:#555555;}
	.st4{display:inline;fill:#821F17;}
	.st5{fill:none;stroke:#FFFFFF;stroke-width:0.75;stroke-miterlimit:10;}
	.st6{fill:#FFFFFF;}
	.st7{fill:none;stroke:#474744;stroke-width:0.75;stroke-miterlimit:10;}
	.st8{fill:#474744;}
</style>
<g id="Layer_1_1_" class="st0">
	<g class="st1">
		<g>
			<g>
				<g>
					<g>
						<defs>
							<rect id="SVGID_1_" x="-46" y="18.8" width="25.2" height="25.2"/>
						</defs>
						<clipPath id="SVGID_2_">
							<use xlink:href="#SVGID_1_"  style="overflow:visible;"/>
						</clipPath>
						<path class="st2" d="M-25.1,21.6l1.4,1.4l1.3-1.3l-1.4-1.4L-25.1,21.6z M-28.8,19.7c-0.4,0-0.7,0.1-1,0.4l-0.1,0.1
							c-0.5,0.5-0.5,1.4,0,1.9l5.7,5.7c0.2,0.2,0.6,0.4,1,0.4s0.7-0.1,1-0.4l0.1-0.1c0.3-0.3,0.4-0.6,0.4-1s-0.1-0.7-0.4-1l-5.7-5.7
							C-28.1,19.8-28.4,19.7-28.8,19.7 M-33.4,20.3c-0.4,0-0.7,0.1-1,0.4l-0.1,0.1c-0.3,0.3-0.4,0.6-0.4,1s0.1,0.7,0.4,1l9.8,9.8
							c0.3,0.3,0.6,0.4,1,0.4s0.7-0.1,1-0.4l0.1-0.1c0.3-0.3,0.4-0.6,0.4-1s-0.1-0.7-0.4-1l-9.8-9.8C-32.7,20.4-33,20.3-33.4,20.3
							 M-23.7,33.7c-0.6,0-1.1-0.2-1.6-0.6l-9.8-9.8c-0.4-0.4-0.6-1-0.6-1.6s0.2-1.1,0.6-1.6L-35,20c0.4-0.4,1-0.6,1.6-0.6
							s1.1,0.2,1.6,0.6l0.7,0.7l0.2-0.5c0.1-0.3,0.3-0.5,0.5-0.7l0.1-0.1c0.4-0.4,1-0.6,1.6-0.6s1.1,0.2,1.6,0.6l1.5,1.5l1.6-1.6
							c0.1-0.1,0.2-0.1,0.3-0.1c0.1,0,0.2,0,0.3,0.1l2,2c0.1,0.1,0.1,0.2,0.1,0.3c0,0.1,0,0.2-0.1,0.3l-1.6,1.6l1.5,1.5
							c0.4,0.4,0.6,1,0.6,1.6s-0.2,1.1-0.6,1.6l-0.1,0.1c-0.2,0.2-0.5,0.4-0.7,0.5l-0.5,0.2l0.7,0.7c0.4,0.4,0.6,1,0.6,1.6
							s-0.2,1.1-0.6,1.6l-0.1,0.1C-22.5,33.4-23.1,33.7-23.7,33.7"/>
					</g>
				</g>
			</g>
		</g>
		<g>
			<g>
				<g>
					<g>
						<defs>
							<rect id="SVGID_3_" x="-46" y="18.8" width="25.2" height="25.2"/>
						</defs>
						<clipPath id="SVGID_4_">
							<use xlink:href="#SVGID_3_"  style="overflow:visible;"/>
						</clipPath>
						<path class="st3" d="M-44.5,41.1l1.4,1.4l1.3-1.3l-1.4-1.4L-44.5,41.1z M-43.2,30c-0.4,0-0.7,0.1-1,0.4l-0.1,0.1
							c-0.3,0.3-0.4,0.6-0.4,1s0.1,0.7,0.4,1l9.8,9.8c0.2,0.2,0.6,0.4,1,0.4s0.7-0.1,1-0.4l0.1-0.1c0.5-0.5,0.5-1.4,0-1.9l-9.8-9.8
							C-42.4,30.2-42.8,30-43.2,30 M-43.7,34.6c-0.4,0-0.7,0.1-1,0.4l-0.1,0.1c-0.3,0.3-0.4,0.6-0.4,1s0.1,0.7,0.4,1l5.7,5.7
							c0.2,0.2,0.6,0.4,1,0.4s0.7-0.1,1-0.4l0.1-0.1c0.3-0.3,0.4-0.6,0.4-1s-0.1-0.7-0.4-1l-5.7-5.7C-43,34.8-43.4,34.6-43.7,34.6
							 M-38.1,44c-0.6,0-1.1-0.2-1.6-0.6l-1.5-1.5l-1.6,1.6c-0.1,0.1-0.2,0.1-0.3,0.1s-0.2,0-0.3-0.1l-2-2c-0.1-0.1-0.1-0.2-0.1-0.3
							s0-0.2,0.1-0.3l1.6-1.6l-1.5-1.5c-0.4-0.4-0.6-1-0.6-1.6s0.2-1.1,0.6-1.6l0.1-0.1c0.2-0.2,0.5-0.4,0.7-0.5l0.5-0.2l-0.7-0.7
							c-0.4-0.4-0.6-1-0.6-1.6s0.2-1.1,0.6-1.6l0.1-0.1c0.4-0.4,1-0.6,1.6-0.6s1.1,0.2,1.6,0.6l3.6,3.6l5.1-5.1l0.6,0.6l-5.1,5.1
							l1.4,1.4l5.1-5.1l0.6,0.6l-5.1,5.1l3.6,3.6c0.9,0.9,0.9,2.3,0,3.1l-0.1,0.1c-0.4,0.4-1,0.6-1.6,0.6s-1.1-0.2-1.6-0.6l-0.7-0.7
							l-0.2,0.5c-0.1,0.3-0.3,0.5-0.5,0.7l-0.1,0.1C-36.9,43.8-37.5,44-38.1,44"/>
					</g>
				</g>
			</g>
		</g>
	</g>
</g>
<g id="Layer_3" class="st0">
	<rect x="-64" y="9.3" class="st4" width="66.4" height="40.6"/>
</g>
<g id="Layer_2" class="st0">
	<g class="st1">
		<path class="st5" d="M-21.6,40.8c-0.1-0.1-0.1-0.1-0.2-0.1l-8.9-7.7c0-0.2-0.1-0.3-0.2-0.4l-0.6-0.6l-1.1-1.1l1.6-1.8
			c1,0.6,2.4,0.5,3.3-0.4c0.1-0.1,0.1-0.1,0.2-0.2l5.6-6.2l-0.4-0.4l-4.3,4.6c-0.1,0.1-0.3,0.1-0.4,0s-0.1-0.3,0-0.4l4.3-4.6
			l-0.4-0.4l-4.4,4.4c-0.1,0.1-0.3,0.1-0.4,0s-0.1-0.3,0-0.4l4.4-4.4l-0.4-0.4l-4.6,4.3c-0.1,0.1-0.3,0.1-0.4,0s-0.1-0.3,0-0.4
			l4.6-4.3l-0.4-0.4l-6.2,5.6c-0.1,0.1-0.1,0.1-0.2,0.2c-0.9,0.9-1,2.2-0.4,3.3l-1.8,1.6l-5.6-5.6l-2.4-2.4
			c-0.6-0.6-1.3-0.7-1.5-0.3c-0.3,0.4-0.3,1.3,0.1,1.9c0,0,0.7,1.3,1.3,2.1c0.4,0.5,3.5,3.9,5.8,6.3l-9.2,8.2l-0.1,0.1
			c-0.7,0.7-0.7,1.7,0,2.4s1.7,0.7,2.4,0l0.1-0.1l8.1-9.1c0.6,0.6,1,1.1,1,1.1l0,0l0.6,0.7c0.2,0.3,0.6,0.3,0.8,0l0.6-0.6l0.1-0.1
			l7.6,8.8c0,0.1,0.1,0.1,0.1,0.2c0.7,0.7,1.7,0.7,2.4,0C-20.9,42.5-20.9,41.5-21.6,40.8z"/>
	</g>
</g>
<g id="Layer_5">
	<path class="st6" d="M18.4,10.8L18.4,10.8c2.2,0,3.7-2.3,3.7-2.4l0.1-0.1L25.1,5l-0.8-0.6l-2.7,3.1l-0.7-0.6l2.7-3.1l-0.8-0.6
		l-2.7,3.1l-0.8-0.7L22,2.5l-0.8-0.6L18.5,5l-0.9-0.8l2.7-3.1l-0.8-0.6l-3,3.4c-0.2,0.2-1.9,1.7-1.9,3.6c0,0.8,0.3,1.5,0.9,2.2
		l-3,3.5L10.7,11l0,0l0,0c-0.1-0.1-7.1-8.3-7.5-8.8c-0.3-0.4-1-1.1-1.7-1.1C1,1.1,0.4,1.4,0.2,2.7c-0.5,2.9,1.1,4.6,1.2,4.7l4,4.8
		c0.8,1,1.6,1.4,2.4,1.4c0.6,0,0.9-0.3,1-0.3l1.5-1.3l1.6,1.9L3.1,24.1l0.8,0.6l8.7-10.1l8.2,9.9l0.8-0.6l-8.3-10l3.1-3.6
		C17.1,10.6,17.7,10.8,18.4,10.8z M8.3,12.4c0,0-0.1,0.1-0.4,0.1c-0.5,0-1-0.4-1.6-1.1l-4-4.8C2.2,6.5,1,5.2,1.4,2.7
		C1.5,2.1,1.6,2,1.7,2c0.2,0,0.5,0.2,0.9,0.7s5.8,6.8,7.2,8.5L8.3,12.4z M17,4.8l4,3.4c-0.5,0.6-1.5,1.6-2.6,1.6l0,0
		c-0.5,0-1.1-0.2-1.6-0.7c-0.6-0.5-0.9-1.1-0.9-1.8C15.8,6.3,16.6,5.3,17,4.8z"/>
</g>
<g id="Layer_4" class="st0">
	<g class="st1">
		<g>
			<g>
				<circle class="st7" cx="-38.7" cy="33" r="2.9"/>
			</g>
			<g>
				<path class="st7" d="M-33.7,39.7c0-1.6-1.4-2.9-3-2.9h-1l-1,1l0.7,0.5l0.2,4.2l-0.8,1.2l-0.8-1.2l0.2-4.2l0.6-0.5l-1-1l0,0h-1
					c-1.6,0-3,1.3-3,2.9l0,0v0.1v0.1V44h3h4h3v-4.1L-33.7,39.7L-33.7,39.7L-33.7,39.7L-33.7,39.7z"/>
			</g>
		</g>
		<g>
			<g>
				<circle class="st7" cx="-28.4" cy="33.9" r="1.7"/>
			</g>
			<g>
				<path class="st7" d="M-25.4,38c0-1-0.8-1.8-1.8-1.8h-0.6l-0.6,0.6l0.4,0.3l0.1,2.6l-0.5,0.7l-0.5-0.7l0.1-2.6l0.4-0.3l-0.6-0.6
					l0,0h-0.6c-1,0-1.8,0.8-1.8,1.8l0,0l0,0l0,0v2.5h1.8h2.4h1.8L-25.4,38L-25.4,38L-25.4,38L-25.4,38L-25.4,38z"/>
			</g>
		</g>
		<g>
			<path class="st8" d="M-28.8,31.5l-1.4-2.8c-1,0-2,0-3-0.3l-3,1.2l-0.2-2.7c-0.9-0.8-1.4-1.7-1.4-2.7c0-2.5,3.2-4.6,7.1-4.6
				s7.1,2,7.1,4.6c0,1.9-1.7,3.5-4.4,4.2L-28.8,31.5z M-30.1,28.4l1.2,2.4l0.7-2.6h0.1c2.6-0.7,4.3-2.2,4.3-4c0-2.4-3.1-4.3-6.9-4.3
				s-6.8,1.9-6.8,4.3c0,0.9,0.5,1.8,1.3,2.6l0,0l0.2,2.5l2.8-1.1l0,0C-32.2,28.4-31.2,28.5-30.1,28.4L-30.1,28.4z M-26.2,26.1h-9.2
				v-0.4h9.2V26.1z M-26.2,24.3h-9.2v-0.4h9.2V24.3z M-26.2,22.6h-9.2v-0.4h9.2V22.6z"/>
		</g>
	</g>
</g>
</svg>
