<?xml version="1.0" encoding="utf-8"?>
<!-- Generator: Adobe Illustrator 19.2.1, SVG Export Plug-In . SVG Version: 6.00 Build 0)  -->
<svg version="1.1" id="Layer_2" xmlns="http://www.w3.org/2000/svg" xmlns:xlink="http://www.w3.org/1999/xlink" x="0px" y="0px"
	 viewBox="0 0 24.4 27.1" style="enable-background:new 0 0 24.4 27.1;" xml:space="preserve">
<style type="text/css">
	.st0{fill:#FFFFFF;}
</style>
<g>
	<g>
		<path class="st0" d="M20.7,27.1h-17c-0.3,0-0.5-0.2-0.5-0.5v-26c0-0.3,0.2-0.5,0.5-0.5h17c0.3,0,0.5,0.2,0.5,0.5v26
			C21.2,26.9,21,27.1,20.7,27.1z M4.2,26.1h16v-25h-16C4.2,1.1,4.2,26.1,4.2,26.1z"/>
	</g>
	<g>
		<path class="st0" d="M23.7,27.1h-3c-0.3,0-0.5-0.2-0.5-0.5v-20c0-0.3,0.2-0.5,0.5-0.5h3c0.3,0,0.5,0.2,0.5,0.5v20
			C24.2,26.9,24,27.1,23.7,27.1z M21.2,26.1h2v-19h-2V26.1z"/>
	</g>
	<g>
		<path class="st0" d="M3.7,27.1h-3c-0.3,0-0.5-0.2-0.5-0.5v-20c0-0.3,0.2-0.5,0.5-0.5h3c0.3,0,0.5,0.2,0.5,0.5v20
			C4.2,26.9,4,27.1,3.7,27.1z M1.2,26.1h2v-19h-2V26.1z"/>
	</g>
	<g>
		<path class="st0" d="M13.7,27.1h-3c-0.3,0-0.5-0.2-0.5-0.5v-5.5c0-0.3,0.2-0.5,0.5-0.5h3c0.3,0,0.5,0.2,0.5,0.5v5.5
			C14.2,26.9,14,27.1,13.7,27.1z M11.2,26.1h2v-4.5h-2V26.1z"/>
	</g>
	<g>
		<g>
			<path class="st0" d="M18.2,5.6h-2c-0.3,0-0.5-0.2-0.5-0.5V2.6c0-0.3,0.2-0.5,0.5-0.5h2c0.3,0,0.5,0.2,0.5,0.5v2.5
				C18.7,5.4,18.5,5.6,18.2,5.6z M16.7,4.6h1V3.1h-1V4.6z"/>
		</g>
		<g>
			<path class="st0" d="M18.2,10.1h-2c-0.3,0-0.5-0.2-0.5-0.5V7.1c0-0.3,0.2-0.5,0.5-0.5h2c0.3,0,0.5,0.2,0.5,0.5v2.5
				C18.7,9.9,18.5,10.1,18.2,10.1z M16.7,9.1h1V7.6h-1V9.1z"/>
		</g>
		<g>
			<path class="st0" d="M18.2,14.6h-2c-0.3,0-0.5-0.2-0.5-0.5v-2.5c0-0.3,0.2-0.5,0.5-0.5h2c0.3,0,0.5,0.2,0.5,0.5v2.5
				C18.7,14.4,18.5,14.6,18.2,14.6z M16.7,13.6h1v-1.5h-1V13.6z"/>
		</g>
		<g>
			<path class="st0" d="M18.2,19.1h-2c-0.3,0-0.5-0.2-0.5-0.5v-2.5c0-0.3,0.2-0.5,0.5-0.5h2c0.3,0,0.5,0.2,0.5,0.5v2.5
				C18.7,18.9,18.5,19.1,18.2,19.1z M16.7,18.1h1v-1.5h-1V18.1z"/>
		</g>
		<g>
			<path class="st0" d="M18.2,24.1h-2c-0.3,0-0.5-0.2-0.5-0.5v-2.5c0-0.3,0.2-0.5,0.5-0.5h2c0.3,0,0.5,0.2,0.5,0.5v2.5
				C18.7,23.9,18.5,24.1,18.2,24.1z M16.7,23.1h1v-1.5h-1V23.1z"/>
		</g>
		<g>
			<path class="st0" d="M13.2,5.6h-2c-0.3,0-0.5-0.2-0.5-0.5V2.6c0-0.3,0.2-0.5,0.5-0.5h2c0.3,0,0.5,0.2,0.5,0.5v2.5
				C13.7,5.4,13.5,5.6,13.2,5.6z M11.7,4.6h1V3.1h-1V4.6z"/>
		</g>
		<g>
			<path class="st0" d="M13.2,10.1h-2c-0.3,0-0.5-0.2-0.5-0.5V7.1c0-0.3,0.2-0.5,0.5-0.5h2c0.3,0,0.5,0.2,0.5,0.5v2.5
				C13.7,9.9,13.5,10.1,13.2,10.1z M11.7,9.1h1V7.6h-1V9.1z"/>
		</g>
		<g>
			<path class="st0" d="M13.2,14.6h-2c-0.3,0-0.5-0.2-0.5-0.5v-2.5c0-0.3,0.2-0.5,0.5-0.5h2c0.3,0,0.5,0.2,0.5,0.5v2.5
				C13.7,14.4,13.5,14.6,13.2,14.6z M11.7,13.6h1v-1.5h-1V13.6z"/>
		</g>
		<g>
			<path class="st0" d="M13.2,19.1h-2c-0.3,0-0.5-0.2-0.5-0.5v-2.5c0-0.3,0.2-0.5,0.5-0.5h2c0.3,0,0.5,0.2,0.5,0.5v2.5
				C13.7,18.9,13.5,19.1,13.2,19.1z M11.7,18.1h1v-1.5h-1V18.1z"/>
		</g>
		<g>
			<path class="st0" d="M8.2,5.6h-2c-0.3,0-0.5-0.2-0.5-0.5V2.6c0-0.3,0.2-0.5,0.5-0.5h2c0.3,0,0.5,0.2,0.5,0.5v2.5
				C8.7,5.4,8.5,5.6,8.2,5.6z M6.7,4.6h1V3.1h-1V4.6z"/>
		</g>
		<g>
			<path class="st0" d="M8.2,10.1h-2c-0.3,0-0.5-0.2-0.5-0.5V7.1c0-0.3,0.2-0.5,0.5-0.5h2c0.3,0,0.5,0.2,0.5,0.5v2.5
				C8.7,9.9,8.5,10.1,8.2,10.1z M6.7,9.1h1V7.6h-1V9.1z"/>
		</g>
		<g>
			<path class="st0" d="M8.2,14.6h-2c-0.3,0-0.5-0.2-0.5-0.5v-2.5c0-0.3,0.2-0.5,0.5-0.5h2c0.3,0,0.5,0.2,0.5,0.5v2.5
				C8.7,14.4,8.5,14.6,8.2,14.6z M6.7,13.6h1v-1.5h-1V13.6z"/>
		</g>
		<g>
			<path class="st0" d="M8.2,19.1h-2c-0.3,0-0.5-0.2-0.5-0.5v-2.5c0-0.3,0.2-0.5,0.5-0.5h2c0.3,0,0.5,0.2,0.5,0.5v2.5
				C8.7,18.9,8.5,19.1,8.2,19.1z M6.7,18.1h1v-1.5h-1V18.1z"/>
		</g>
		<g>
			<path class="st0" d="M8.2,24.1h-2c-0.3,0-0.5-0.2-0.5-0.5v-2.5c0-0.3,0.2-0.5,0.5-0.5h2c0.3,0,0.5,0.2,0.5,0.5v2.5
				C8.7,23.9,8.5,24.1,8.2,24.1z M6.7,23.1h1v-1.5h-1V23.1z"/>
		</g>
	</g>
	<g>
		<g>
			<path class="st0" d="M1.2,24.1H0.7c-0.3,0-0.5-0.2-0.5-0.5s0.2-0.5,0.5-0.5h0.5c0.3,0,0.5,0.2,0.5,0.5S1.5,24.1,1.2,24.1z"/>
		</g>
		<g>
			<path class="st0" d="M1.2,21.6H0.7c-0.3,0-0.5-0.2-0.5-0.5s0.2-0.5,0.5-0.5h0.5c0.3,0,0.5,0.2,0.5,0.5S1.5,21.6,1.2,21.6z"/>
		</g>
		<g>
			<path class="st0" d="M1.2,19.1H0.7c-0.3,0-0.5-0.2-0.5-0.5s0.2-0.5,0.5-0.5h0.5c0.3,0,0.5,0.2,0.5,0.5S1.5,19.1,1.2,19.1z"/>
		</g>
		<g>
			<path class="st0" d="M1.2,16.6H0.7c-0.3,0-0.5-0.2-0.5-0.5c0-0.3,0.2-0.5,0.5-0.5h0.5c0.3,0,0.5,0.2,0.5,0.5
				C1.7,16.4,1.5,16.6,1.2,16.6z"/>
		</g>
		<g>
			<path class="st0" d="M1.2,14.1H0.7c-0.3,0-0.5-0.2-0.5-0.5s0.2-0.5,0.5-0.5h0.5c0.3,0,0.5,0.2,0.5,0.5S1.5,14.1,1.2,14.1z"/>
		</g>
		<g>
			<path class="st0" d="M1.2,11.6H0.7c-0.3,0-0.5-0.2-0.5-0.5s0.2-0.5,0.5-0.5h0.5c0.3,0,0.5,0.2,0.5,0.5
				C1.7,11.4,1.5,11.6,1.2,11.6z"/>
		</g>
		<g>
			<path class="st0" d="M1.2,9.1H0.7c-0.3,0-0.5-0.2-0.5-0.5s0.2-0.5,0.5-0.5h0.5c0.3,0,0.5,0.2,0.5,0.5S1.5,9.1,1.2,9.1z"/>
		</g>
		<g>
			<path class="st0" d="M23.7,24.1h-0.5c-0.3,0-0.5-0.2-0.5-0.5s0.2-0.5,0.5-0.5h0.5c0.3,0,0.5,0.2,0.5,0.5S24,24.1,23.7,24.1z"/>
		</g>
		<g>
			<path class="st0" d="M23.7,21.6h-0.5c-0.3,0-0.5-0.2-0.5-0.5s0.2-0.5,0.5-0.5h0.5c0.3,0,0.5,0.2,0.5,0.5S24,21.6,23.7,21.6z"/>
		</g>
		<g>
			<path class="st0" d="M23.7,19.1h-0.5c-0.3,0-0.5-0.2-0.5-0.5s0.2-0.5,0.5-0.5h0.5c0.3,0,0.5,0.2,0.5,0.5S24,19.1,23.7,19.1z"/>
		</g>
		<g>
			<path class="st0" d="M23.7,16.6h-0.5c-0.3,0-0.5-0.2-0.5-0.5c0-0.3,0.2-0.5,0.5-0.5h0.5c0.3,0,0.5,0.2,0.5,0.5
				C24.2,16.4,24,16.6,23.7,16.6z"/>
		</g>
		<g>
			<path class="st0" d="M23.7,14.1h-0.5c-0.3,0-0.5-0.2-0.5-0.5s0.2-0.5,0.5-0.5h0.5c0.3,0,0.5,0.2,0.5,0.5S24,14.1,23.7,14.1z"/>
		</g>
		<g>
			<path class="st0" d="M23.7,11.6h-0.5c-0.3,0-0.5-0.2-0.5-0.5s0.2-0.5,0.5-0.5h0.5c0.3,0,0.5,0.2,0.5,0.5
				C24.2,11.4,24,11.6,23.7,11.6z"/>
		</g>
		<g>
			<path class="st0" d="M23.7,9.1h-0.5c-0.3,0-0.5-0.2-0.5-0.5s0.2-0.5,0.5-0.5h0.5c0.3,0,0.5,0.2,0.5,0.5S24,9.1,23.7,9.1z"/>
		</g>
	</g>
</g>
</svg>
