<?xml version="1.0" encoding="utf-8"?>
<!-- Generator: Adobe Illustrator 16.0.0, SVG Export Plug-In . SVG Version: 6.00 Build 0)  -->
<!DOCTYPE svg PUBLIC "-//W3C//DTD SVG 1.1//EN" "http://www.w3.org/Graphics/SVG/1.1/DTD/svg11.dtd">
<svg version="1.1" xmlns="http://www.w3.org/2000/svg" xmlns:xlink="http://www.w3.org/1999/xlink" x="0px" y="0px"
	 width="25.165px" height="25.166px" viewBox="0 0 25.165 25.166" enable-background="new 0 0 25.165 25.166" xml:space="preserve">
<g id="Layer_1" display="none">
	<g display="inline">
		<g>
			<defs>
				<rect id="SVGID_1_" width="25.165" height="25.166"/>
			</defs>
			<clipPath id="SVGID_2_">
				<use xlink:href="#SVGID_1_"  overflow="visible"/>
			</clipPath>
			<path clip-path="url(#SVGID_2_)" fill="#555555" d="M20.948,2.792l1.426,1.425l1.299-1.298l-1.426-1.425L20.948,2.792z
				 M17.243,0.847c-0.365,0-0.707,0.141-0.963,0.396l-0.07,0.071c-0.53,0.53-0.53,1.392,0,1.922l5.72,5.72
				c0.245,0.246,0.597,0.387,0.962,0.387s0.716-0.141,0.961-0.387l0.07-0.07c0.256-0.255,0.396-0.597,0.396-0.961
				c0-0.365-0.141-0.706-0.396-0.962l-5.719-5.72C17.947,0.988,17.605,0.847,17.243,0.847 M12.617,1.418
				c-0.364,0-0.707,0.141-0.961,0.396l-0.071,0.07c-0.255,0.256-0.396,0.598-0.396,0.962c0,0.364,0.141,0.706,0.396,0.961
				l9.774,9.774c0.257,0.255,0.599,0.396,0.962,0.396c0.364,0,0.706-0.143,0.961-0.396l0.07-0.07
				c0.256-0.255,0.396-0.597,0.396-0.96c0-0.365-0.142-0.707-0.396-0.962l-9.771-9.774C13.322,1.559,12.981,1.418,12.617,1.418
				 M22.32,14.824c-0.591,0-1.146-0.229-1.562-0.644l-9.773-9.774c-0.415-0.416-0.644-0.969-0.644-1.56
				c0-0.591,0.229-1.145,0.645-1.561l0.07-0.069c0.415-0.416,0.969-0.645,1.561-0.645c0.59,0,1.145,0.229,1.559,0.645l0.746,0.745
				l0.201-0.504c0.11-0.28,0.273-0.53,0.485-0.742l0.072-0.071C16.097,0.228,16.65,0,17.243,0c0.59,0,1.144,0.228,1.559,0.644
				l1.549,1.549l1.597-1.597c0.08-0.08,0.187-0.124,0.3-0.124c0.112,0,0.221,0.044,0.301,0.124L24.57,2.62
				c0.08,0.08,0.124,0.187,0.124,0.299c0,0.114-0.044,0.22-0.124,0.3l-1.597,1.597l1.548,1.548c0.416,0.416,0.646,0.97,0.646,1.561
				c0,0.591-0.229,1.144-0.646,1.56l-0.069,0.07c-0.211,0.211-0.461,0.374-0.744,0.486l-0.504,0.2l0.748,0.748
				c0.414,0.416,0.645,0.97,0.645,1.561c0,0.59-0.229,1.145-0.645,1.559l-0.07,0.072C23.465,14.597,22.913,14.824,22.32,14.824"/>
		</g>
		<g>
			<defs>
				<rect id="SVGID_3_" width="25.165" height="25.166"/>
			</defs>
			<clipPath id="SVGID_4_">
				<use xlink:href="#SVGID_3_"  overflow="visible"/>
			</clipPath>
			<path clip-path="url(#SVGID_4_)" fill="#555555" d="M1.495,22.245L2.92,23.67l1.296-1.296l-1.425-1.425L1.495,22.245z
				 M2.846,11.188c-0.365,0-0.706,0.141-0.962,0.396l-0.071,0.071c-0.255,0.255-0.395,0.597-0.395,0.961
				c0,0.365,0.14,0.706,0.395,0.962l9.775,9.774c0.246,0.244,0.597,0.387,0.961,0.387c0.366,0,0.716-0.143,0.962-0.387l0.069-0.07
				c0.53-0.53,0.53-1.395,0-1.924l-9.773-9.774C3.552,11.329,3.21,11.188,2.846,11.188 M2.275,15.813
				c-0.365,0-0.706,0.141-0.962,0.396l-0.069,0.069c-0.256,0.257-0.397,0.599-0.397,0.963c0,0.365,0.141,0.706,0.396,0.962
				l5.719,5.72c0.246,0.245,0.597,0.387,0.962,0.387c0.366,0,0.716-0.142,0.962-0.387l0.069-0.07
				c0.256-0.256,0.397-0.598,0.397-0.961c0-0.365-0.14-0.707-0.396-0.963l-5.719-5.72C2.981,15.954,2.64,15.813,2.275,15.813
				 M7.924,25.166c-0.591,0-1.145-0.229-1.56-0.646l-1.549-1.549L3.22,24.567c-0.08,0.08-0.187,0.125-0.3,0.125
				c-0.113,0-0.219-0.045-0.299-0.123l-2.025-2.024c-0.078-0.079-0.124-0.188-0.124-0.299c0-0.112,0.046-0.222,0.125-0.299
				l1.596-1.599L0.644,18.8C0.229,18.386,0,17.832,0,17.241c0-0.59,0.229-1.146,0.644-1.561l0.07-0.07
				c0.211-0.211,0.461-0.375,0.744-0.486l0.504-0.2l-0.747-0.748c-0.416-0.415-0.644-0.969-0.644-1.56
				c0-0.591,0.228-1.144,0.644-1.56l0.071-0.071c0.415-0.415,0.969-0.644,1.56-0.644c0.59,0,1.145,0.229,1.56,0.645l3.576,3.576
				l5.138-5.14l0.6,0.599L8.58,15.16l1.425,1.425l5.14-5.139l0.6,0.599l-5.14,5.14l3.576,3.575c0.86,0.861,0.86,2.261,0,3.121
				l-0.07,0.07c-0.415,0.416-0.97,0.646-1.561,0.646c-0.59,0-1.145-0.229-1.56-0.646l-0.748-0.747l-0.2,0.504
				c-0.112,0.282-0.275,0.533-0.486,0.743l-0.07,0.069C9.069,24.938,8.515,25.166,7.924,25.166"/>
		</g>
	</g>
</g>
<g id="Layer_3" display="none">
	<rect x="-18.042" y="-9.542" display="inline" fill="#821F17" width="66.375" height="40.625"/>
</g>
<g id="Layer_2" display="none">
	<g display="inline">
		<path fill="none" stroke="#FFFFFF" stroke-width="0.75" stroke-miterlimit="10" d="M24.43,22.005
			c-0.051-0.055-0.107-0.103-0.164-0.146l-8.896-7.675c0.002-0.155-0.055-0.306-0.17-0.424l-0.623-0.623l-1.135-1.133l1.588-1.786
			c1.025,0.627,2.381,0.499,3.27-0.388c0.064-0.07,0.133-0.143,0.191-0.219l5.555-6.225l-0.439-0.442l-4.285,4.579
			c-0.119,0.12-0.314,0.12-0.436,0.001c-0.121-0.121-0.121-0.316,0-0.436l4.279-4.583l-0.439-0.44l-4.426,4.435
			c-0.123,0.12-0.32,0.12-0.441,0c-0.117-0.122-0.117-0.317,0-0.439l4.43-4.434l-0.443-0.444l-4.572,4.291
			c-0.119,0.12-0.318,0.12-0.439,0c-0.121-0.121-0.121-0.316,0-0.437l4.574-4.291l-0.432-0.434L14.749,5.87
			c-0.076,0.059-0.148,0.123-0.217,0.192c-0.889,0.888-1.016,2.242-0.391,3.27l-1.786,1.586L6.804,5.365L4.38,2.943
			C3.809,2.37,3.121,2.213,2.854,2.597C2.588,2.979,2.591,3.854,2.981,4.512c0,0,0.706,1.332,1.337,2.099
			c0.403,0.487,3.532,3.911,5.757,6.338l-9.204,8.195c-0.048,0.04-0.095,0.078-0.139,0.122c-0.653,0.653-0.651,1.709,0,2.361
			c0.652,0.652,1.708,0.652,2.36,0c0.044-0.045,0.083-0.092,0.123-0.14l8.14-9.142c0.588,0.644,0.966,1.053,0.966,1.053l0,0
			l0.562,0.682c0.205,0.252,0.561,0.268,0.789,0.04l0.625-0.625l0.064-0.065l7.564,8.766c0.045,0.06,0.092,0.115,0.145,0.168
			c0.654,0.651,1.709,0.651,2.359,0C25.084,23.713,25.084,22.656,24.43,22.005z"/>
	</g>
</g>
<g id="Layer_5" display="none">
	<path display="inline" fill="#FFFFFF" d="M18.272,10.674L18.272,10.674c2.157,0,3.668-2.331,3.73-2.43l0.054-0.085l2.864-3.332
		l-0.75-0.646l-2.652,3.085l-0.663-0.571l2.651-3.084l-0.752-0.646L20.1,6.049l-0.826-0.712l2.652-3.084l-0.75-0.646l-2.653,3.085
		L17.62,3.914l2.653-3.084L19.52,0.182l-2.954,3.435c-0.229,0.207-1.856,1.742-1.85,3.584c0.003,0.811,0.318,1.549,0.932,2.202
		l-2.997,3.482l-1.811-2.179l-0.015,0.011l-0.004-0.003C10.75,10.63,3.74,2.417,3.299,1.887c-0.33-0.396-0.984-1.06-1.68-1.06
		c-0.469,0-1.073,0.274-1.272,1.579c-0.462,2.937,1.122,4.625,1.167,4.669l3.985,4.795c0.791,0.952,1.592,1.433,2.385,1.433
		c0.577,0,0.921-0.261,0.986-0.314l1.526-1.268l1.601,1.927l-8.8,10.233l0.752,0.645l8.691-10.105l8.219,9.885l0.761-0.635
		l-8.326-10.013l3.106-3.609C16.999,10.461,17.626,10.673,18.272,10.674z M8.247,12.22c-0.005,0.002-0.135,0.094-0.364,0.094
		c-0.468,0-1.044-0.382-1.621-1.076l-4.009-4.82c-0.054-0.057-1.309-1.426-0.927-3.86C1.412,2,1.56,1.819,1.619,1.819
		c0.163,0,0.539,0.246,0.916,0.701c0.398,0.476,5.796,6.801,7.207,8.456L8.247,12.22z M16.943,4.64l3.973,3.415
		c-0.452,0.565-1.454,1.627-2.644,1.627l0,0c-0.546,0-1.091-0.23-1.621-0.687c-0.632-0.543-0.939-1.128-0.943-1.794
		C15.702,6.131,16.494,5.125,16.943,4.64z"/>
</g>
<g id="Layer_4">
	<g>
		<g>
			<path fill="none" stroke="#FFFFFF" stroke-width="0.7088" stroke-miterlimit="10" d="M15.547,21.766l-2.279-4.563
				c-1.611,0.079-3.267-0.073-4.829-0.444l-4.863,1.866l-0.367-4.41C1.763,12.946,1,11.444,1,9.866c0-4.057,5.14-7.357,11.459-7.357
				c6.32,0,11.463,3.301,11.463,7.357c0,3.009-2.785,5.671-7.111,6.806L15.547,21.766z M13.51,16.785l1.908,3.82l1.057-4.265
				l0.117-0.028c4.207-1.072,6.926-3.602,6.926-6.447c0-3.834-4.961-6.954-11.059-6.954c-6.096,0-11.056,3.12-11.056,6.954
				c0,1.48,0.771,2.963,2.165,4.164l0,0l0.365,4.025l4.478-1.72l0.062,0.014c1.583,0.384,3.261,0.534,4.904,0.443L13.51,16.785z
				 M19.395,13.044H6.145v-0.646h13.25V13.044z M19.395,10.18H6.145V9.533h13.25V10.18z M19.395,7.321H6.145V6.679h13.25V7.321z"/>
		</g>
	</g>
</g>
<g id="Layer_6" display="none">
	<g display="inline">
		<g>
			<path fill="none" stroke="#474744" stroke-width="0.75" stroke-miterlimit="10" d="M23.256,10.966
				c0-3.636-4.636-6.58-10.354-6.58c-5.719,0-10.354,2.944-10.354,6.58c0,1.462,0.755,2.814,2.024,3.908v-0.002l0.324,3.887
				l4.296-1.65l0,0c1.152,0.279,2.403,0.438,3.709,0.438c0.288,0,0.57-0.01,0.853-0.025l1.928,3.855l1.067-4.303
				C20.563,16.103,23.256,13.735,23.256,10.966z M19.539,13.71H6.268v-0.634h13.271V13.71z M19.539,11.284H6.268v-0.635h13.271
				V11.284z M19.539,8.855H6.268V8.221h13.271V8.855z"/>
		</g>
	</g>
</g>
</svg>
